<?xml version="1.0" encoding="utf-8" standalone="no"?>
<!DOCTYPE svg PUBLIC "-//W3C//DTD SVG 1.1//EN"
  "http://www.w3.org/Graphics/SVG/1.1/DTD/svg11.dtd">
<svg xmlns:xlink="http://www.w3.org/1999/xlink" width="995.933281pt" height="424.086813pt" viewBox="0 0 995.933281 424.086813" xmlns="http://www.w3.org/2000/svg" version="1.1">
 <metadata>
  <rdf:RDF xmlns:dc="http://purl.org/dc/elements/1.1/" xmlns:cc="http://creativecommons.org/ns#" xmlns:rdf="http://www.w3.org/1999/02/22-rdf-syntax-ns#">
   <cc:Work>
    <dc:type rdf:resource="http://purl.org/dc/dcmitype/StillImage"/>
    <dc:date>2024-12-12T18:07:34.051183</dc:date>
    <dc:format>image/svg+xml</dc:format>
    <dc:creator>
     <cc:Agent>
      <dc:title>Matplotlib v3.8.3, https://matplotlib.org/</dc:title>
     </cc:Agent>
    </dc:creator>
   </cc:Work>
  </rdf:RDF>
 </metadata>
 <defs>
  <style type="text/css">*{stroke-linejoin: round; stroke-linecap: butt}</style>
 </defs>
 <g id="figure_1">
  <g id="patch_1">
   <path d="M 0 424.086813 
L 995.933281 424.086813 
L 995.933281 0 
L 0 0 
z
" style="fill: #ffffff"/>
  </g>
  <g id="axes_1">
   <g id="PolyCollection_1">
    <defs>
     <path id="m5c3463ea66" d="M 40.190593 -70.766813 
L 40.190593 -55.982813 
L 63.200902 -55.982813 
L 86.211211 -55.982813 
L 109.221521 -55.982813 
L 132.23183 -55.982813 
L 155.242139 -55.982813 
L 178.252448 -55.982813 
L 201.262758 -55.982813 
L 224.273067 -55.982813 
L 247.283376 -55.982813 
L 270.293686 -55.982813 
L 293.303995 -55.982813 
L 316.314304 -55.982813 
L 339.324613 -55.982813 
L 362.334923 -55.982813 
L 385.345232 -55.982813 
L 408.355541 -55.982813 
L 431.365851 -55.982813 
L 454.37616 -55.982813 
L 477.386469 -55.982813 
L 500.396778 -55.982813 
L 523.407088 -55.982813 
L 546.417397 -55.982813 
L 569.427706 -55.982813 
L 592.438015 -55.982813 
L 615.448325 -55.982813 
L 638.458634 -55.982813 
L 661.468943 -55.982813 
L 684.479253 -55.982813 
L 707.489562 -55.982813 
L 730.499871 -55.982813 
L 753.51018 -55.982813 
L 776.52049 -55.982813 
L 799.530799 -55.982813 
L 822.541108 -55.982813 
L 845.551418 -55.982813 
L 868.561727 -55.982813 
L 891.572036 -55.982813 
L 914.582345 -55.982813 
L 914.582345 -133.598813 
L 914.582345 -133.598813 
L 891.572036 -122.510813 
L 868.561727 -118.814813 
L 845.551418 -111.422812 
L 822.541108 -120.662813 
L 799.530799 -113.270813 
L 776.52049 -111.422812 
L 753.51018 -115.118813 
L 730.499871 -104.030812 
L 707.489562 -96.638813 
L 684.479253 -89.246813 
L 661.468943 -85.550813 
L 638.458634 -81.854813 
L 615.448325 -78.158813 
L 592.438015 -74.462813 
L 569.427706 -76.310812 
L 546.417397 -78.158813 
L 523.407088 -74.462813 
L 500.396778 -72.614812 
L 477.386469 -74.462813 
L 454.37616 -72.614812 
L 431.365851 -74.462813 
L 408.355541 -70.766813 
L 385.345232 -74.462813 
L 362.334923 -72.614812 
L 339.324613 -70.766813 
L 316.314304 -68.918813 
L 293.303995 -72.614812 
L 270.293686 -67.070813 
L 247.283376 -68.918813 
L 224.273067 -68.918813 
L 201.262758 -70.766813 
L 178.252448 -74.462813 
L 155.242139 -74.462813 
L 132.23183 -78.158813 
L 109.221521 -80.006813 
L 86.211211 -70.766813 
L 63.200902 -68.918813 
L 40.190593 -70.766813 
z
" style="stroke: #ffc0cb; stroke-opacity: 0.7"/>
    </defs>
    <g clip-path="url(#p2cde14ab3c)">
     <use xlink:href="#m5c3463ea66" x="0" y="424.086813" style="fill: #ffc0cb; fill-opacity: 0.7; stroke: #ffc0cb; stroke-opacity: 0.7"/>
    </g>
   </g>
   <g id="PolyCollection_2">
    <defs>
     <path id="m7c9304a4e4" d="M 40.190593 -107.726812 
L 40.190593 -70.766813 
L 63.200902 -68.918813 
L 86.211211 -70.766813 
L 109.221521 -80.006813 
L 132.23183 -78.158813 
L 155.242139 -74.462813 
L 178.252448 -74.462813 
L 201.262758 -70.766813 
L 224.273067 -68.918813 
L 247.283376 -68.918813 
L 270.293686 -67.070813 
L 293.303995 -72.614812 
L 316.314304 -68.918813 
L 339.324613 -70.766813 
L 362.334923 -72.614812 
L 385.345232 -74.462813 
L 408.355541 -70.766813 
L 431.365851 -74.462813 
L 454.37616 -72.614812 
L 477.386469 -74.462813 
L 500.396778 -72.614812 
L 523.407088 -74.462813 
L 546.417397 -78.158813 
L 569.427706 -76.310812 
L 592.438015 -74.462813 
L 615.448325 -78.158813 
L 638.458634 -81.854813 
L 661.468943 -85.550813 
L 684.479253 -89.246813 
L 707.489562 -96.638813 
L 730.499871 -104.030812 
L 753.51018 -115.118813 
L 776.52049 -111.422812 
L 799.530799 -113.270813 
L 822.541108 -120.662813 
L 845.551418 -111.422812 
L 868.561727 -118.814813 
L 891.572036 -122.510813 
L 914.582345 -133.598813 
L 914.582345 -294.374812 
L 914.582345 -294.374812 
L 891.572036 -286.982812 
L 868.561727 -277.742812 
L 845.551418 -338.726812 
L 822.541108 -296.222812 
L 799.530799 -268.502813 
L 776.52049 -311.006813 
L 753.51018 -288.830812 
L 730.499871 -240.782812 
L 707.489562 -235.238812 
L 684.479253 -190.886812 
L 661.468943 -172.406813 
L 638.458634 -183.494813 
L 615.448325 -168.710812 
L 592.438015 -161.318812 
L 569.427706 -176.102812 
L 546.417397 -159.470812 
L 523.407088 -140.990813 
L 500.396778 -126.206812 
L 477.386469 -124.358812 
L 454.37616 -116.966813 
L 431.365851 -115.118813 
L 408.355541 -105.878813 
L 385.345232 -92.942813 
L 362.334923 -98.486812 
L 339.324613 -105.878813 
L 316.314304 -83.702813 
L 293.303995 -126.206812 
L 270.293686 -102.182813 
L 247.283376 -94.790813 
L 224.273067 -100.334812 
L 201.262758 -115.118813 
L 178.252448 -107.726812 
L 155.242139 -163.166812 
L 132.23183 -129.902812 
L 109.221521 -94.790813 
L 86.211211 -116.966813 
L 63.200902 -100.334812 
L 40.190593 -107.726812 
z
" style="stroke: #104e8b; stroke-opacity: 0.3"/>
    </defs>
    <g clip-path="url(#p2cde14ab3c)">
     <use xlink:href="#m7c9304a4e4" x="0" y="424.086813" style="fill: #104e8b; fill-opacity: 0.3; stroke: #104e8b; stroke-opacity: 0.3"/>
    </g>
   </g>
   <g id="matplotlib.axis_1">
    <g id="ytick_1">
     <g id="line2d_1">
      <defs>
       <path id="mb6f9b51037" d="M 0 0 
L 3.5 0 
" style="stroke: #000000; stroke-width: 0.8"/>
      </defs>
      <g>
       <use xlink:href="#mb6f9b51037" x="926.0875" y="368.104" style="stroke: #000000; stroke-width: 0.8"/>
      </g>
     </g>
     <g id="text_1">
      <!-- 0% -->
      <g transform="translate(933.0875 371.903219) scale(0.1 -0.1)">
       <defs>
        <path id="DejaVuSans-30" d="M 2034 4250 
Q 1547 4250 1301 3770 
Q 1056 3291 1056 2328 
Q 1056 1369 1301 889 
Q 1547 409 2034 409 
Q 2525 409 2770 889 
Q 3016 1369 3016 2328 
Q 3016 3291 2770 3770 
Q 2525 4250 2034 4250 
z
M 2034 4750 
Q 2819 4750 3233 4129 
Q 3647 3509 3647 2328 
Q 3647 1150 3233 529 
Q 2819 -91 2034 -91 
Q 1250 -91 836 529 
Q 422 1150 422 2328 
Q 422 3509 836 4129 
Q 1250 4750 2034 4750 
z
" transform="scale(0.015625)"/>
        <path id="DejaVuSans-25" d="M 4653 2053 
Q 4381 2053 4226 1822 
Q 4072 1591 4072 1178 
Q 4072 772 4226 539 
Q 4381 306 4653 306 
Q 4919 306 5073 539 
Q 5228 772 5228 1178 
Q 5228 1588 5073 1820 
Q 4919 2053 4653 2053 
z
M 4653 2450 
Q 5147 2450 5437 2106 
Q 5728 1763 5728 1178 
Q 5728 594 5436 251 
Q 5144 -91 4653 -91 
Q 4153 -91 3862 251 
Q 3572 594 3572 1178 
Q 3572 1766 3864 2108 
Q 4156 2450 4653 2450 
z
M 1428 4353 
Q 1159 4353 1004 4120 
Q 850 3888 850 3481 
Q 850 3069 1003 2837 
Q 1156 2606 1428 2606 
Q 1700 2606 1854 2837 
Q 2009 3069 2009 3481 
Q 2009 3884 1853 4118 
Q 1697 4353 1428 4353 
z
M 4250 4750 
L 4750 4750 
L 1831 -91 
L 1331 -91 
L 4250 4750 
z
M 1428 4750 
Q 1922 4750 2215 4408 
Q 2509 4066 2509 3481 
Q 2509 2891 2217 2550 
Q 1925 2209 1428 2209 
Q 931 2209 642 2551 
Q 353 2894 353 3481 
Q 353 4063 643 4406 
Q 934 4750 1428 4750 
z
" transform="scale(0.015625)"/>
       </defs>
       <use xlink:href="#DejaVuSans-30"/>
       <use xlink:href="#DejaVuSans-25" x="63.623047"/>
      </g>
     </g>
    </g>
    <g id="ytick_2">
     <g id="line2d_2">
      <g>
       <use xlink:href="#mb6f9b51037" x="926.0875" y="331.144" style="stroke: #000000; stroke-width: 0.8"/>
      </g>
     </g>
     <g id="text_2">
      <!-- 2% -->
      <g transform="translate(933.0875 334.943219) scale(0.1 -0.1)">
       <defs>
        <path id="DejaVuSans-32" d="M 1228 531 
L 3431 531 
L 3431 0 
L 469 0 
L 469 531 
Q 828 903 1448 1529 
Q 2069 2156 2228 2338 
Q 2531 2678 2651 2914 
Q 2772 3150 2772 3378 
Q 2772 3750 2511 3984 
Q 2250 4219 1831 4219 
Q 1534 4219 1204 4116 
Q 875 4013 500 3803 
L 500 4441 
Q 881 4594 1212 4672 
Q 1544 4750 1819 4750 
Q 2544 4750 2975 4387 
Q 3406 4025 3406 3419 
Q 3406 3131 3298 2873 
Q 3191 2616 2906 2266 
Q 2828 2175 2409 1742 
Q 1991 1309 1228 531 
z
" transform="scale(0.015625)"/>
       </defs>
       <use xlink:href="#DejaVuSans-32"/>
       <use xlink:href="#DejaVuSans-25" x="63.623047"/>
      </g>
     </g>
    </g>
    <g id="ytick_3">
     <g id="line2d_3">
      <g>
       <use xlink:href="#mb6f9b51037" x="926.0875" y="294.184" style="stroke: #000000; stroke-width: 0.8"/>
      </g>
     </g>
     <g id="text_3">
      <!-- 4% -->
      <g transform="translate(933.0875 297.983219) scale(0.1 -0.1)">
       <defs>
        <path id="DejaVuSans-34" d="M 2419 4116 
L 825 1625 
L 2419 1625 
L 2419 4116 
z
M 2253 4666 
L 3047 4666 
L 3047 1625 
L 3713 1625 
L 3713 1100 
L 3047 1100 
L 3047 0 
L 2419 0 
L 2419 1100 
L 313 1100 
L 313 1709 
L 2253 4666 
z
" transform="scale(0.015625)"/>
       </defs>
       <use xlink:href="#DejaVuSans-34"/>
       <use xlink:href="#DejaVuSans-25" x="63.623047"/>
      </g>
     </g>
    </g>
    <g id="ytick_4">
     <g id="line2d_4">
      <g>
       <use xlink:href="#mb6f9b51037" x="926.0875" y="257.224" style="stroke: #000000; stroke-width: 0.8"/>
      </g>
     </g>
     <g id="text_4">
      <!-- 6% -->
      <g transform="translate(933.0875 261.023219) scale(0.1 -0.1)">
       <defs>
        <path id="DejaVuSans-36" d="M 2113 2584 
Q 1688 2584 1439 2293 
Q 1191 2003 1191 1497 
Q 1191 994 1439 701 
Q 1688 409 2113 409 
Q 2538 409 2786 701 
Q 3034 994 3034 1497 
Q 3034 2003 2786 2293 
Q 2538 2584 2113 2584 
z
M 3366 4563 
L 3366 3988 
Q 3128 4100 2886 4159 
Q 2644 4219 2406 4219 
Q 1781 4219 1451 3797 
Q 1122 3375 1075 2522 
Q 1259 2794 1537 2939 
Q 1816 3084 2150 3084 
Q 2853 3084 3261 2657 
Q 3669 2231 3669 1497 
Q 3669 778 3244 343 
Q 2819 -91 2113 -91 
Q 1303 -91 875 529 
Q 447 1150 447 2328 
Q 447 3434 972 4092 
Q 1497 4750 2381 4750 
Q 2619 4750 2861 4703 
Q 3103 4656 3366 4563 
z
" transform="scale(0.015625)"/>
       </defs>
       <use xlink:href="#DejaVuSans-36"/>
       <use xlink:href="#DejaVuSans-25" x="63.623047"/>
      </g>
     </g>
    </g>
    <g id="ytick_5">
     <g id="line2d_5">
      <g>
       <use xlink:href="#mb6f9b51037" x="926.0875" y="220.264" style="stroke: #000000; stroke-width: 0.8"/>
      </g>
     </g>
     <g id="text_5">
      <!-- 8% -->
      <g transform="translate(933.0875 224.063219) scale(0.1 -0.1)">
       <defs>
        <path id="DejaVuSans-38" d="M 2034 2216 
Q 1584 2216 1326 1975 
Q 1069 1734 1069 1313 
Q 1069 891 1326 650 
Q 1584 409 2034 409 
Q 2484 409 2743 651 
Q 3003 894 3003 1313 
Q 3003 1734 2745 1975 
Q 2488 2216 2034 2216 
z
M 1403 2484 
Q 997 2584 770 2862 
Q 544 3141 544 3541 
Q 544 4100 942 4425 
Q 1341 4750 2034 4750 
Q 2731 4750 3128 4425 
Q 3525 4100 3525 3541 
Q 3525 3141 3298 2862 
Q 3072 2584 2669 2484 
Q 3125 2378 3379 2068 
Q 3634 1759 3634 1313 
Q 3634 634 3220 271 
Q 2806 -91 2034 -91 
Q 1263 -91 848 271 
Q 434 634 434 1313 
Q 434 1759 690 2068 
Q 947 2378 1403 2484 
z
M 1172 3481 
Q 1172 3119 1398 2916 
Q 1625 2713 2034 2713 
Q 2441 2713 2670 2916 
Q 2900 3119 2900 3481 
Q 2900 3844 2670 4047 
Q 2441 4250 2034 4250 
Q 1625 4250 1398 4047 
Q 1172 3844 1172 3481 
z
" transform="scale(0.015625)"/>
       </defs>
       <use xlink:href="#DejaVuSans-38"/>
       <use xlink:href="#DejaVuSans-25" x="63.623047"/>
      </g>
     </g>
    </g>
    <g id="ytick_6">
     <g id="line2d_6">
      <g>
       <use xlink:href="#mb6f9b51037" x="926.0875" y="183.304" style="stroke: #000000; stroke-width: 0.8"/>
      </g>
     </g>
     <g id="text_6">
      <!-- 10% -->
      <g transform="translate(933.0875 187.103219) scale(0.1 -0.1)">
       <defs>
        <path id="DejaVuSans-31" d="M 794 531 
L 1825 531 
L 1825 4091 
L 703 3866 
L 703 4441 
L 1819 4666 
L 2450 4666 
L 2450 531 
L 3481 531 
L 3481 0 
L 794 0 
L 794 531 
z
" transform="scale(0.015625)"/>
       </defs>
       <use xlink:href="#DejaVuSans-31"/>
       <use xlink:href="#DejaVuSans-30" x="63.623047"/>
       <use xlink:href="#DejaVuSans-25" x="127.246094"/>
      </g>
     </g>
    </g>
    <g id="ytick_7">
     <g id="line2d_7">
      <g>
       <use xlink:href="#mb6f9b51037" x="926.0875" y="146.344" style="stroke: #000000; stroke-width: 0.8"/>
      </g>
     </g>
     <g id="text_7">
      <!-- 12% -->
      <g transform="translate(933.0875 150.143219) scale(0.1 -0.1)">
       <use xlink:href="#DejaVuSans-31"/>
       <use xlink:href="#DejaVuSans-32" x="63.623047"/>
       <use xlink:href="#DejaVuSans-25" x="127.246094"/>
      </g>
     </g>
    </g>
    <g id="ytick_8">
     <g id="line2d_8">
      <g>
       <use xlink:href="#mb6f9b51037" x="926.0875" y="109.384" style="stroke: #000000; stroke-width: 0.8"/>
      </g>
     </g>
     <g id="text_8">
      <!-- 14% -->
      <g transform="translate(933.0875 113.183219) scale(0.1 -0.1)">
       <use xlink:href="#DejaVuSans-31"/>
       <use xlink:href="#DejaVuSans-34" x="63.623047"/>
       <use xlink:href="#DejaVuSans-25" x="127.246094"/>
      </g>
     </g>
    </g>
    <g id="ytick_9">
     <g id="line2d_9">
      <g>
       <use xlink:href="#mb6f9b51037" x="926.0875" y="72.424" style="stroke: #000000; stroke-width: 0.8"/>
      </g>
     </g>
     <g id="text_9">
      <!-- 16% -->
      <g transform="translate(933.0875 76.223219) scale(0.1 -0.1)">
       <use xlink:href="#DejaVuSans-31"/>
       <use xlink:href="#DejaVuSans-36" x="63.623047"/>
       <use xlink:href="#DejaVuSans-25" x="127.246094"/>
      </g>
     </g>
    </g>
    <g id="ytick_10">
     <g id="line2d_10">
      <g>
       <use xlink:href="#mb6f9b51037" x="926.0875" y="35.464" style="stroke: #000000; stroke-width: 0.8"/>
      </g>
     </g>
     <g id="text_10">
      <!-- 18% -->
      <g transform="translate(933.0875 39.263219) scale(0.1 -0.1)">
       <use xlink:href="#DejaVuSans-31"/>
       <use xlink:href="#DejaVuSans-38" x="63.623047"/>
       <use xlink:href="#DejaVuSans-25" x="127.246094"/>
      </g>
     </g>
    </g>
   </g>
   <g id="line2d_11">
    <path d="M 40.190593 353.32 
L 63.200902 355.168 
L 86.211211 353.32 
L 109.221521 344.08 
L 132.23183 345.928 
L 155.242139 349.624 
L 178.252448 349.624 
L 201.262758 353.32 
L 224.273067 355.168 
L 247.283376 355.168 
L 270.293686 357.016 
L 293.303995 351.472 
L 316.314304 355.168 
L 339.324613 353.32 
L 362.334923 351.472 
L 385.345232 349.624 
L 408.355541 353.32 
L 431.365851 349.624 
L 454.37616 351.472 
L 477.386469 349.624 
L 500.396778 351.472 
L 523.407088 349.624 
L 546.417397 345.928 
L 569.427706 347.776 
L 592.438015 349.624 
L 615.448325 345.928 
L 638.458634 342.232 
L 661.468943 338.536 
L 684.479253 334.84 
L 707.489562 327.448 
L 730.499871 320.056 
L 753.51018 308.968 
L 776.52049 312.664 
L 799.530799 310.816 
L 822.541108 303.424 
L 845.551418 312.664 
L 868.561727 305.272 
L 891.572036 301.576 
L 914.582345 290.488 
" clip-path="url(#p2cde14ab3c)" style="fill: none; stroke: #ffc0cb; stroke-linecap: square"/>
   </g>
   <g id="line2d_12">
    <path d="M 40.190593 316.36 
L 63.200902 323.752 
L 86.211211 307.12 
L 109.221521 329.296 
L 132.23183 294.184 
L 155.242139 260.92 
L 178.252448 316.36 
L 201.262758 308.968 
L 224.273067 323.752 
L 247.283376 329.296 
L 270.293686 321.904 
L 293.303995 297.88 
L 316.314304 340.384 
L 339.324613 318.208 
L 362.334923 325.6 
L 385.345232 331.144 
L 408.355541 318.208 
L 431.365851 308.968 
L 454.37616 307.12 
L 477.386469 299.728 
L 500.396778 297.88 
L 523.407088 283.096 
L 546.417397 264.616 
L 569.427706 247.984 
L 592.438015 262.768 
L 615.448325 255.376 
L 638.458634 240.592 
L 661.468943 251.68 
L 684.479253 233.2 
L 707.489562 188.848 
L 730.499871 183.304 
L 753.51018 135.256 
L 776.52049 113.08 
L 799.530799 155.584 
L 822.541108 127.864 
L 845.551418 85.36 
L 868.561727 146.344 
L 891.572036 137.104 
L 914.582345 129.712 
" clip-path="url(#p2cde14ab3c)" style="fill: none; stroke: #104e8b; stroke-linecap: square"/>
   </g>
   <g id="patch_2">
    <path d="M 33.2875 368.104 
L 926.0875 368.104 
" style="fill: none; stroke: #000000; stroke-width: 0.8; stroke-linejoin: miter; stroke-linecap: square"/>
   </g>
   <g id="legend_1">
    <g id="patch_3">
     <path d="M 23.022188 20.15 
L 33.022188 20.15 
L 33.022188 11.2 
L 23.022188 11.2 
z
" style="fill: #ffc0cb; fill-opacity: 0.7; stroke: #ffc0cb; stroke-opacity: 0.7; stroke-linejoin: miter"/>
    </g>
    <g id="text_11">
     <!-- PHV Proportion -->
     <g transform="translate(41.022188 19.1) scale(0.1 -0.1)">
      <defs>
       <path id="DejaVuSans-50" d="M 1259 4147 
L 1259 2394 
L 2053 2394 
Q 2494 2394 2734 2622 
Q 2975 2850 2975 3272 
Q 2975 3691 2734 3919 
Q 2494 4147 2053 4147 
L 1259 4147 
z
M 628 4666 
L 2053 4666 
Q 2838 4666 3239 4311 
Q 3641 3956 3641 3272 
Q 3641 2581 3239 2228 
Q 2838 1875 2053 1875 
L 1259 1875 
L 1259 0 
L 628 0 
L 628 4666 
z
" transform="scale(0.015625)"/>
       <path id="DejaVuSans-48" d="M 628 4666 
L 1259 4666 
L 1259 2753 
L 3553 2753 
L 3553 4666 
L 4184 4666 
L 4184 0 
L 3553 0 
L 3553 2222 
L 1259 2222 
L 1259 0 
L 628 0 
L 628 4666 
z
" transform="scale(0.015625)"/>
       <path id="DejaVuSans-56" d="M 1831 0 
L 50 4666 
L 709 4666 
L 2188 738 
L 3669 4666 
L 4325 4666 
L 2547 0 
L 1831 0 
z
" transform="scale(0.015625)"/>
       <path id="DejaVuSans-20" transform="scale(0.015625)"/>
       <path id="DejaVuSans-72" d="M 2631 2963 
Q 2534 3019 2420 3045 
Q 2306 3072 2169 3072 
Q 1681 3072 1420 2755 
Q 1159 2438 1159 1844 
L 1159 0 
L 581 0 
L 581 3500 
L 1159 3500 
L 1159 2956 
Q 1341 3275 1631 3429 
Q 1922 3584 2338 3584 
Q 2397 3584 2469 3576 
Q 2541 3569 2628 3553 
L 2631 2963 
z
" transform="scale(0.015625)"/>
       <path id="DejaVuSans-6f" d="M 1959 3097 
Q 1497 3097 1228 2736 
Q 959 2375 959 1747 
Q 959 1119 1226 758 
Q 1494 397 1959 397 
Q 2419 397 2687 759 
Q 2956 1122 2956 1747 
Q 2956 2369 2687 2733 
Q 2419 3097 1959 3097 
z
M 1959 3584 
Q 2709 3584 3137 3096 
Q 3566 2609 3566 1747 
Q 3566 888 3137 398 
Q 2709 -91 1959 -91 
Q 1206 -91 779 398 
Q 353 888 353 1747 
Q 353 2609 779 3096 
Q 1206 3584 1959 3584 
z
" transform="scale(0.015625)"/>
       <path id="DejaVuSans-70" d="M 1159 525 
L 1159 -1331 
L 581 -1331 
L 581 3500 
L 1159 3500 
L 1159 2969 
Q 1341 3281 1617 3432 
Q 1894 3584 2278 3584 
Q 2916 3584 3314 3078 
Q 3713 2572 3713 1747 
Q 3713 922 3314 415 
Q 2916 -91 2278 -91 
Q 1894 -91 1617 61 
Q 1341 213 1159 525 
z
M 3116 1747 
Q 3116 2381 2855 2742 
Q 2594 3103 2138 3103 
Q 1681 3103 1420 2742 
Q 1159 2381 1159 1747 
Q 1159 1113 1420 752 
Q 1681 391 2138 391 
Q 2594 391 2855 752 
Q 3116 1113 3116 1747 
z
" transform="scale(0.015625)"/>
       <path id="DejaVuSans-74" d="M 1172 4494 
L 1172 3500 
L 2356 3500 
L 2356 3053 
L 1172 3053 
L 1172 1153 
Q 1172 725 1289 603 
Q 1406 481 1766 481 
L 2356 481 
L 2356 0 
L 1766 0 
Q 1100 0 847 248 
Q 594 497 594 1153 
L 594 3053 
L 172 3053 
L 172 3500 
L 594 3500 
L 594 4494 
L 1172 4494 
z
" transform="scale(0.015625)"/>
       <path id="DejaVuSans-69" d="M 603 3500 
L 1178 3500 
L 1178 0 
L 603 0 
L 603 3500 
z
M 603 4863 
L 1178 4863 
L 1178 4134 
L 603 4134 
L 603 4863 
z
" transform="scale(0.015625)"/>
       <path id="DejaVuSans-6e" d="M 3513 2113 
L 3513 0 
L 2938 0 
L 2938 2094 
Q 2938 2591 2744 2837 
Q 2550 3084 2163 3084 
Q 1697 3084 1428 2787 
Q 1159 2491 1159 1978 
L 1159 0 
L 581 0 
L 581 3500 
L 1159 3500 
L 1159 2956 
Q 1366 3272 1645 3428 
Q 1925 3584 2291 3584 
Q 2894 3584 3203 3211 
Q 3513 2838 3513 2113 
z
" transform="scale(0.015625)"/>
      </defs>
      <use xlink:href="#DejaVuSans-50"/>
      <use xlink:href="#DejaVuSans-48" x="60.302734"/>
      <use xlink:href="#DejaVuSans-56" x="135.498047"/>
      <use xlink:href="#DejaVuSans-20" x="203.90625"/>
      <use xlink:href="#DejaVuSans-50" x="235.693359"/>
      <use xlink:href="#DejaVuSans-72" x="294.246094"/>
      <use xlink:href="#DejaVuSans-6f" x="333.109375"/>
      <use xlink:href="#DejaVuSans-70" x="394.291016"/>
      <use xlink:href="#DejaVuSans-6f" x="457.767578"/>
      <use xlink:href="#DejaVuSans-72" x="518.949219"/>
      <use xlink:href="#DejaVuSans-74" x="560.0625"/>
      <use xlink:href="#DejaVuSans-69" x="599.271484"/>
      <use xlink:href="#DejaVuSans-6f" x="627.054688"/>
      <use xlink:href="#DejaVuSans-6e" x="688.236328"/>
     </g>
    </g>
    <g id="patch_4">
     <path d="M 136.183125 20.15 
L 146.183125 20.15 
L 146.183125 11.2 
L 136.183125 11.2 
z
" style="fill: #104e8b; fill-opacity: 0.3; stroke: #104e8b; stroke-opacity: 0.3; stroke-linejoin: miter"/>
    </g>
    <g id="text_12">
     <!-- EV Proportion -->
     <g transform="translate(154.183125 19.1) scale(0.1 -0.1)">
      <defs>
       <path id="DejaVuSans-45" d="M 628 4666 
L 3578 4666 
L 3578 4134 
L 1259 4134 
L 1259 2753 
L 3481 2753 
L 3481 2222 
L 1259 2222 
L 1259 531 
L 3634 531 
L 3634 0 
L 628 0 
L 628 4666 
z
" transform="scale(0.015625)"/>
      </defs>
      <use xlink:href="#DejaVuSans-45"/>
      <use xlink:href="#DejaVuSans-56" x="63.183594"/>
      <use xlink:href="#DejaVuSans-20" x="131.591797"/>
      <use xlink:href="#DejaVuSans-50" x="163.378906"/>
      <use xlink:href="#DejaVuSans-72" x="221.931641"/>
      <use xlink:href="#DejaVuSans-6f" x="260.794922"/>
      <use xlink:href="#DejaVuSans-70" x="321.976562"/>
      <use xlink:href="#DejaVuSans-6f" x="385.453125"/>
      <use xlink:href="#DejaVuSans-72" x="446.634766"/>
      <use xlink:href="#DejaVuSans-74" x="487.748047"/>
      <use xlink:href="#DejaVuSans-69" x="526.957031"/>
      <use xlink:href="#DejaVuSans-6f" x="554.740234"/>
      <use xlink:href="#DejaVuSans-6e" x="615.921875"/>
     </g>
    </g>
   </g>
  </g>
  <g id="axes_2">
   <g id="patch_5">
    <path d="M 33.2875 368.104 
L 926.0875 368.104 
L 926.0875 35.464 
L 33.2875 35.464 
L 33.2875 368.104 
z
" style="fill: none; opacity: 0"/>
   </g>
   <g id="patch_6">
    <path d="M 37.314304 368.104 
L 43.066881 368.104 
L 43.066881 116.4064 
L 37.314304 116.4064 
z
" clip-path="url(#p2cde14ab3c)" style="fill: #cd2626"/>
   </g>
   <g id="patch_7">
    <path d="M 60.324613 368.104 
L 66.077191 368.104 
L 66.077191 204.0016 
L 60.324613 204.0016 
z
" clip-path="url(#p2cde14ab3c)" style="fill: #cd2626"/>
   </g>
   <g id="patch_8">
    <path d="M 83.334923 368.104 
L 89.0875 368.104 
L 89.0875 100.8832 
L 83.334923 100.8832 
z
" clip-path="url(#p2cde14ab3c)" style="fill: #cd2626"/>
   </g>
   <g id="patch_9">
    <path d="M 106.345232 368.104 
L 112.097809 368.104 
L 112.097809 159.6496 
L 106.345232 159.6496 
z
" clip-path="url(#p2cde14ab3c)" style="fill: #cd2626"/>
   </g>
   <g id="patch_10">
    <path d="M 129.355541 368.104 
L 135.108119 368.104 
L 135.108119 167.4112 
L 129.355541 167.4112 
z
" clip-path="url(#p2cde14ab3c)" style="fill: #cd2626"/>
   </g>
   <g id="patch_11">
    <path d="M 152.365851 368.104 
L 158.118428 368.104 
L 158.118428 156.3232 
L 152.365851 156.3232 
z
" clip-path="url(#p2cde14ab3c)" style="fill: #cd2626"/>
   </g>
   <g id="patch_12">
    <path d="M 175.37616 368.104 
L 181.128737 368.104 
L 181.128737 177.3904 
L 175.37616 177.3904 
z
" clip-path="url(#p2cde14ab3c)" style="fill: #cd2626"/>
   </g>
   <g id="patch_13">
    <path d="M 198.386469 368.104 
L 204.139046 368.104 
L 204.139046 158.5408 
L 198.386469 158.5408 
z
" clip-path="url(#p2cde14ab3c)" style="fill: #cd2626"/>
   </g>
   <g id="patch_14">
    <path d="M 221.396778 368.104 
L 227.149356 368.104 
L 227.149356 128.6032 
L 221.396778 128.6032 
z
" clip-path="url(#p2cde14ab3c)" style="fill: #cd2626"/>
   </g>
   <g id="patch_15">
    <path d="M 244.407088 368.104 
L 250.159665 368.104 
L 250.159665 130.8208 
L 244.407088 130.8208 
z
" clip-path="url(#p2cde14ab3c)" style="fill: #cd2626"/>
   </g>
   <g id="patch_16">
    <path d="M 267.417397 368.104 
L 273.169974 368.104 
L 273.169974 106.4272 
L 267.417397 106.4272 
z
" clip-path="url(#p2cde14ab3c)" style="fill: #cd2626"/>
   </g>
   <g id="patch_17">
    <path d="M 290.427706 368.104 
L 296.180284 368.104 
L 296.180284 89.7952 
L 290.427706 89.7952 
z
" clip-path="url(#p2cde14ab3c)" style="fill: #cd2626"/>
   </g>
   <g id="patch_18">
    <path d="M 313.438015 368.104 
L 319.190593 368.104 
L 319.190593 166.3024 
L 313.438015 166.3024 
z
" clip-path="url(#p2cde14ab3c)" style="fill: #cd2626"/>
   </g>
   <g id="patch_19">
    <path d="M 336.448325 368.104 
L 342.200902 368.104 
L 342.200902 334.84 
L 336.448325 334.84 
z
" clip-path="url(#p2cde14ab3c)" style="fill: #cd2626"/>
   </g>
   <g id="patch_20">
    <path d="M 359.458634 368.104 
L 365.211211 368.104 
L 365.211211 215.0896 
L 359.458634 215.0896 
z
" clip-path="url(#p2cde14ab3c)" style="fill: #cd2626"/>
   </g>
   <g id="patch_21">
    <path d="M 382.468943 368.104 
L 388.221521 368.104 
L 388.221521 148.5616 
L 382.468943 148.5616 
z
" clip-path="url(#p2cde14ab3c)" style="fill: #cd2626"/>
   </g>
   <g id="patch_22">
    <path d="M 405.479253 368.104 
L 411.23183 368.104 
L 411.23183 135.256 
L 405.479253 135.256 
z
" clip-path="url(#p2cde14ab3c)" style="fill: #cd2626"/>
   </g>
   <g id="patch_23">
    <path d="M 428.489562 368.104 
L 434.242139 368.104 
L 434.242139 125.2768 
L 428.489562 125.2768 
z
" clip-path="url(#p2cde14ab3c)" style="fill: #cd2626"/>
   </g>
   <g id="patch_24">
    <path d="M 451.499871 368.104 
L 457.252448 368.104 
L 457.252448 146.344 
L 451.499871 146.344 
z
" clip-path="url(#p2cde14ab3c)" style="fill: #cd2626"/>
   </g>
   <g id="patch_25">
    <path d="M 474.51018 368.104 
L 480.262758 368.104 
L 480.262758 138.5824 
L 474.51018 138.5824 
z
" clip-path="url(#p2cde14ab3c)" style="fill: #cd2626"/>
   </g>
   <g id="patch_26">
    <path d="M 497.52049 368.104 
L 503.273067 368.104 
L 503.273067 101.992 
L 497.52049 101.992 
z
" clip-path="url(#p2cde14ab3c)" style="fill: #cd2626"/>
   </g>
   <g id="patch_27">
    <path d="M 520.530799 368.104 
L 526.283376 368.104 
L 526.283376 101.992 
L 520.530799 101.992 
z
" clip-path="url(#p2cde14ab3c)" style="fill: #cd2626"/>
   </g>
   <g id="patch_28">
    <path d="M 543.541108 368.104 
L 549.293686 368.104 
L 549.293686 85.36 
L 543.541108 85.36 
z
" clip-path="url(#p2cde14ab3c)" style="fill: #cd2626"/>
   </g>
   <g id="patch_29">
    <path d="M 566.551418 368.104 
L 572.303995 368.104 
L 572.303995 79.816 
L 566.551418 79.816 
z
" clip-path="url(#p2cde14ab3c)" style="fill: #cd2626"/>
   </g>
   <g id="patch_30">
    <path d="M 589.561727 368.104 
L 595.314304 368.104 
L 595.314304 114.1888 
L 589.561727 114.1888 
z
" clip-path="url(#p2cde14ab3c)" style="fill: #cd2626"/>
   </g>
   <g id="patch_31">
    <path d="M 612.572036 368.104 
L 618.324613 368.104 
L 618.324613 221.7424 
L 612.572036 221.7424 
z
" clip-path="url(#p2cde14ab3c)" style="fill: #cd2626"/>
   </g>
   <g id="patch_32">
    <path d="M 635.582345 368.104 
L 641.334923 368.104 
L 641.334923 116.4064 
L 635.582345 116.4064 
z
" clip-path="url(#p2cde14ab3c)" style="fill: #cd2626"/>
   </g>
   <g id="patch_33">
    <path d="M 658.592655 368.104 
L 664.345232 368.104 
L 664.345232 146.344 
L 658.592655 146.344 
z
" clip-path="url(#p2cde14ab3c)" style="fill: #cd2626"/>
   </g>
   <g id="patch_34">
    <path d="M 681.602964 368.104 
L 687.355541 368.104 
L 687.355541 158.5408 
L 681.602964 158.5408 
z
" clip-path="url(#p2cde14ab3c)" style="fill: #cd2626"/>
   </g>
   <g id="patch_35">
    <path d="M 704.613273 368.104 
L 710.365851 368.104 
L 710.365851 177.3904 
L 704.613273 177.3904 
z
" clip-path="url(#p2cde14ab3c)" style="fill: #cd2626"/>
   </g>
   <g id="patch_36">
    <path d="M 727.623582 368.104 
L 733.37616 368.104 
L 733.37616 194.0224 
L 727.623582 194.0224 
z
" clip-path="url(#p2cde14ab3c)" style="fill: #cd2626"/>
   </g>
   <g id="patch_37">
    <path d="M 750.633892 368.104 
L 756.386469 368.104 
L 756.386469 206.2192 
L 750.633892 206.2192 
z
" clip-path="url(#p2cde14ab3c)" style="fill: #cd2626"/>
   </g>
   <g id="patch_38">
    <path d="M 773.644201 368.104 
L 779.396778 368.104 
L 779.396778 181.8256 
L 773.644201 181.8256 
z
" clip-path="url(#p2cde14ab3c)" style="fill: #cd2626"/>
   </g>
   <g id="patch_39">
    <path d="M 796.65451 368.104 
L 802.407088 368.104 
L 802.407088 154.1056 
L 796.65451 154.1056 
z
" clip-path="url(#p2cde14ab3c)" style="fill: #cd2626"/>
   </g>
   <g id="patch_40">
    <path d="M 819.66482 368.104 
L 825.417397 368.104 
L 825.417397 144.1264 
L 819.66482 144.1264 
z
" clip-path="url(#p2cde14ab3c)" style="fill: #cd2626"/>
   </g>
   <g id="patch_41">
    <path d="M 842.675129 368.104 
L 848.427706 368.104 
L 848.427706 124.168 
L 842.675129 124.168 
z
" clip-path="url(#p2cde14ab3c)" style="fill: #cd2626"/>
   </g>
   <g id="patch_42">
    <path d="M 865.685438 368.104 
L 871.438015 368.104 
L 871.438015 140.8 
L 865.685438 140.8 
z
" clip-path="url(#p2cde14ab3c)" style="fill: #cd2626"/>
   </g>
   <g id="patch_43">
    <path d="M 888.695747 368.104 
L 894.448325 368.104 
L 894.448325 177.3904 
L 888.695747 177.3904 
z
" clip-path="url(#p2cde14ab3c)" style="fill: #cd2626"/>
   </g>
   <g id="patch_44">
    <path d="M 911.706057 368.104 
L 917.458634 368.104 
L 917.458634 124.168 
L 911.706057 124.168 
z
" clip-path="url(#p2cde14ab3c)" style="fill: #cd2626"/>
   </g>
   <g id="matplotlib.axis_2">
    <g id="xtick_1">
     <g id="line2d_13">
      <defs>
       <path id="m03b4f83fcd" d="M 0 0 
L 0 3.5 
" style="stroke: #000000; stroke-width: 0.8"/>
      </defs>
      <g>
       <use xlink:href="#m03b4f83fcd" x="40.190593" y="368.104" style="stroke: #000000; stroke-width: 0.8"/>
      </g>
     </g>
     <g id="text_13">
      <!-- 2019-01 -->
      <g transform="translate(38.110905 416.886813) rotate(-90) scale(0.1 -0.1)">
       <defs>
        <path id="DejaVuSans-39" d="M 703 97 
L 703 672 
Q 941 559 1184 500 
Q 1428 441 1663 441 
Q 2288 441 2617 861 
Q 2947 1281 2994 2138 
Q 2813 1869 2534 1725 
Q 2256 1581 1919 1581 
Q 1219 1581 811 2004 
Q 403 2428 403 3163 
Q 403 3881 828 4315 
Q 1253 4750 1959 4750 
Q 2769 4750 3195 4129 
Q 3622 3509 3622 2328 
Q 3622 1225 3098 567 
Q 2575 -91 1691 -91 
Q 1453 -91 1209 -44 
Q 966 3 703 97 
z
M 1959 2075 
Q 2384 2075 2632 2365 
Q 2881 2656 2881 3163 
Q 2881 3666 2632 3958 
Q 2384 4250 1959 4250 
Q 1534 4250 1286 3958 
Q 1038 3666 1038 3163 
Q 1038 2656 1286 2365 
Q 1534 2075 1959 2075 
z
" transform="scale(0.015625)"/>
        <path id="DejaVuSans-2d" d="M 313 2009 
L 1997 2009 
L 1997 1497 
L 313 1497 
L 313 2009 
z
" transform="scale(0.015625)"/>
       </defs>
       <use xlink:href="#DejaVuSans-32"/>
       <use xlink:href="#DejaVuSans-30" x="63.623047"/>
       <use xlink:href="#DejaVuSans-31" x="127.246094"/>
       <use xlink:href="#DejaVuSans-39" x="190.869141"/>
       <use xlink:href="#DejaVuSans-2d" x="254.492188"/>
       <use xlink:href="#DejaVuSans-30" x="290.576172"/>
       <use xlink:href="#DejaVuSans-31" x="354.199219"/>
      </g>
     </g>
    </g>
    <g id="xtick_2">
     <g id="line2d_14">
      <g>
       <use xlink:href="#m03b4f83fcd" x="63.200902" y="368.104" style="stroke: #000000; stroke-width: 0.8"/>
      </g>
     </g>
     <g id="text_14">
      <!-- 2019-02 -->
      <g transform="translate(61.121215 416.886813) rotate(-90) scale(0.1 -0.1)">
       <use xlink:href="#DejaVuSans-32"/>
       <use xlink:href="#DejaVuSans-30" x="63.623047"/>
       <use xlink:href="#DejaVuSans-31" x="127.246094"/>
       <use xlink:href="#DejaVuSans-39" x="190.869141"/>
       <use xlink:href="#DejaVuSans-2d" x="254.492188"/>
       <use xlink:href="#DejaVuSans-30" x="290.576172"/>
       <use xlink:href="#DejaVuSans-32" x="354.199219"/>
      </g>
     </g>
    </g>
    <g id="xtick_3">
     <g id="line2d_15">
      <g>
       <use xlink:href="#m03b4f83fcd" x="86.211211" y="368.104" style="stroke: #000000; stroke-width: 0.8"/>
      </g>
     </g>
     <g id="text_15">
      <!-- 2019-03 -->
      <g transform="translate(84.131524 416.886813) rotate(-90) scale(0.1 -0.1)">
       <defs>
        <path id="DejaVuSans-33" d="M 2597 2516 
Q 3050 2419 3304 2112 
Q 3559 1806 3559 1356 
Q 3559 666 3084 287 
Q 2609 -91 1734 -91 
Q 1441 -91 1130 -33 
Q 819 25 488 141 
L 488 750 
Q 750 597 1062 519 
Q 1375 441 1716 441 
Q 2309 441 2620 675 
Q 2931 909 2931 1356 
Q 2931 1769 2642 2001 
Q 2353 2234 1838 2234 
L 1294 2234 
L 1294 2753 
L 1863 2753 
Q 2328 2753 2575 2939 
Q 2822 3125 2822 3475 
Q 2822 3834 2567 4026 
Q 2313 4219 1838 4219 
Q 1578 4219 1281 4162 
Q 984 4106 628 3988 
L 628 4550 
Q 988 4650 1302 4700 
Q 1616 4750 1894 4750 
Q 2613 4750 3031 4423 
Q 3450 4097 3450 3541 
Q 3450 3153 3228 2886 
Q 3006 2619 2597 2516 
z
" transform="scale(0.015625)"/>
       </defs>
       <use xlink:href="#DejaVuSans-32"/>
       <use xlink:href="#DejaVuSans-30" x="63.623047"/>
       <use xlink:href="#DejaVuSans-31" x="127.246094"/>
       <use xlink:href="#DejaVuSans-39" x="190.869141"/>
       <use xlink:href="#DejaVuSans-2d" x="254.492188"/>
       <use xlink:href="#DejaVuSans-30" x="290.576172"/>
       <use xlink:href="#DejaVuSans-33" x="354.199219"/>
      </g>
     </g>
    </g>
    <g id="xtick_4">
     <g id="line2d_16">
      <g>
       <use xlink:href="#m03b4f83fcd" x="109.221521" y="368.104" style="stroke: #000000; stroke-width: 0.8"/>
      </g>
     </g>
     <g id="text_16">
      <!-- 2019-04 -->
      <g transform="translate(107.141833 416.886813) rotate(-90) scale(0.1 -0.1)">
       <use xlink:href="#DejaVuSans-32"/>
       <use xlink:href="#DejaVuSans-30" x="63.623047"/>
       <use xlink:href="#DejaVuSans-31" x="127.246094"/>
       <use xlink:href="#DejaVuSans-39" x="190.869141"/>
       <use xlink:href="#DejaVuSans-2d" x="254.492188"/>
       <use xlink:href="#DejaVuSans-30" x="290.576172"/>
       <use xlink:href="#DejaVuSans-34" x="354.199219"/>
      </g>
     </g>
    </g>
    <g id="xtick_5">
     <g id="line2d_17">
      <g>
       <use xlink:href="#m03b4f83fcd" x="132.23183" y="368.104" style="stroke: #000000; stroke-width: 0.8"/>
      </g>
     </g>
     <g id="text_17">
      <!-- 2019-05 -->
      <g transform="translate(130.152142 416.886813) rotate(-90) scale(0.1 -0.1)">
       <defs>
        <path id="DejaVuSans-35" d="M 691 4666 
L 3169 4666 
L 3169 4134 
L 1269 4134 
L 1269 2991 
Q 1406 3038 1543 3061 
Q 1681 3084 1819 3084 
Q 2600 3084 3056 2656 
Q 3513 2228 3513 1497 
Q 3513 744 3044 326 
Q 2575 -91 1722 -91 
Q 1428 -91 1123 -41 
Q 819 9 494 109 
L 494 744 
Q 775 591 1075 516 
Q 1375 441 1709 441 
Q 2250 441 2565 725 
Q 2881 1009 2881 1497 
Q 2881 1984 2565 2268 
Q 2250 2553 1709 2553 
Q 1456 2553 1204 2497 
Q 953 2441 691 2322 
L 691 4666 
z
" transform="scale(0.015625)"/>
       </defs>
       <use xlink:href="#DejaVuSans-32"/>
       <use xlink:href="#DejaVuSans-30" x="63.623047"/>
       <use xlink:href="#DejaVuSans-31" x="127.246094"/>
       <use xlink:href="#DejaVuSans-39" x="190.869141"/>
       <use xlink:href="#DejaVuSans-2d" x="254.492188"/>
       <use xlink:href="#DejaVuSans-30" x="290.576172"/>
       <use xlink:href="#DejaVuSans-35" x="354.199219"/>
      </g>
     </g>
    </g>
    <g id="xtick_6">
     <g id="line2d_18">
      <g>
       <use xlink:href="#m03b4f83fcd" x="155.242139" y="368.104" style="stroke: #000000; stroke-width: 0.8"/>
      </g>
     </g>
     <g id="text_18">
      <!-- 2019-06 -->
      <g transform="translate(153.162452 416.886813) rotate(-90) scale(0.1 -0.1)">
       <use xlink:href="#DejaVuSans-32"/>
       <use xlink:href="#DejaVuSans-30" x="63.623047"/>
       <use xlink:href="#DejaVuSans-31" x="127.246094"/>
       <use xlink:href="#DejaVuSans-39" x="190.869141"/>
       <use xlink:href="#DejaVuSans-2d" x="254.492188"/>
       <use xlink:href="#DejaVuSans-30" x="290.576172"/>
       <use xlink:href="#DejaVuSans-36" x="354.199219"/>
      </g>
     </g>
    </g>
    <g id="xtick_7">
     <g id="line2d_19">
      <g>
       <use xlink:href="#m03b4f83fcd" x="178.252448" y="368.104" style="stroke: #000000; stroke-width: 0.8"/>
      </g>
     </g>
     <g id="text_19">
      <!-- 2019-07 -->
      <g transform="translate(176.172761 416.886813) rotate(-90) scale(0.1 -0.1)">
       <defs>
        <path id="DejaVuSans-37" d="M 525 4666 
L 3525 4666 
L 3525 4397 
L 1831 0 
L 1172 0 
L 2766 4134 
L 525 4134 
L 525 4666 
z
" transform="scale(0.015625)"/>
       </defs>
       <use xlink:href="#DejaVuSans-32"/>
       <use xlink:href="#DejaVuSans-30" x="63.623047"/>
       <use xlink:href="#DejaVuSans-31" x="127.246094"/>
       <use xlink:href="#DejaVuSans-39" x="190.869141"/>
       <use xlink:href="#DejaVuSans-2d" x="254.492188"/>
       <use xlink:href="#DejaVuSans-30" x="290.576172"/>
       <use xlink:href="#DejaVuSans-37" x="354.199219"/>
      </g>
     </g>
    </g>
    <g id="xtick_8">
     <g id="line2d_20">
      <g>
       <use xlink:href="#m03b4f83fcd" x="201.262758" y="368.104" style="stroke: #000000; stroke-width: 0.8"/>
      </g>
     </g>
     <g id="text_20">
      <!-- 2019-08 -->
      <g transform="translate(199.18307 416.886813) rotate(-90) scale(0.1 -0.1)">
       <use xlink:href="#DejaVuSans-32"/>
       <use xlink:href="#DejaVuSans-30" x="63.623047"/>
       <use xlink:href="#DejaVuSans-31" x="127.246094"/>
       <use xlink:href="#DejaVuSans-39" x="190.869141"/>
       <use xlink:href="#DejaVuSans-2d" x="254.492188"/>
       <use xlink:href="#DejaVuSans-30" x="290.576172"/>
       <use xlink:href="#DejaVuSans-38" x="354.199219"/>
      </g>
     </g>
    </g>
    <g id="xtick_9">
     <g id="line2d_21">
      <g>
       <use xlink:href="#m03b4f83fcd" x="224.273067" y="368.104" style="stroke: #000000; stroke-width: 0.8"/>
      </g>
     </g>
     <g id="text_21">
      <!-- 2019-09 -->
      <g transform="translate(222.19338 416.886813) rotate(-90) scale(0.1 -0.1)">
       <use xlink:href="#DejaVuSans-32"/>
       <use xlink:href="#DejaVuSans-30" x="63.623047"/>
       <use xlink:href="#DejaVuSans-31" x="127.246094"/>
       <use xlink:href="#DejaVuSans-39" x="190.869141"/>
       <use xlink:href="#DejaVuSans-2d" x="254.492188"/>
       <use xlink:href="#DejaVuSans-30" x="290.576172"/>
       <use xlink:href="#DejaVuSans-39" x="354.199219"/>
      </g>
     </g>
    </g>
    <g id="xtick_10">
     <g id="line2d_22">
      <g>
       <use xlink:href="#m03b4f83fcd" x="247.283376" y="368.104" style="stroke: #000000; stroke-width: 0.8"/>
      </g>
     </g>
     <g id="text_22">
      <!-- 2019-10 -->
      <g transform="translate(245.203689 416.886813) rotate(-90) scale(0.1 -0.1)">
       <use xlink:href="#DejaVuSans-32"/>
       <use xlink:href="#DejaVuSans-30" x="63.623047"/>
       <use xlink:href="#DejaVuSans-31" x="127.246094"/>
       <use xlink:href="#DejaVuSans-39" x="190.869141"/>
       <use xlink:href="#DejaVuSans-2d" x="254.492188"/>
       <use xlink:href="#DejaVuSans-31" x="290.576172"/>
       <use xlink:href="#DejaVuSans-30" x="354.199219"/>
      </g>
     </g>
    </g>
    <g id="xtick_11">
     <g id="line2d_23">
      <g>
       <use xlink:href="#m03b4f83fcd" x="270.293686" y="368.104" style="stroke: #000000; stroke-width: 0.8"/>
      </g>
     </g>
     <g id="text_23">
      <!-- 2019-11 -->
      <g transform="translate(268.213998 416.886813) rotate(-90) scale(0.1 -0.1)">
       <use xlink:href="#DejaVuSans-32"/>
       <use xlink:href="#DejaVuSans-30" x="63.623047"/>
       <use xlink:href="#DejaVuSans-31" x="127.246094"/>
       <use xlink:href="#DejaVuSans-39" x="190.869141"/>
       <use xlink:href="#DejaVuSans-2d" x="254.492188"/>
       <use xlink:href="#DejaVuSans-31" x="290.576172"/>
       <use xlink:href="#DejaVuSans-31" x="354.199219"/>
      </g>
     </g>
    </g>
    <g id="xtick_12">
     <g id="line2d_24">
      <g>
       <use xlink:href="#m03b4f83fcd" x="293.303995" y="368.104" style="stroke: #000000; stroke-width: 0.8"/>
      </g>
     </g>
     <g id="text_24">
      <!-- 2019-12 -->
      <g transform="translate(291.224307 416.886813) rotate(-90) scale(0.1 -0.1)">
       <use xlink:href="#DejaVuSans-32"/>
       <use xlink:href="#DejaVuSans-30" x="63.623047"/>
       <use xlink:href="#DejaVuSans-31" x="127.246094"/>
       <use xlink:href="#DejaVuSans-39" x="190.869141"/>
       <use xlink:href="#DejaVuSans-2d" x="254.492188"/>
       <use xlink:href="#DejaVuSans-31" x="290.576172"/>
       <use xlink:href="#DejaVuSans-32" x="354.199219"/>
      </g>
     </g>
    </g>
    <g id="xtick_13">
     <g id="line2d_25">
      <g>
       <use xlink:href="#m03b4f83fcd" x="316.314304" y="368.104" style="stroke: #000000; stroke-width: 0.8"/>
      </g>
     </g>
     <g id="text_25">
      <!-- 2020-01 -->
      <g transform="translate(314.234617 416.886813) rotate(-90) scale(0.1 -0.1)">
       <use xlink:href="#DejaVuSans-32"/>
       <use xlink:href="#DejaVuSans-30" x="63.623047"/>
       <use xlink:href="#DejaVuSans-32" x="127.246094"/>
       <use xlink:href="#DejaVuSans-30" x="190.869141"/>
       <use xlink:href="#DejaVuSans-2d" x="254.492188"/>
       <use xlink:href="#DejaVuSans-30" x="290.576172"/>
       <use xlink:href="#DejaVuSans-31" x="354.199219"/>
      </g>
     </g>
    </g>
    <g id="xtick_14">
     <g id="line2d_26">
      <g>
       <use xlink:href="#m03b4f83fcd" x="339.324613" y="368.104" style="stroke: #000000; stroke-width: 0.8"/>
      </g>
     </g>
     <g id="text_26">
      <!-- 2020-02 -->
      <g transform="translate(337.244926 416.886813) rotate(-90) scale(0.1 -0.1)">
       <use xlink:href="#DejaVuSans-32"/>
       <use xlink:href="#DejaVuSans-30" x="63.623047"/>
       <use xlink:href="#DejaVuSans-32" x="127.246094"/>
       <use xlink:href="#DejaVuSans-30" x="190.869141"/>
       <use xlink:href="#DejaVuSans-2d" x="254.492188"/>
       <use xlink:href="#DejaVuSans-30" x="290.576172"/>
       <use xlink:href="#DejaVuSans-32" x="354.199219"/>
      </g>
     </g>
    </g>
    <g id="xtick_15">
     <g id="line2d_27">
      <g>
       <use xlink:href="#m03b4f83fcd" x="362.334923" y="368.104" style="stroke: #000000; stroke-width: 0.8"/>
      </g>
     </g>
     <g id="text_27">
      <!-- 2020-03 -->
      <g transform="translate(360.255235 416.886813) rotate(-90) scale(0.1 -0.1)">
       <use xlink:href="#DejaVuSans-32"/>
       <use xlink:href="#DejaVuSans-30" x="63.623047"/>
       <use xlink:href="#DejaVuSans-32" x="127.246094"/>
       <use xlink:href="#DejaVuSans-30" x="190.869141"/>
       <use xlink:href="#DejaVuSans-2d" x="254.492188"/>
       <use xlink:href="#DejaVuSans-30" x="290.576172"/>
       <use xlink:href="#DejaVuSans-33" x="354.199219"/>
      </g>
     </g>
    </g>
    <g id="xtick_16">
     <g id="line2d_28">
      <g>
       <use xlink:href="#m03b4f83fcd" x="385.345232" y="368.104" style="stroke: #000000; stroke-width: 0.8"/>
      </g>
     </g>
     <g id="text_28">
      <!-- 2020-04 -->
      <g transform="translate(383.265544 416.886813) rotate(-90) scale(0.1 -0.1)">
       <use xlink:href="#DejaVuSans-32"/>
       <use xlink:href="#DejaVuSans-30" x="63.623047"/>
       <use xlink:href="#DejaVuSans-32" x="127.246094"/>
       <use xlink:href="#DejaVuSans-30" x="190.869141"/>
       <use xlink:href="#DejaVuSans-2d" x="254.492188"/>
       <use xlink:href="#DejaVuSans-30" x="290.576172"/>
       <use xlink:href="#DejaVuSans-34" x="354.199219"/>
      </g>
     </g>
    </g>
    <g id="xtick_17">
     <g id="line2d_29">
      <g>
       <use xlink:href="#m03b4f83fcd" x="408.355541" y="368.104" style="stroke: #000000; stroke-width: 0.8"/>
      </g>
     </g>
     <g id="text_29">
      <!-- 2020-05 -->
      <g transform="translate(406.275854 416.886813) rotate(-90) scale(0.1 -0.1)">
       <use xlink:href="#DejaVuSans-32"/>
       <use xlink:href="#DejaVuSans-30" x="63.623047"/>
       <use xlink:href="#DejaVuSans-32" x="127.246094"/>
       <use xlink:href="#DejaVuSans-30" x="190.869141"/>
       <use xlink:href="#DejaVuSans-2d" x="254.492188"/>
       <use xlink:href="#DejaVuSans-30" x="290.576172"/>
       <use xlink:href="#DejaVuSans-35" x="354.199219"/>
      </g>
     </g>
    </g>
    <g id="xtick_18">
     <g id="line2d_30">
      <g>
       <use xlink:href="#m03b4f83fcd" x="431.365851" y="368.104" style="stroke: #000000; stroke-width: 0.8"/>
      </g>
     </g>
     <g id="text_30">
      <!-- 2020-06 -->
      <g transform="translate(429.286163 416.886813) rotate(-90) scale(0.1 -0.1)">
       <use xlink:href="#DejaVuSans-32"/>
       <use xlink:href="#DejaVuSans-30" x="63.623047"/>
       <use xlink:href="#DejaVuSans-32" x="127.246094"/>
       <use xlink:href="#DejaVuSans-30" x="190.869141"/>
       <use xlink:href="#DejaVuSans-2d" x="254.492188"/>
       <use xlink:href="#DejaVuSans-30" x="290.576172"/>
       <use xlink:href="#DejaVuSans-36" x="354.199219"/>
      </g>
     </g>
    </g>
    <g id="xtick_19">
     <g id="line2d_31">
      <g>
       <use xlink:href="#m03b4f83fcd" x="454.37616" y="368.104" style="stroke: #000000; stroke-width: 0.8"/>
      </g>
     </g>
     <g id="text_31">
      <!-- 2020-07 -->
      <g transform="translate(452.296472 416.886813) rotate(-90) scale(0.1 -0.1)">
       <use xlink:href="#DejaVuSans-32"/>
       <use xlink:href="#DejaVuSans-30" x="63.623047"/>
       <use xlink:href="#DejaVuSans-32" x="127.246094"/>
       <use xlink:href="#DejaVuSans-30" x="190.869141"/>
       <use xlink:href="#DejaVuSans-2d" x="254.492188"/>
       <use xlink:href="#DejaVuSans-30" x="290.576172"/>
       <use xlink:href="#DejaVuSans-37" x="354.199219"/>
      </g>
     </g>
    </g>
    <g id="xtick_20">
     <g id="line2d_32">
      <g>
       <use xlink:href="#m03b4f83fcd" x="477.386469" y="368.104" style="stroke: #000000; stroke-width: 0.8"/>
      </g>
     </g>
     <g id="text_32">
      <!-- 2020-08 -->
      <g transform="translate(475.306782 416.886813) rotate(-90) scale(0.1 -0.1)">
       <use xlink:href="#DejaVuSans-32"/>
       <use xlink:href="#DejaVuSans-30" x="63.623047"/>
       <use xlink:href="#DejaVuSans-32" x="127.246094"/>
       <use xlink:href="#DejaVuSans-30" x="190.869141"/>
       <use xlink:href="#DejaVuSans-2d" x="254.492188"/>
       <use xlink:href="#DejaVuSans-30" x="290.576172"/>
       <use xlink:href="#DejaVuSans-38" x="354.199219"/>
      </g>
     </g>
    </g>
    <g id="xtick_21">
     <g id="line2d_33">
      <g>
       <use xlink:href="#m03b4f83fcd" x="500.396778" y="368.104" style="stroke: #000000; stroke-width: 0.8"/>
      </g>
     </g>
     <g id="text_33">
      <!-- 2020-09 -->
      <g transform="translate(498.317091 416.886813) rotate(-90) scale(0.1 -0.1)">
       <use xlink:href="#DejaVuSans-32"/>
       <use xlink:href="#DejaVuSans-30" x="63.623047"/>
       <use xlink:href="#DejaVuSans-32" x="127.246094"/>
       <use xlink:href="#DejaVuSans-30" x="190.869141"/>
       <use xlink:href="#DejaVuSans-2d" x="254.492188"/>
       <use xlink:href="#DejaVuSans-30" x="290.576172"/>
       <use xlink:href="#DejaVuSans-39" x="354.199219"/>
      </g>
     </g>
    </g>
    <g id="xtick_22">
     <g id="line2d_34">
      <g>
       <use xlink:href="#m03b4f83fcd" x="523.407088" y="368.104" style="stroke: #000000; stroke-width: 0.8"/>
      </g>
     </g>
     <g id="text_34">
      <!-- 2020-10 -->
      <g transform="translate(521.3274 416.886813) rotate(-90) scale(0.1 -0.1)">
       <use xlink:href="#DejaVuSans-32"/>
       <use xlink:href="#DejaVuSans-30" x="63.623047"/>
       <use xlink:href="#DejaVuSans-32" x="127.246094"/>
       <use xlink:href="#DejaVuSans-30" x="190.869141"/>
       <use xlink:href="#DejaVuSans-2d" x="254.492188"/>
       <use xlink:href="#DejaVuSans-31" x="290.576172"/>
       <use xlink:href="#DejaVuSans-30" x="354.199219"/>
      </g>
     </g>
    </g>
    <g id="xtick_23">
     <g id="line2d_35">
      <g>
       <use xlink:href="#m03b4f83fcd" x="546.417397" y="368.104" style="stroke: #000000; stroke-width: 0.8"/>
      </g>
     </g>
     <g id="text_35">
      <!-- 2020-11 -->
      <g transform="translate(544.337709 416.886813) rotate(-90) scale(0.1 -0.1)">
       <use xlink:href="#DejaVuSans-32"/>
       <use xlink:href="#DejaVuSans-30" x="63.623047"/>
       <use xlink:href="#DejaVuSans-32" x="127.246094"/>
       <use xlink:href="#DejaVuSans-30" x="190.869141"/>
       <use xlink:href="#DejaVuSans-2d" x="254.492188"/>
       <use xlink:href="#DejaVuSans-31" x="290.576172"/>
       <use xlink:href="#DejaVuSans-31" x="354.199219"/>
      </g>
     </g>
    </g>
    <g id="xtick_24">
     <g id="line2d_36">
      <g>
       <use xlink:href="#m03b4f83fcd" x="569.427706" y="368.104" style="stroke: #000000; stroke-width: 0.8"/>
      </g>
     </g>
     <g id="text_36">
      <!-- 2020-12 -->
      <g transform="translate(567.348019 416.886813) rotate(-90) scale(0.1 -0.1)">
       <use xlink:href="#DejaVuSans-32"/>
       <use xlink:href="#DejaVuSans-30" x="63.623047"/>
       <use xlink:href="#DejaVuSans-32" x="127.246094"/>
       <use xlink:href="#DejaVuSans-30" x="190.869141"/>
       <use xlink:href="#DejaVuSans-2d" x="254.492188"/>
       <use xlink:href="#DejaVuSans-31" x="290.576172"/>
       <use xlink:href="#DejaVuSans-32" x="354.199219"/>
      </g>
     </g>
    </g>
    <g id="xtick_25">
     <g id="line2d_37">
      <g>
       <use xlink:href="#m03b4f83fcd" x="592.438015" y="368.104" style="stroke: #000000; stroke-width: 0.8"/>
      </g>
     </g>
     <g id="text_37">
      <!-- 2021-01 -->
      <g transform="translate(590.358328 416.886813) rotate(-90) scale(0.1 -0.1)">
       <use xlink:href="#DejaVuSans-32"/>
       <use xlink:href="#DejaVuSans-30" x="63.623047"/>
       <use xlink:href="#DejaVuSans-32" x="127.246094"/>
       <use xlink:href="#DejaVuSans-31" x="190.869141"/>
       <use xlink:href="#DejaVuSans-2d" x="254.492188"/>
       <use xlink:href="#DejaVuSans-30" x="290.576172"/>
       <use xlink:href="#DejaVuSans-31" x="354.199219"/>
      </g>
     </g>
    </g>
    <g id="xtick_26">
     <g id="line2d_38">
      <g>
       <use xlink:href="#m03b4f83fcd" x="615.448325" y="368.104" style="stroke: #000000; stroke-width: 0.8"/>
      </g>
     </g>
     <g id="text_38">
      <!-- 2021-02 -->
      <g transform="translate(613.368637 416.886813) rotate(-90) scale(0.1 -0.1)">
       <use xlink:href="#DejaVuSans-32"/>
       <use xlink:href="#DejaVuSans-30" x="63.623047"/>
       <use xlink:href="#DejaVuSans-32" x="127.246094"/>
       <use xlink:href="#DejaVuSans-31" x="190.869141"/>
       <use xlink:href="#DejaVuSans-2d" x="254.492188"/>
       <use xlink:href="#DejaVuSans-30" x="290.576172"/>
       <use xlink:href="#DejaVuSans-32" x="354.199219"/>
      </g>
     </g>
    </g>
    <g id="xtick_27">
     <g id="line2d_39">
      <g>
       <use xlink:href="#m03b4f83fcd" x="638.458634" y="368.104" style="stroke: #000000; stroke-width: 0.8"/>
      </g>
     </g>
     <g id="text_39">
      <!-- 2021-03 -->
      <g transform="translate(636.378947 416.886813) rotate(-90) scale(0.1 -0.1)">
       <use xlink:href="#DejaVuSans-32"/>
       <use xlink:href="#DejaVuSans-30" x="63.623047"/>
       <use xlink:href="#DejaVuSans-32" x="127.246094"/>
       <use xlink:href="#DejaVuSans-31" x="190.869141"/>
       <use xlink:href="#DejaVuSans-2d" x="254.492188"/>
       <use xlink:href="#DejaVuSans-30" x="290.576172"/>
       <use xlink:href="#DejaVuSans-33" x="354.199219"/>
      </g>
     </g>
    </g>
    <g id="xtick_28">
     <g id="line2d_40">
      <g>
       <use xlink:href="#m03b4f83fcd" x="661.468943" y="368.104" style="stroke: #000000; stroke-width: 0.8"/>
      </g>
     </g>
     <g id="text_40">
      <!-- 2021-04 -->
      <g transform="translate(659.389256 416.886813) rotate(-90) scale(0.1 -0.1)">
       <use xlink:href="#DejaVuSans-32"/>
       <use xlink:href="#DejaVuSans-30" x="63.623047"/>
       <use xlink:href="#DejaVuSans-32" x="127.246094"/>
       <use xlink:href="#DejaVuSans-31" x="190.869141"/>
       <use xlink:href="#DejaVuSans-2d" x="254.492188"/>
       <use xlink:href="#DejaVuSans-30" x="290.576172"/>
       <use xlink:href="#DejaVuSans-34" x="354.199219"/>
      </g>
     </g>
    </g>
    <g id="xtick_29">
     <g id="line2d_41">
      <g>
       <use xlink:href="#m03b4f83fcd" x="684.479253" y="368.104" style="stroke: #000000; stroke-width: 0.8"/>
      </g>
     </g>
     <g id="text_41">
      <!-- 2021-05 -->
      <g transform="translate(682.399565 416.886813) rotate(-90) scale(0.1 -0.1)">
       <use xlink:href="#DejaVuSans-32"/>
       <use xlink:href="#DejaVuSans-30" x="63.623047"/>
       <use xlink:href="#DejaVuSans-32" x="127.246094"/>
       <use xlink:href="#DejaVuSans-31" x="190.869141"/>
       <use xlink:href="#DejaVuSans-2d" x="254.492188"/>
       <use xlink:href="#DejaVuSans-30" x="290.576172"/>
       <use xlink:href="#DejaVuSans-35" x="354.199219"/>
      </g>
     </g>
    </g>
    <g id="xtick_30">
     <g id="line2d_42">
      <g>
       <use xlink:href="#m03b4f83fcd" x="707.489562" y="368.104" style="stroke: #000000; stroke-width: 0.8"/>
      </g>
     </g>
     <g id="text_42">
      <!-- 2021-06 -->
      <g transform="translate(705.409874 416.886813) rotate(-90) scale(0.1 -0.1)">
       <use xlink:href="#DejaVuSans-32"/>
       <use xlink:href="#DejaVuSans-30" x="63.623047"/>
       <use xlink:href="#DejaVuSans-32" x="127.246094"/>
       <use xlink:href="#DejaVuSans-31" x="190.869141"/>
       <use xlink:href="#DejaVuSans-2d" x="254.492188"/>
       <use xlink:href="#DejaVuSans-30" x="290.576172"/>
       <use xlink:href="#DejaVuSans-36" x="354.199219"/>
      </g>
     </g>
    </g>
    <g id="xtick_31">
     <g id="line2d_43">
      <g>
       <use xlink:href="#m03b4f83fcd" x="730.499871" y="368.104" style="stroke: #000000; stroke-width: 0.8"/>
      </g>
     </g>
     <g id="text_43">
      <!-- 2021-07 -->
      <g transform="translate(728.420184 416.886813) rotate(-90) scale(0.1 -0.1)">
       <use xlink:href="#DejaVuSans-32"/>
       <use xlink:href="#DejaVuSans-30" x="63.623047"/>
       <use xlink:href="#DejaVuSans-32" x="127.246094"/>
       <use xlink:href="#DejaVuSans-31" x="190.869141"/>
       <use xlink:href="#DejaVuSans-2d" x="254.492188"/>
       <use xlink:href="#DejaVuSans-30" x="290.576172"/>
       <use xlink:href="#DejaVuSans-37" x="354.199219"/>
      </g>
     </g>
    </g>
    <g id="xtick_32">
     <g id="line2d_44">
      <g>
       <use xlink:href="#m03b4f83fcd" x="753.51018" y="368.104" style="stroke: #000000; stroke-width: 0.8"/>
      </g>
     </g>
     <g id="text_44">
      <!-- 2021-08 -->
      <g transform="translate(751.430493 416.886813) rotate(-90) scale(0.1 -0.1)">
       <use xlink:href="#DejaVuSans-32"/>
       <use xlink:href="#DejaVuSans-30" x="63.623047"/>
       <use xlink:href="#DejaVuSans-32" x="127.246094"/>
       <use xlink:href="#DejaVuSans-31" x="190.869141"/>
       <use xlink:href="#DejaVuSans-2d" x="254.492188"/>
       <use xlink:href="#DejaVuSans-30" x="290.576172"/>
       <use xlink:href="#DejaVuSans-38" x="354.199219"/>
      </g>
     </g>
    </g>
    <g id="xtick_33">
     <g id="line2d_45">
      <g>
       <use xlink:href="#m03b4f83fcd" x="776.52049" y="368.104" style="stroke: #000000; stroke-width: 0.8"/>
      </g>
     </g>
     <g id="text_45">
      <!-- 2021-09 -->
      <g transform="translate(774.440802 416.886813) rotate(-90) scale(0.1 -0.1)">
       <use xlink:href="#DejaVuSans-32"/>
       <use xlink:href="#DejaVuSans-30" x="63.623047"/>
       <use xlink:href="#DejaVuSans-32" x="127.246094"/>
       <use xlink:href="#DejaVuSans-31" x="190.869141"/>
       <use xlink:href="#DejaVuSans-2d" x="254.492188"/>
       <use xlink:href="#DejaVuSans-30" x="290.576172"/>
       <use xlink:href="#DejaVuSans-39" x="354.199219"/>
      </g>
     </g>
    </g>
    <g id="xtick_34">
     <g id="line2d_46">
      <g>
       <use xlink:href="#m03b4f83fcd" x="799.530799" y="368.104" style="stroke: #000000; stroke-width: 0.8"/>
      </g>
     </g>
     <g id="text_46">
      <!-- 2021-10 -->
      <g transform="translate(797.451111 416.886813) rotate(-90) scale(0.1 -0.1)">
       <use xlink:href="#DejaVuSans-32"/>
       <use xlink:href="#DejaVuSans-30" x="63.623047"/>
       <use xlink:href="#DejaVuSans-32" x="127.246094"/>
       <use xlink:href="#DejaVuSans-31" x="190.869141"/>
       <use xlink:href="#DejaVuSans-2d" x="254.492188"/>
       <use xlink:href="#DejaVuSans-31" x="290.576172"/>
       <use xlink:href="#DejaVuSans-30" x="354.199219"/>
      </g>
     </g>
    </g>
    <g id="xtick_35">
     <g id="line2d_47">
      <g>
       <use xlink:href="#m03b4f83fcd" x="822.541108" y="368.104" style="stroke: #000000; stroke-width: 0.8"/>
      </g>
     </g>
     <g id="text_47">
      <!-- 2021-11 -->
      <g transform="translate(820.461421 416.886813) rotate(-90) scale(0.1 -0.1)">
       <use xlink:href="#DejaVuSans-32"/>
       <use xlink:href="#DejaVuSans-30" x="63.623047"/>
       <use xlink:href="#DejaVuSans-32" x="127.246094"/>
       <use xlink:href="#DejaVuSans-31" x="190.869141"/>
       <use xlink:href="#DejaVuSans-2d" x="254.492188"/>
       <use xlink:href="#DejaVuSans-31" x="290.576172"/>
       <use xlink:href="#DejaVuSans-31" x="354.199219"/>
      </g>
     </g>
    </g>
    <g id="xtick_36">
     <g id="line2d_48">
      <g>
       <use xlink:href="#m03b4f83fcd" x="845.551418" y="368.104" style="stroke: #000000; stroke-width: 0.8"/>
      </g>
     </g>
     <g id="text_48">
      <!-- 2021-12 -->
      <g transform="translate(843.47173 416.886813) rotate(-90) scale(0.1 -0.1)">
       <use xlink:href="#DejaVuSans-32"/>
       <use xlink:href="#DejaVuSans-30" x="63.623047"/>
       <use xlink:href="#DejaVuSans-32" x="127.246094"/>
       <use xlink:href="#DejaVuSans-31" x="190.869141"/>
       <use xlink:href="#DejaVuSans-2d" x="254.492188"/>
       <use xlink:href="#DejaVuSans-31" x="290.576172"/>
       <use xlink:href="#DejaVuSans-32" x="354.199219"/>
      </g>
     </g>
    </g>
    <g id="xtick_37">
     <g id="line2d_49">
      <g>
       <use xlink:href="#m03b4f83fcd" x="868.561727" y="368.104" style="stroke: #000000; stroke-width: 0.8"/>
      </g>
     </g>
     <g id="text_49">
      <!-- 2022-01 -->
      <g transform="translate(866.482039 416.886813) rotate(-90) scale(0.1 -0.1)">
       <use xlink:href="#DejaVuSans-32"/>
       <use xlink:href="#DejaVuSans-30" x="63.623047"/>
       <use xlink:href="#DejaVuSans-32" x="127.246094"/>
       <use xlink:href="#DejaVuSans-32" x="190.869141"/>
       <use xlink:href="#DejaVuSans-2d" x="254.492188"/>
       <use xlink:href="#DejaVuSans-30" x="290.576172"/>
       <use xlink:href="#DejaVuSans-31" x="354.199219"/>
      </g>
     </g>
    </g>
    <g id="xtick_38">
     <g id="line2d_50">
      <g>
       <use xlink:href="#m03b4f83fcd" x="891.572036" y="368.104" style="stroke: #000000; stroke-width: 0.8"/>
      </g>
     </g>
     <g id="text_50">
      <!-- 2022-02 -->
      <g transform="translate(889.492349 416.886813) rotate(-90) scale(0.1 -0.1)">
       <use xlink:href="#DejaVuSans-32"/>
       <use xlink:href="#DejaVuSans-30" x="63.623047"/>
       <use xlink:href="#DejaVuSans-32" x="127.246094"/>
       <use xlink:href="#DejaVuSans-32" x="190.869141"/>
       <use xlink:href="#DejaVuSans-2d" x="254.492188"/>
       <use xlink:href="#DejaVuSans-30" x="290.576172"/>
       <use xlink:href="#DejaVuSans-32" x="354.199219"/>
      </g>
     </g>
    </g>
    <g id="xtick_39">
     <g id="line2d_51">
      <g>
       <use xlink:href="#m03b4f83fcd" x="914.582345" y="368.104" style="stroke: #000000; stroke-width: 0.8"/>
      </g>
     </g>
     <g id="text_51">
      <!-- 2022-03 -->
      <g transform="translate(912.502658 416.886813) rotate(-90) scale(0.1 -0.1)">
       <use xlink:href="#DejaVuSans-32"/>
       <use xlink:href="#DejaVuSans-30" x="63.623047"/>
       <use xlink:href="#DejaVuSans-32" x="127.246094"/>
       <use xlink:href="#DejaVuSans-32" x="190.869141"/>
       <use xlink:href="#DejaVuSans-2d" x="254.492188"/>
       <use xlink:href="#DejaVuSans-30" x="290.576172"/>
       <use xlink:href="#DejaVuSans-33" x="354.199219"/>
      </g>
     </g>
    </g>
   </g>
   <g id="matplotlib.axis_3">
    <g id="ytick_11">
     <g id="line2d_52">
      <defs>
       <path id="m21202b72be" d="M 0 0 
L -3.5 0 
" style="stroke: #000000; stroke-width: 0.8"/>
      </defs>
      <g>
       <use xlink:href="#m21202b72be" x="33.2875" y="368.104" style="stroke: #000000; stroke-width: 0.8"/>
      </g>
     </g>
     <g id="text_52">
      <!-- 0 -->
      <g transform="translate(19.925 371.903219) scale(0.1 -0.1)">
       <use xlink:href="#DejaVuSans-30"/>
      </g>
     </g>
    </g>
    <g id="ytick_12">
     <g id="line2d_53">
      <g>
       <use xlink:href="#m21202b72be" x="33.2875" y="312.664" style="stroke: #000000; stroke-width: 0.8"/>
      </g>
     </g>
     <g id="text_53">
      <!-- 50 -->
      <g transform="translate(13.5625 316.463219) scale(0.1 -0.1)">
       <use xlink:href="#DejaVuSans-35"/>
       <use xlink:href="#DejaVuSans-30" x="63.623047"/>
      </g>
     </g>
    </g>
    <g id="ytick_13">
     <g id="line2d_54">
      <g>
       <use xlink:href="#m21202b72be" x="33.2875" y="257.224" style="stroke: #000000; stroke-width: 0.8"/>
      </g>
     </g>
     <g id="text_54">
      <!-- 100 -->
      <g transform="translate(7.2 261.023219) scale(0.1 -0.1)">
       <use xlink:href="#DejaVuSans-31"/>
       <use xlink:href="#DejaVuSans-30" x="63.623047"/>
       <use xlink:href="#DejaVuSans-30" x="127.246094"/>
      </g>
     </g>
    </g>
    <g id="ytick_14">
     <g id="line2d_55">
      <g>
       <use xlink:href="#m21202b72be" x="33.2875" y="201.784" style="stroke: #000000; stroke-width: 0.8"/>
      </g>
     </g>
     <g id="text_55">
      <!-- 150 -->
      <g transform="translate(7.2 205.583219) scale(0.1 -0.1)">
       <use xlink:href="#DejaVuSans-31"/>
       <use xlink:href="#DejaVuSans-35" x="63.623047"/>
       <use xlink:href="#DejaVuSans-30" x="127.246094"/>
      </g>
     </g>
    </g>
    <g id="ytick_15">
     <g id="line2d_56">
      <g>
       <use xlink:href="#m21202b72be" x="33.2875" y="146.344" style="stroke: #000000; stroke-width: 0.8"/>
      </g>
     </g>
     <g id="text_56">
      <!-- 200 -->
      <g transform="translate(7.2 150.143219) scale(0.1 -0.1)">
       <use xlink:href="#DejaVuSans-32"/>
       <use xlink:href="#DejaVuSans-30" x="63.623047"/>
       <use xlink:href="#DejaVuSans-30" x="127.246094"/>
      </g>
     </g>
    </g>
    <g id="ytick_16">
     <g id="line2d_57">
      <g>
       <use xlink:href="#m21202b72be" x="33.2875" y="90.904" style="stroke: #000000; stroke-width: 0.8"/>
      </g>
     </g>
     <g id="text_57">
      <!-- 250 -->
      <g transform="translate(7.2 94.703219) scale(0.1 -0.1)">
       <use xlink:href="#DejaVuSans-32"/>
       <use xlink:href="#DejaVuSans-35" x="63.623047"/>
       <use xlink:href="#DejaVuSans-30" x="127.246094"/>
      </g>
     </g>
    </g>
    <g id="ytick_17">
     <g id="line2d_58">
      <g>
       <use xlink:href="#m21202b72be" x="33.2875" y="35.464" style="stroke: #000000; stroke-width: 0.8"/>
      </g>
     </g>
     <g id="text_58">
      <!-- 300 -->
      <g transform="translate(7.2 39.263219) scale(0.1 -0.1)">
       <use xlink:href="#DejaVuSans-33"/>
       <use xlink:href="#DejaVuSans-30" x="63.623047"/>
       <use xlink:href="#DejaVuSans-30" x="127.246094"/>
      </g>
     </g>
    </g>
   </g>
   <g id="patch_45">
    <path d="M 44.217397 368.104 
L 49.969974 368.104 
L 49.969974 340.384 
L 44.217397 340.384 
z
" clip-path="url(#p2cde14ab3c)" style="fill: #104e8b"/>
   </g>
   <g id="patch_46">
    <path d="M 67.227706 368.104 
L 72.980284 368.104 
L 72.980284 353.6896 
L 67.227706 353.6896 
z
" clip-path="url(#p2cde14ab3c)" style="fill: #104e8b"/>
   </g>
   <g id="patch_47">
    <path d="M 90.238015 368.104 
L 95.990593 368.104 
L 95.990593 333.7312 
L 90.238015 333.7312 
z
" clip-path="url(#p2cde14ab3c)" style="fill: #104e8b"/>
   </g>
   <g id="patch_48">
    <path d="M 113.248325 368.104 
L 119.000902 368.104 
L 119.000902 340.384 
L 113.248325 340.384 
z
" clip-path="url(#p2cde14ab3c)" style="fill: #104e8b"/>
   </g>
   <g id="patch_49">
    <path d="M 136.258634 368.104 
L 142.011211 368.104 
L 142.011211 334.84 
L 136.258634 334.84 
z
" clip-path="url(#p2cde14ab3c)" style="fill: #104e8b"/>
   </g>
   <g id="patch_50">
    <path d="M 159.268943 368.104 
L 165.021521 368.104 
L 165.021521 320.4256 
L 159.268943 320.4256 
z
" clip-path="url(#p2cde14ab3c)" style="fill: #104e8b"/>
   </g>
   <g id="patch_51">
    <path d="M 182.279253 368.104 
L 188.03183 368.104 
L 188.03183 347.0368 
L 182.279253 347.0368 
z
" clip-path="url(#p2cde14ab3c)" style="fill: #104e8b"/>
   </g>
   <g id="patch_52">
    <path d="M 205.289562 368.104 
L 211.042139 368.104 
L 211.042139 342.6016 
L 205.289562 342.6016 
z
" clip-path="url(#p2cde14ab3c)" style="fill: #104e8b"/>
   </g>
   <g id="patch_53">
    <path d="M 228.299871 368.104 
L 234.052448 368.104 
L 234.052448 344.8192 
L 228.299871 344.8192 
z
" clip-path="url(#p2cde14ab3c)" style="fill: #104e8b"/>
   </g>
   <g id="patch_54">
    <path d="M 251.31018 368.104 
L 257.062758 368.104 
L 257.062758 347.0368 
L 251.31018 347.0368 
z
" clip-path="url(#p2cde14ab3c)" style="fill: #104e8b"/>
   </g>
   <g id="patch_55">
    <path d="M 274.32049 368.104 
L 280.073067 368.104 
L 280.073067 342.6016 
L 274.32049 342.6016 
z
" clip-path="url(#p2cde14ab3c)" style="fill: #104e8b"/>
   </g>
   <g id="patch_56">
    <path d="M 297.330799 368.104 
L 303.083376 368.104 
L 303.083376 324.8608 
L 297.330799 324.8608 
z
" clip-path="url(#p2cde14ab3c)" style="fill: #104e8b"/>
   </g>
   <g id="patch_57">
    <path d="M 320.341108 368.104 
L 326.093686 368.104 
L 326.093686 357.016 
L 320.341108 357.016 
z
" clip-path="url(#p2cde14ab3c)" style="fill: #104e8b"/>
   </g>
   <g id="patch_58">
    <path d="M 343.351418 368.104 
L 349.103995 368.104 
L 349.103995 363.6688 
L 343.351418 363.6688 
z
" clip-path="url(#p2cde14ab3c)" style="fill: #104e8b"/>
   </g>
   <g id="patch_59">
    <path d="M 366.361727 368.104 
L 372.114304 368.104 
L 372.114304 353.6896 
L 366.361727 353.6896 
z
" clip-path="url(#p2cde14ab3c)" style="fill: #104e8b"/>
   </g>
   <g id="patch_60">
    <path d="M 389.372036 368.104 
L 395.124613 368.104 
L 395.124613 348.1456 
L 389.372036 348.1456 
z
" clip-path="url(#p2cde14ab3c)" style="fill: #104e8b"/>
   </g>
   <g id="patch_61">
    <path d="M 412.382345 368.104 
L 418.134923 368.104 
L 418.134923 343.7104 
L 412.382345 343.7104 
z
" clip-path="url(#p2cde14ab3c)" style="fill: #104e8b"/>
   </g>
   <g id="patch_62">
    <path d="M 435.392655 368.104 
L 441.145232 368.104 
L 441.145232 335.9488 
L 435.392655 335.9488 
z
" clip-path="url(#p2cde14ab3c)" style="fill: #104e8b"/>
   </g>
   <g id="patch_63">
    <path d="M 458.402964 368.104 
L 464.155541 368.104 
L 464.155541 338.1664 
L 458.402964 338.1664 
z
" clip-path="url(#p2cde14ab3c)" style="fill: #104e8b"/>
   </g>
   <g id="patch_64">
    <path d="M 481.413273 368.104 
L 487.165851 368.104 
L 487.165851 334.84 
L 481.413273 334.84 
z
" clip-path="url(#p2cde14ab3c)" style="fill: #104e8b"/>
   </g>
   <g id="patch_65">
    <path d="M 504.423582 368.104 
L 510.17616 368.104 
L 510.17616 328.1872 
L 504.423582 328.1872 
z
" clip-path="url(#p2cde14ab3c)" style="fill: #104e8b"/>
   </g>
   <g id="patch_66">
    <path d="M 527.433892 368.104 
L 533.186469 368.104 
L 533.186469 318.208 
L 527.433892 318.208 
z
" clip-path="url(#p2cde14ab3c)" style="fill: #104e8b"/>
   </g>
   <g id="patch_67">
    <path d="M 550.444201 368.104 
L 556.196778 368.104 
L 556.196778 302.6848 
L 550.444201 302.6848 
z
" clip-path="url(#p2cde14ab3c)" style="fill: #104e8b"/>
   </g>
   <g id="patch_68">
    <path d="M 573.45451 368.104 
L 579.207088 368.104 
L 579.207088 291.5968 
L 573.45451 291.5968 
z
" clip-path="url(#p2cde14ab3c)" style="fill: #104e8b"/>
   </g>
   <g id="patch_69">
    <path d="M 596.46482 368.104 
L 602.217397 368.104 
L 602.217397 311.5552 
L 596.46482 311.5552 
z
" clip-path="url(#p2cde14ab3c)" style="fill: #104e8b"/>
   </g>
   <g id="patch_70">
    <path d="M 619.475129 368.104 
L 625.227706 368.104 
L 625.227706 333.7312 
L 619.475129 333.7312 
z
" clip-path="url(#p2cde14ab3c)" style="fill: #104e8b"/>
   </g>
   <g id="patch_71">
    <path d="M 642.485438 368.104 
L 648.238015 368.104 
L 648.238015 298.2496 
L 642.485438 298.2496 
z
" clip-path="url(#p2cde14ab3c)" style="fill: #104e8b"/>
   </g>
   <g id="patch_72">
    <path d="M 665.495747 368.104 
L 671.248325 368.104 
L 671.248325 310.4464 
L 665.495747 310.4464 
z
" clip-path="url(#p2cde14ab3c)" style="fill: #104e8b"/>
   </g>
   <g id="patch_73">
    <path d="M 688.506057 368.104 
L 694.258634 368.104 
L 694.258634 303.7936 
L 688.506057 303.7936 
z
" clip-path="url(#p2cde14ab3c)" style="fill: #104e8b"/>
   </g>
   <g id="patch_74">
    <path d="M 711.516366 368.104 
L 717.268943 368.104 
L 717.268943 290.488 
L 711.516366 290.488 
z
" clip-path="url(#p2cde14ab3c)" style="fill: #104e8b"/>
   </g>
   <g id="patch_75">
    <path d="M 734.526675 368.104 
L 740.279253 368.104 
L 740.279253 292.7056 
L 734.526675 292.7056 
z
" clip-path="url(#p2cde14ab3c)" style="fill: #104e8b"/>
   </g>
   <g id="patch_76">
    <path d="M 757.536985 368.104 
L 763.289562 368.104 
L 763.289562 279.4 
L 757.536985 279.4 
z
" clip-path="url(#p2cde14ab3c)" style="fill: #104e8b"/>
   </g>
   <g id="patch_77">
    <path d="M 780.547294 368.104 
L 786.299871 368.104 
L 786.299871 257.224 
L 780.547294 257.224 
z
" clip-path="url(#p2cde14ab3c)" style="fill: #104e8b"/>
   </g>
   <g id="patch_78">
    <path d="M 803.557603 368.104 
L 809.31018 368.104 
L 809.31018 263.8768 
L 803.557603 263.8768 
z
" clip-path="url(#p2cde14ab3c)" style="fill: #104e8b"/>
   </g>
   <g id="patch_79">
    <path d="M 826.567912 368.104 
L 832.32049 368.104 
L 832.32049 236.1568 
L 826.567912 236.1568 
z
" clip-path="url(#p2cde14ab3c)" style="fill: #104e8b"/>
   </g>
   <g id="patch_80">
    <path d="M 849.578222 368.104 
L 855.330799 368.104 
L 855.330799 201.784 
L 849.578222 201.784 
z
" clip-path="url(#p2cde14ab3c)" style="fill: #104e8b"/>
   </g>
   <g id="patch_81">
    <path d="M 872.588531 368.104 
L 878.341108 368.104 
L 878.341108 248.3536 
L 872.588531 248.3536 
z
" clip-path="url(#p2cde14ab3c)" style="fill: #104e8b"/>
   </g>
   <g id="patch_82">
    <path d="M 895.59884 368.104 
L 901.351418 368.104 
L 901.351418 263.8768 
L 895.59884 263.8768 
z
" clip-path="url(#p2cde14ab3c)" style="fill: #104e8b"/>
   </g>
   <g id="patch_83">
    <path d="M 918.609149 368.104 
L 924.361727 368.104 
L 924.361727 226.1776 
L 918.609149 226.1776 
z
" clip-path="url(#p2cde14ab3c)" style="fill: #104e8b"/>
   </g>
   <g id="patch_84">
    <path d="M 33.2875 368.104 
L 926.0875 368.104 
" style="fill: none; stroke: #000000; stroke-width: 0.8; stroke-linejoin: miter; stroke-linecap: square"/>
   </g>
   <g id="patch_85">
    <path d="M 44.217397 340.384 
L 49.969974 340.384 
L 49.969974 333.7312 
L 44.217397 333.7312 
z
" clip-path="url(#p2cde14ab3c)" style="fill: #ffc0cb"/>
   </g>
   <g id="patch_86">
    <path d="M 67.227706 353.6896 
L 72.980284 353.6896 
L 72.980284 350.3632 
L 67.227706 350.3632 
z
" clip-path="url(#p2cde14ab3c)" style="fill: #ffc0cb"/>
   </g>
   <g id="patch_87">
    <path d="M 90.238015 333.7312 
L 95.990593 333.7312 
L 95.990593 324.8608 
L 90.238015 324.8608 
z
" clip-path="url(#p2cde14ab3c)" style="fill: #ffc0cb"/>
   </g>
   <g id="patch_88">
    <path d="M 113.248325 340.384 
L 119.000902 340.384 
L 119.000902 333.7312 
L 113.248325 333.7312 
z
" clip-path="url(#p2cde14ab3c)" style="fill: #ffc0cb"/>
   </g>
   <g id="patch_89">
    <path d="M 136.258634 334.84 
L 142.011211 334.84 
L 142.011211 331.5136 
L 136.258634 331.5136 
z
" clip-path="url(#p2cde14ab3c)" style="fill: #ffc0cb"/>
   </g>
   <g id="patch_90">
    <path d="M 159.268943 320.4256 
L 165.021521 320.4256 
L 165.021521 313.7728 
L 159.268943 313.7728 
z
" clip-path="url(#p2cde14ab3c)" style="fill: #ffc0cb"/>
   </g>
   <g id="patch_91">
    <path d="M 182.279253 347.0368 
L 188.03183 347.0368 
L 188.03183 342.6016 
L 182.279253 342.6016 
z
" clip-path="url(#p2cde14ab3c)" style="fill: #ffc0cb"/>
   </g>
   <g id="patch_92">
    <path d="M 205.289562 342.6016 
L 211.042139 342.6016 
L 211.042139 335.9488 
L 205.289562 335.9488 
z
" clip-path="url(#p2cde14ab3c)" style="fill: #ffc0cb"/>
   </g>
   <g id="patch_93">
    <path d="M 228.299871 344.8192 
L 234.052448 344.8192 
L 234.052448 338.1664 
L 228.299871 338.1664 
z
" clip-path="url(#p2cde14ab3c)" style="fill: #ffc0cb"/>
   </g>
   <g id="patch_94">
    <path d="M 251.31018 347.0368 
L 257.062758 347.0368 
L 257.062758 342.6016 
L 251.31018 342.6016 
z
" clip-path="url(#p2cde14ab3c)" style="fill: #ffc0cb"/>
   </g>
   <g id="patch_95">
    <path d="M 274.32049 342.6016 
L 280.073067 342.6016 
L 280.073067 337.0576 
L 274.32049 337.0576 
z
" clip-path="url(#p2cde14ab3c)" style="fill: #ffc0cb"/>
   </g>
   <g id="patch_96">
    <path d="M 297.330799 324.8608 
L 303.083376 324.8608 
L 303.083376 317.0992 
L 297.330799 317.0992 
z
" clip-path="url(#p2cde14ab3c)" style="fill: #ffc0cb"/>
   </g>
   <g id="patch_97">
    <path d="M 320.341108 357.016 
L 326.093686 357.016 
L 326.093686 354.7984 
L 320.341108 354.7984 
z
" clip-path="url(#p2cde14ab3c)" style="fill: #ffc0cb"/>
   </g>
   <g id="patch_98">
    <path d="M 343.351418 363.6688 
L 349.103995 363.6688 
L 349.103995 363.6688 
L 343.351418 363.6688 
z
" clip-path="url(#p2cde14ab3c)" style="fill: #ffc0cb"/>
   </g>
   <g id="patch_99">
    <path d="M 366.361727 353.6896 
L 372.114304 353.6896 
L 372.114304 350.3632 
L 366.361727 350.3632 
z
" clip-path="url(#p2cde14ab3c)" style="fill: #ffc0cb"/>
   </g>
   <g id="patch_100">
    <path d="M 389.372036 348.1456 
L 395.124613 348.1456 
L 395.124613 342.6016 
L 389.372036 342.6016 
z
" clip-path="url(#p2cde14ab3c)" style="fill: #ffc0cb"/>
   </g>
   <g id="patch_101">
    <path d="M 412.382345 343.7104 
L 418.134923 343.7104 
L 418.134923 337.0576 
L 412.382345 337.0576 
z
" clip-path="url(#p2cde14ab3c)" style="fill: #ffc0cb"/>
   </g>
   <g id="patch_102">
    <path d="M 435.392655 335.9488 
L 441.145232 335.9488 
L 441.145232 330.4048 
L 435.392655 330.4048 
z
" clip-path="url(#p2cde14ab3c)" style="fill: #ffc0cb"/>
   </g>
   <g id="patch_103">
    <path d="M 458.402964 338.1664 
L 464.155541 338.1664 
L 464.155541 332.6224 
L 458.402964 332.6224 
z
" clip-path="url(#p2cde14ab3c)" style="fill: #ffc0cb"/>
   </g>
   <g id="patch_104">
    <path d="M 481.413273 334.84 
L 487.165851 334.84 
L 487.165851 325.9696 
L 481.413273 325.9696 
z
" clip-path="url(#p2cde14ab3c)" style="fill: #ffc0cb"/>
   </g>
   <g id="patch_105">
    <path d="M 504.423582 328.1872 
L 510.17616 328.1872 
L 510.17616 314.8816 
L 504.423582 314.8816 
z
" clip-path="url(#p2cde14ab3c)" style="fill: #ffc0cb"/>
   </g>
   <g id="patch_106">
    <path d="M 527.433892 318.208 
L 533.186469 318.208 
L 533.186469 311.5552 
L 527.433892 311.5552 
z
" clip-path="url(#p2cde14ab3c)" style="fill: #ffc0cb"/>
   </g>
   <g id="patch_107">
    <path d="M 550.444201 302.6848 
L 556.196778 302.6848 
L 556.196778 290.488 
L 550.444201 290.488 
z
" clip-path="url(#p2cde14ab3c)" style="fill: #ffc0cb"/>
   </g>
   <g id="patch_108">
    <path d="M 573.45451 291.5968 
L 579.207088 291.5968 
L 579.207088 278.2912 
L 573.45451 278.2912 
z
" clip-path="url(#p2cde14ab3c)" style="fill: #ffc0cb"/>
   </g>
   <g id="patch_109">
    <path d="M 596.46482 311.5552 
L 602.217397 311.5552 
L 602.217397 299.3584 
L 596.46482 299.3584 
z
" clip-path="url(#p2cde14ab3c)" style="fill: #ffc0cb"/>
   </g>
   <g id="patch_110">
    <path d="M 619.475129 333.7312 
L 625.227706 333.7312 
L 625.227706 323.752 
L 619.475129 323.752 
z
" clip-path="url(#p2cde14ab3c)" style="fill: #ffc0cb"/>
   </g>
   <g id="patch_111">
    <path d="M 642.485438 298.2496 
L 648.238015 298.2496 
L 648.238015 280.5088 
L 642.485438 280.5088 
z
" clip-path="url(#p2cde14ab3c)" style="fill: #ffc0cb"/>
   </g>
   <g id="patch_112">
    <path d="M 665.495747 310.4464 
L 671.248325 310.4464 
L 671.248325 294.9232 
L 665.495747 294.9232 
z
" clip-path="url(#p2cde14ab3c)" style="fill: #ffc0cb"/>
   </g>
   <g id="patch_113">
    <path d="M 688.506057 303.7936 
L 694.258634 303.7936 
L 694.258634 289.3792 
L 688.506057 289.3792 
z
" clip-path="url(#p2cde14ab3c)" style="fill: #ffc0cb"/>
   </g>
   <g id="patch_114">
    <path d="M 711.516366 290.488 
L 717.268943 290.488 
L 717.268943 270.5296 
L 711.516366 270.5296 
z
" clip-path="url(#p2cde14ab3c)" style="fill: #ffc0cb"/>
   </g>
   <g id="patch_115">
    <path d="M 734.526675 292.7056 
L 740.279253 292.7056 
L 740.279253 273.856 
L 734.526675 273.856 
z
" clip-path="url(#p2cde14ab3c)" style="fill: #ffc0cb"/>
   </g>
   <g id="patch_116">
    <path d="M 757.536985 279.4 
L 763.289562 279.4 
L 763.289562 257.224 
L 757.536985 257.224 
z
" clip-path="url(#p2cde14ab3c)" style="fill: #ffc0cb"/>
   </g>
   <g id="patch_117">
    <path d="M 780.547294 257.224 
L 786.299871 257.224 
L 786.299871 229.504 
L 780.547294 229.504 
z
" clip-path="url(#p2cde14ab3c)" style="fill: #ffc0cb"/>
   </g>
   <g id="patch_118">
    <path d="M 803.557603 263.8768 
L 809.31018 263.8768 
L 809.31018 235.048 
L 803.557603 235.048 
z
" clip-path="url(#p2cde14ab3c)" style="fill: #ffc0cb"/>
   </g>
   <g id="patch_119">
    <path d="M 826.567912 236.1568 
L 832.32049 236.1568 
L 832.32049 201.784 
L 826.567912 201.784 
z
" clip-path="url(#p2cde14ab3c)" style="fill: #ffc0cb"/>
   </g>
   <g id="patch_120">
    <path d="M 849.578222 201.784 
L 855.330799 201.784 
L 855.330799 164.0848 
L 849.578222 164.0848 
z
" clip-path="url(#p2cde14ab3c)" style="fill: #ffc0cb"/>
   </g>
   <g id="patch_121">
    <path d="M 872.588531 248.3536 
L 878.341108 248.3536 
L 878.341108 212.872 
L 872.588531 212.872 
z
" clip-path="url(#p2cde14ab3c)" style="fill: #ffc0cb"/>
   </g>
   <g id="patch_122">
    <path d="M 895.59884 263.8768 
L 901.351418 263.8768 
L 901.351418 232.8304 
L 895.59884 232.8304 
z
" clip-path="url(#p2cde14ab3c)" style="fill: #ffc0cb"/>
   </g>
   <g id="patch_123">
    <path d="M 918.609149 226.1776 
L 924.361727 226.1776 
L 924.361727 181.8256 
L 918.609149 181.8256 
z
" clip-path="url(#p2cde14ab3c)" style="fill: #ffc0cb"/>
   </g>
   <g id="line2d_59">
    <path d="M 63.200902 129.712 
L 86.211211 124.168 
L 109.221521 126.3856 
L 132.23183 129.712 
L 155.242139 135.256 
L 178.252448 155.2144 
L 201.262758 146.344 
L 224.273067 137.4736 
L 247.283376 120.8416 
L 270.293686 129.712 
L 293.303995 140.8 
L 316.314304 135.256 
L 339.324613 136.3648 
L 362.334923 154.1056 
L 385.345232 179.608 
L 408.355541 196.24 
L 431.365851 201.784 
L 454.37616 190.696 
L 477.386469 181.8256 
L 500.396778 177.3904 
L 523.407088 181.8256 
L 546.417397 188.4784 
L 569.427706 190.696 
L 592.438015 170.7376 
L 615.448325 159.6496 
L 638.458634 144.1264 
L 661.468943 123.0592 
L 684.479253 113.08 
L 707.489562 101.992 
L 730.499871 89.7952 
L 753.51018 88.6864 
L 776.52049 101.992 
L 799.530799 100.8832 
L 822.541108 63.184 
L 845.551418 74.272 
L 868.561727 90.904 
L 891.572036 82.0336 
L 914.582345 37.6816 
" clip-path="url(#p2cde14ab3c)" style="fill: none; stroke: #cd2626; stroke-width: 3; stroke-linecap: square"/>
   </g>
   <g id="line2d_60">
    <path d="M 63.200902 138.5824 
L 86.211211 133.0384 
L 109.221521 135.256 
L 132.23183 138.5824 
L 155.242139 144.1264 
L 178.252448 164.0848 
L 201.262758 155.2144 
L 224.273067 146.344 
L 247.283376 129.712 
L 270.293686 138.5824 
L 293.303995 148.5616 
L 316.314304 143.0176 
L 339.324613 144.1264 
L 362.334923 162.976 
L 385.345232 188.4784 
L 408.355541 204.0016 
L 431.365851 210.6544 
L 454.37616 198.4576 
L 477.386469 188.4784 
L 500.396778 184.0432 
L 523.407088 188.4784 
L 546.417397 195.1312 
L 569.427706 197.3488 
L 592.438015 177.3904 
L 615.448325 166.3024 
L 638.458634 152.9968 
L 661.468943 129.712 
L 684.479253 120.8416 
L 707.489562 109.7536 
L 730.499871 97.5568 
L 753.51018 96.448 
L 776.52049 109.7536 
L 799.530799 108.6448 
L 822.541108 70.9456 
L 845.551418 82.0336 
L 868.561727 98.6656 
L 891.572036 88.6864 
L 914.582345 44.3344 
" clip-path="url(#p2cde14ab3c)" style="fill: none; stroke: #104e8b; stroke-width: 3; stroke-linecap: square"/>
   </g>
   <g id="legend_2">
    <g id="patch_124">
     <path d="M 242.481719 20.15 
L 252.481719 20.15 
L 252.481719 11.2 
L 242.481719 11.2 
z
" style="fill: #cd2626"/>
    </g>
    <g id="text_59">
     <!-- Chinese Fuel Car Sales (10000) -->
     <g transform="translate(260.481719 19.1) scale(0.1 -0.1)">
      <defs>
       <path id="DejaVuSans-43" d="M 4122 4306 
L 4122 3641 
Q 3803 3938 3442 4084 
Q 3081 4231 2675 4231 
Q 1875 4231 1450 3742 
Q 1025 3253 1025 2328 
Q 1025 1406 1450 917 
Q 1875 428 2675 428 
Q 3081 428 3442 575 
Q 3803 722 4122 1019 
L 4122 359 
Q 3791 134 3420 21 
Q 3050 -91 2638 -91 
Q 1578 -91 968 557 
Q 359 1206 359 2328 
Q 359 3453 968 4101 
Q 1578 4750 2638 4750 
Q 3056 4750 3426 4639 
Q 3797 4528 4122 4306 
z
" transform="scale(0.015625)"/>
       <path id="DejaVuSans-68" d="M 3513 2113 
L 3513 0 
L 2938 0 
L 2938 2094 
Q 2938 2591 2744 2837 
Q 2550 3084 2163 3084 
Q 1697 3084 1428 2787 
Q 1159 2491 1159 1978 
L 1159 0 
L 581 0 
L 581 4863 
L 1159 4863 
L 1159 2956 
Q 1366 3272 1645 3428 
Q 1925 3584 2291 3584 
Q 2894 3584 3203 3211 
Q 3513 2838 3513 2113 
z
" transform="scale(0.015625)"/>
       <path id="DejaVuSans-65" d="M 3597 1894 
L 3597 1613 
L 953 1613 
Q 991 1019 1311 708 
Q 1631 397 2203 397 
Q 2534 397 2845 478 
Q 3156 559 3463 722 
L 3463 178 
Q 3153 47 2828 -22 
Q 2503 -91 2169 -91 
Q 1331 -91 842 396 
Q 353 884 353 1716 
Q 353 2575 817 3079 
Q 1281 3584 2069 3584 
Q 2775 3584 3186 3129 
Q 3597 2675 3597 1894 
z
M 3022 2063 
Q 3016 2534 2758 2815 
Q 2500 3097 2075 3097 
Q 1594 3097 1305 2825 
Q 1016 2553 972 2059 
L 3022 2063 
z
" transform="scale(0.015625)"/>
       <path id="DejaVuSans-73" d="M 2834 3397 
L 2834 2853 
Q 2591 2978 2328 3040 
Q 2066 3103 1784 3103 
Q 1356 3103 1142 2972 
Q 928 2841 928 2578 
Q 928 2378 1081 2264 
Q 1234 2150 1697 2047 
L 1894 2003 
Q 2506 1872 2764 1633 
Q 3022 1394 3022 966 
Q 3022 478 2636 193 
Q 2250 -91 1575 -91 
Q 1294 -91 989 -36 
Q 684 19 347 128 
L 347 722 
Q 666 556 975 473 
Q 1284 391 1588 391 
Q 1994 391 2212 530 
Q 2431 669 2431 922 
Q 2431 1156 2273 1281 
Q 2116 1406 1581 1522 
L 1381 1569 
Q 847 1681 609 1914 
Q 372 2147 372 2553 
Q 372 3047 722 3315 
Q 1072 3584 1716 3584 
Q 2034 3584 2315 3537 
Q 2597 3491 2834 3397 
z
" transform="scale(0.015625)"/>
       <path id="DejaVuSans-46" d="M 628 4666 
L 3309 4666 
L 3309 4134 
L 1259 4134 
L 1259 2759 
L 3109 2759 
L 3109 2228 
L 1259 2228 
L 1259 0 
L 628 0 
L 628 4666 
z
" transform="scale(0.015625)"/>
       <path id="DejaVuSans-75" d="M 544 1381 
L 544 3500 
L 1119 3500 
L 1119 1403 
Q 1119 906 1312 657 
Q 1506 409 1894 409 
Q 2359 409 2629 706 
Q 2900 1003 2900 1516 
L 2900 3500 
L 3475 3500 
L 3475 0 
L 2900 0 
L 2900 538 
Q 2691 219 2414 64 
Q 2138 -91 1772 -91 
Q 1169 -91 856 284 
Q 544 659 544 1381 
z
M 1991 3584 
L 1991 3584 
z
" transform="scale(0.015625)"/>
       <path id="DejaVuSans-6c" d="M 603 4863 
L 1178 4863 
L 1178 0 
L 603 0 
L 603 4863 
z
" transform="scale(0.015625)"/>
       <path id="DejaVuSans-61" d="M 2194 1759 
Q 1497 1759 1228 1600 
Q 959 1441 959 1056 
Q 959 750 1161 570 
Q 1363 391 1709 391 
Q 2188 391 2477 730 
Q 2766 1069 2766 1631 
L 2766 1759 
L 2194 1759 
z
M 3341 1997 
L 3341 0 
L 2766 0 
L 2766 531 
Q 2569 213 2275 61 
Q 1981 -91 1556 -91 
Q 1019 -91 701 211 
Q 384 513 384 1019 
Q 384 1609 779 1909 
Q 1175 2209 1959 2209 
L 2766 2209 
L 2766 2266 
Q 2766 2663 2505 2880 
Q 2244 3097 1772 3097 
Q 1472 3097 1187 3025 
Q 903 2953 641 2809 
L 641 3341 
Q 956 3463 1253 3523 
Q 1550 3584 1831 3584 
Q 2591 3584 2966 3190 
Q 3341 2797 3341 1997 
z
" transform="scale(0.015625)"/>
       <path id="DejaVuSans-53" d="M 3425 4513 
L 3425 3897 
Q 3066 4069 2747 4153 
Q 2428 4238 2131 4238 
Q 1616 4238 1336 4038 
Q 1056 3838 1056 3469 
Q 1056 3159 1242 3001 
Q 1428 2844 1947 2747 
L 2328 2669 
Q 3034 2534 3370 2195 
Q 3706 1856 3706 1288 
Q 3706 609 3251 259 
Q 2797 -91 1919 -91 
Q 1588 -91 1214 -16 
Q 841 59 441 206 
L 441 856 
Q 825 641 1194 531 
Q 1563 422 1919 422 
Q 2459 422 2753 634 
Q 3047 847 3047 1241 
Q 3047 1584 2836 1778 
Q 2625 1972 2144 2069 
L 1759 2144 
Q 1053 2284 737 2584 
Q 422 2884 422 3419 
Q 422 4038 858 4394 
Q 1294 4750 2059 4750 
Q 2388 4750 2728 4690 
Q 3069 4631 3425 4513 
z
" transform="scale(0.015625)"/>
       <path id="DejaVuSans-28" d="M 1984 4856 
Q 1566 4138 1362 3434 
Q 1159 2731 1159 2009 
Q 1159 1288 1364 580 
Q 1569 -128 1984 -844 
L 1484 -844 
Q 1016 -109 783 600 
Q 550 1309 550 2009 
Q 550 2706 781 3412 
Q 1013 4119 1484 4856 
L 1984 4856 
z
" transform="scale(0.015625)"/>
       <path id="DejaVuSans-29" d="M 513 4856 
L 1013 4856 
Q 1481 4119 1714 3412 
Q 1947 2706 1947 2009 
Q 1947 1309 1714 600 
Q 1481 -109 1013 -844 
L 513 -844 
Q 928 -128 1133 580 
Q 1338 1288 1338 2009 
Q 1338 2731 1133 3434 
Q 928 4138 513 4856 
z
" transform="scale(0.015625)"/>
      </defs>
      <use xlink:href="#DejaVuSans-43"/>
      <use xlink:href="#DejaVuSans-68" x="69.824219"/>
      <use xlink:href="#DejaVuSans-69" x="133.203125"/>
      <use xlink:href="#DejaVuSans-6e" x="160.986328"/>
      <use xlink:href="#DejaVuSans-65" x="224.365234"/>
      <use xlink:href="#DejaVuSans-73" x="285.888672"/>
      <use xlink:href="#DejaVuSans-65" x="337.988281"/>
      <use xlink:href="#DejaVuSans-20" x="399.511719"/>
      <use xlink:href="#DejaVuSans-46" x="431.298828"/>
      <use xlink:href="#DejaVuSans-75" x="483.318359"/>
      <use xlink:href="#DejaVuSans-65" x="546.697266"/>
      <use xlink:href="#DejaVuSans-6c" x="608.220703"/>
      <use xlink:href="#DejaVuSans-20" x="636.003906"/>
      <use xlink:href="#DejaVuSans-43" x="667.791016"/>
      <use xlink:href="#DejaVuSans-61" x="737.615234"/>
      <use xlink:href="#DejaVuSans-72" x="798.894531"/>
      <use xlink:href="#DejaVuSans-20" x="840.007812"/>
      <use xlink:href="#DejaVuSans-53" x="871.794922"/>
      <use xlink:href="#DejaVuSans-61" x="935.271484"/>
      <use xlink:href="#DejaVuSans-6c" x="996.550781"/>
      <use xlink:href="#DejaVuSans-65" x="1024.333984"/>
      <use xlink:href="#DejaVuSans-73" x="1085.857422"/>
      <use xlink:href="#DejaVuSans-20" x="1137.957031"/>
      <use xlink:href="#DejaVuSans-28" x="1169.744141"/>
      <use xlink:href="#DejaVuSans-31" x="1208.757812"/>
      <use xlink:href="#DejaVuSans-30" x="1272.380859"/>
      <use xlink:href="#DejaVuSans-30" x="1336.003906"/>
      <use xlink:href="#DejaVuSans-30" x="1399.626953"/>
      <use xlink:href="#DejaVuSans-30" x="1463.25"/>
      <use xlink:href="#DejaVuSans-29" x="1526.873047"/>
     </g>
    </g>
    <g id="patch_125">
     <path d="M 437.070781 20.15 
L 447.070781 20.15 
L 447.070781 11.2 
L 437.070781 11.2 
z
" style="fill: #ffc0cb"/>
    </g>
    <g id="text_60">
     <!-- Chinese PHV Sales (10000) -->
     <g transform="translate(455.070781 19.1) scale(0.1 -0.1)">
      <use xlink:href="#DejaVuSans-43"/>
      <use xlink:href="#DejaVuSans-68" x="69.824219"/>
      <use xlink:href="#DejaVuSans-69" x="133.203125"/>
      <use xlink:href="#DejaVuSans-6e" x="160.986328"/>
      <use xlink:href="#DejaVuSans-65" x="224.365234"/>
      <use xlink:href="#DejaVuSans-73" x="285.888672"/>
      <use xlink:href="#DejaVuSans-65" x="337.988281"/>
      <use xlink:href="#DejaVuSans-20" x="399.511719"/>
      <use xlink:href="#DejaVuSans-50" x="431.298828"/>
      <use xlink:href="#DejaVuSans-48" x="491.601562"/>
      <use xlink:href="#DejaVuSans-56" x="566.796875"/>
      <use xlink:href="#DejaVuSans-20" x="635.205078"/>
      <use xlink:href="#DejaVuSans-53" x="666.992188"/>
      <use xlink:href="#DejaVuSans-61" x="730.46875"/>
      <use xlink:href="#DejaVuSans-6c" x="791.748047"/>
      <use xlink:href="#DejaVuSans-65" x="819.53125"/>
      <use xlink:href="#DejaVuSans-73" x="881.054688"/>
      <use xlink:href="#DejaVuSans-20" x="933.154297"/>
      <use xlink:href="#DejaVuSans-28" x="964.941406"/>
      <use xlink:href="#DejaVuSans-31" x="1003.955078"/>
      <use xlink:href="#DejaVuSans-30" x="1067.578125"/>
      <use xlink:href="#DejaVuSans-30" x="1131.201172"/>
      <use xlink:href="#DejaVuSans-30" x="1194.824219"/>
      <use xlink:href="#DejaVuSans-30" x="1258.447266"/>
      <use xlink:href="#DejaVuSans-29" x="1322.070312"/>
     </g>
    </g>
    <g id="patch_126">
     <path d="M 611.180156 20.15 
L 621.180156 20.15 
L 621.180156 11.2 
L 611.180156 11.2 
z
" style="fill: #104e8b"/>
    </g>
    <g id="text_61">
     <!-- Chinese EV Sales (10000) -->
     <g transform="translate(629.180156 19.1) scale(0.1 -0.1)">
      <use xlink:href="#DejaVuSans-43"/>
      <use xlink:href="#DejaVuSans-68" x="69.824219"/>
      <use xlink:href="#DejaVuSans-69" x="133.203125"/>
      <use xlink:href="#DejaVuSans-6e" x="160.986328"/>
      <use xlink:href="#DejaVuSans-65" x="224.365234"/>
      <use xlink:href="#DejaVuSans-73" x="285.888672"/>
      <use xlink:href="#DejaVuSans-65" x="337.988281"/>
      <use xlink:href="#DejaVuSans-20" x="399.511719"/>
      <use xlink:href="#DejaVuSans-45" x="431.298828"/>
      <use xlink:href="#DejaVuSans-56" x="494.482422"/>
      <use xlink:href="#DejaVuSans-20" x="562.890625"/>
      <use xlink:href="#DejaVuSans-53" x="594.677734"/>
      <use xlink:href="#DejaVuSans-61" x="658.154297"/>
      <use xlink:href="#DejaVuSans-6c" x="719.433594"/>
      <use xlink:href="#DejaVuSans-65" x="747.216797"/>
      <use xlink:href="#DejaVuSans-73" x="808.740234"/>
      <use xlink:href="#DejaVuSans-20" x="860.839844"/>
      <use xlink:href="#DejaVuSans-28" x="892.626953"/>
      <use xlink:href="#DejaVuSans-31" x="931.640625"/>
      <use xlink:href="#DejaVuSans-30" x="995.263672"/>
      <use xlink:href="#DejaVuSans-30" x="1058.886719"/>
      <use xlink:href="#DejaVuSans-30" x="1122.509766"/>
      <use xlink:href="#DejaVuSans-30" x="1186.132812"/>
      <use xlink:href="#DejaVuSans-29" x="1249.755859"/>
     </g>
    </g>
    <g id="line2d_61">
     <path d="M 778.058281 15.15 
L 783.058281 15.15 
L 788.058281 15.15 
" style="fill: none; stroke: #cd2626; stroke-width: 3; stroke-linecap: square"/>
    </g>
    <g id="text_62">
     <!-- Gasoline (95#) -->
     <g transform="translate(796.058281 19.1) scale(0.1 -0.1)">
      <defs>
       <path id="DejaVuSans-47" d="M 3809 666 
L 3809 1919 
L 2778 1919 
L 2778 2438 
L 4434 2438 
L 4434 434 
Q 4069 175 3628 42 
Q 3188 -91 2688 -91 
Q 1594 -91 976 548 
Q 359 1188 359 2328 
Q 359 3472 976 4111 
Q 1594 4750 2688 4750 
Q 3144 4750 3555 4637 
Q 3966 4525 4313 4306 
L 4313 3634 
Q 3963 3931 3569 4081 
Q 3175 4231 2741 4231 
Q 1884 4231 1454 3753 
Q 1025 3275 1025 2328 
Q 1025 1384 1454 906 
Q 1884 428 2741 428 
Q 3075 428 3337 486 
Q 3600 544 3809 666 
z
" transform="scale(0.015625)"/>
       <path id="DejaVuSans-23" d="M 3272 2816 
L 2363 2816 
L 2100 1772 
L 3016 1772 
L 3272 2816 
z
M 2803 4594 
L 2478 3297 
L 3391 3297 
L 3719 4594 
L 4219 4594 
L 3897 3297 
L 4872 3297 
L 4872 2816 
L 3775 2816 
L 3519 1772 
L 4513 1772 
L 4513 1294 
L 3397 1294 
L 3072 0 
L 2572 0 
L 2894 1294 
L 1978 1294 
L 1656 0 
L 1153 0 
L 1478 1294 
L 494 1294 
L 494 1772 
L 1594 1772 
L 1856 2816 
L 850 2816 
L 850 3297 
L 1978 3297 
L 2297 4594 
L 2803 4594 
z
" transform="scale(0.015625)"/>
      </defs>
      <use xlink:href="#DejaVuSans-47"/>
      <use xlink:href="#DejaVuSans-61" x="77.490234"/>
      <use xlink:href="#DejaVuSans-73" x="138.769531"/>
      <use xlink:href="#DejaVuSans-6f" x="190.869141"/>
      <use xlink:href="#DejaVuSans-6c" x="252.050781"/>
      <use xlink:href="#DejaVuSans-69" x="279.833984"/>
      <use xlink:href="#DejaVuSans-6e" x="307.617188"/>
      <use xlink:href="#DejaVuSans-65" x="370.996094"/>
      <use xlink:href="#DejaVuSans-20" x="432.519531"/>
      <use xlink:href="#DejaVuSans-28" x="464.306641"/>
      <use xlink:href="#DejaVuSans-39" x="503.320312"/>
      <use xlink:href="#DejaVuSans-35" x="566.943359"/>
      <use xlink:href="#DejaVuSans-23" x="630.566406"/>
      <use xlink:href="#DejaVuSans-29" x="714.355469"/>
     </g>
    </g>
    <g id="line2d_62">
     <path d="M 891.395781 15.15 
L 896.395781 15.15 
L 901.395781 15.15 
" style="fill: none; stroke: #104e8b; stroke-width: 3; stroke-linecap: square"/>
    </g>
    <g id="text_63">
     <!-- Gasoline (92#) -->
     <g transform="translate(909.395781 19.1) scale(0.1 -0.1)">
      <use xlink:href="#DejaVuSans-47"/>
      <use xlink:href="#DejaVuSans-61" x="77.490234"/>
      <use xlink:href="#DejaVuSans-73" x="138.769531"/>
      <use xlink:href="#DejaVuSans-6f" x="190.869141"/>
      <use xlink:href="#DejaVuSans-6c" x="252.050781"/>
      <use xlink:href="#DejaVuSans-69" x="279.833984"/>
      <use xlink:href="#DejaVuSans-6e" x="307.617188"/>
      <use xlink:href="#DejaVuSans-65" x="370.996094"/>
      <use xlink:href="#DejaVuSans-20" x="432.519531"/>
      <use xlink:href="#DejaVuSans-28" x="464.306641"/>
      <use xlink:href="#DejaVuSans-39" x="503.320312"/>
      <use xlink:href="#DejaVuSans-32" x="566.943359"/>
      <use xlink:href="#DejaVuSans-23" x="630.566406"/>
      <use xlink:href="#DejaVuSans-29" x="714.355469"/>
     </g>
    </g>
   </g>
  </g>
 </g>
 <defs>
  <clipPath id="p2cde14ab3c">
   <rect x="33.2875" y="35.464" width="892.8" height="332.64"/>
  </clipPath>
 </defs>
</svg>
