<?xml version="1.0" encoding="utf-8" standalone="no"?>
<!DOCTYPE svg PUBLIC "-//W3C//DTD SVG 1.1//EN"
  "http://www.w3.org/Graphics/SVG/1.1/DTD/svg11.dtd">
<svg xmlns:xlink="http://www.w3.org/1999/xlink" width="971.289375pt" height="451.06619pt" viewBox="0 0 971.289375 451.06619" xmlns="http://www.w3.org/2000/svg" version="1.1">
 <metadata>
  <rdf:RDF xmlns:dc="http://purl.org/dc/elements/1.1/" xmlns:cc="http://creativecommons.org/ns#" xmlns:rdf="http://www.w3.org/1999/02/22-rdf-syntax-ns#">
   <cc:Work>
    <dc:type rdf:resource="http://purl.org/dc/dcmitype/StillImage"/>
    <dc:date>2024-12-12T18:07:35.721239</dc:date>
    <dc:format>image/svg+xml</dc:format>
    <dc:creator>
     <cc:Agent>
      <dc:title>Matplotlib v3.8.3, https://matplotlib.org/</dc:title>
     </cc:Agent>
    </dc:creator>
   </cc:Work>
  </rdf:RDF>
 </metadata>
 <defs>
  <style type="text/css">*{stroke-linejoin: round; stroke-linecap: butt}</style>
 </defs>
 <g id="figure_1">
  <g id="patch_1">
   <path d="M 0 451.06619 
L 971.289375 451.06619 
L 971.289375 0 
L 0 0 
z
" style="fill: #ffffff"/>
  </g>
  <g id="axes_1">
   <g id="patch_2">
    <path d="M 71.289375 400.477812 
L 964.089375 400.477812 
L 964.089375 67.837812 
L 71.289375 67.837812 
z
" style="fill: #ffffff"/>
   </g>
   <g id="PolyCollection_1">
    <defs>
     <path id="m6c17c85967" d="M 78.192468 -65.372378 
L 78.192468 -50.588378 
L 101.202777 -50.588378 
L 124.213086 -50.588378 
L 147.223396 -50.588378 
L 170.233705 -50.588378 
L 193.244014 -50.588378 
L 216.254323 -50.588378 
L 239.264633 -50.588378 
L 262.274942 -50.588378 
L 285.285251 -50.588378 
L 308.295561 -50.588378 
L 331.30587 -50.588378 
L 354.316179 -50.588378 
L 377.326488 -50.588378 
L 400.336798 -50.588378 
L 423.347107 -50.588378 
L 446.357416 -50.588378 
L 469.367726 -50.588378 
L 492.378035 -50.588378 
L 515.388344 -50.588378 
L 538.398653 -50.588378 
L 561.408963 -50.588378 
L 584.419272 -50.588378 
L 607.429581 -50.588378 
L 630.43989 -50.588378 
L 653.4502 -50.588378 
L 676.460509 -50.588378 
L 699.470818 -50.588378 
L 722.481128 -50.588378 
L 745.491437 -50.588378 
L 768.501746 -50.588378 
L 791.512055 -50.588378 
L 814.522365 -50.588378 
L 837.532674 -50.588378 
L 860.542983 -50.588378 
L 883.553293 -50.588378 
L 906.563602 -50.588378 
L 929.573911 -50.588378 
L 952.58422 -50.588378 
L 952.58422 -128.204378 
L 952.58422 -128.204378 
L 929.573911 -117.116378 
L 906.563602 -113.420378 
L 883.553293 -106.028378 
L 860.542983 -115.268378 
L 837.532674 -107.876378 
L 814.522365 -106.028378 
L 791.512055 -109.724378 
L 768.501746 -98.636378 
L 745.491437 -91.244378 
L 722.481128 -83.852378 
L 699.470818 -80.156378 
L 676.460509 -76.460378 
L 653.4502 -72.764378 
L 630.43989 -69.068378 
L 607.429581 -70.916378 
L 584.419272 -72.764378 
L 561.408963 -69.068378 
L 538.398653 -67.220378 
L 515.388344 -69.068378 
L 492.378035 -67.220378 
L 469.367726 -69.068378 
L 446.357416 -65.372378 
L 423.347107 -69.068378 
L 400.336798 -67.220378 
L 377.326488 -65.372378 
L 354.316179 -63.524378 
L 331.30587 -67.220378 
L 308.295561 -61.676378 
L 285.285251 -63.524378 
L 262.274942 -63.524378 
L 239.264633 -65.372378 
L 216.254323 -69.068378 
L 193.244014 -69.068378 
L 170.233705 -72.764378 
L 147.223396 -74.612378 
L 124.213086 -65.372378 
L 101.202777 -63.524378 
L 78.192468 -65.372378 
z
" style="stroke: #055915"/>
    </defs>
    <g clip-path="url(#pc0fb1656a0)">
     <use xlink:href="#m6c17c85967" x="0" y="451.06619" style="fill: #055915; stroke: #055915"/>
    </g>
   </g>
   <g id="PolyCollection_2">
    <defs>
     <path id="m46f6858938" d="M 78.192468 -102.332378 
L 78.192468 -65.372378 
L 101.202777 -63.524378 
L 124.213086 -65.372378 
L 147.223396 -74.612378 
L 170.233705 -72.764378 
L 193.244014 -69.068378 
L 216.254323 -69.068378 
L 239.264633 -65.372378 
L 262.274942 -63.524378 
L 285.285251 -63.524378 
L 308.295561 -61.676378 
L 331.30587 -67.220378 
L 354.316179 -63.524378 
L 377.326488 -65.372378 
L 400.336798 -67.220378 
L 423.347107 -69.068378 
L 446.357416 -65.372378 
L 469.367726 -69.068378 
L 492.378035 -67.220378 
L 515.388344 -69.068378 
L 538.398653 -67.220378 
L 561.408963 -69.068378 
L 584.419272 -72.764378 
L 607.429581 -70.916378 
L 630.43989 -69.068378 
L 653.4502 -72.764378 
L 676.460509 -76.460378 
L 699.470818 -80.156378 
L 722.481128 -83.852378 
L 745.491437 -91.244378 
L 768.501746 -98.636378 
L 791.512055 -109.724378 
L 814.522365 -106.028378 
L 837.532674 -107.876378 
L 860.542983 -115.268378 
L 883.553293 -106.028378 
L 906.563602 -113.420378 
L 929.573911 -117.116378 
L 952.58422 -128.204378 
L 952.58422 -288.980378 
L 952.58422 -288.980378 
L 929.573911 -281.588378 
L 906.563602 -272.348378 
L 883.553293 -333.332378 
L 860.542983 -290.828378 
L 837.532674 -263.108378 
L 814.522365 -305.612378 
L 791.512055 -283.436378 
L 768.501746 -235.388378 
L 745.491437 -229.844378 
L 722.481128 -185.492378 
L 699.470818 -167.012378 
L 676.460509 -178.100378 
L 653.4502 -163.316378 
L 630.43989 -155.924378 
L 607.429581 -170.708378 
L 584.419272 -154.076378 
L 561.408963 -135.596378 
L 538.398653 -120.812378 
L 515.388344 -118.964378 
L 492.378035 -111.572378 
L 469.367726 -109.724378 
L 446.357416 -100.484378 
L 423.347107 -87.548378 
L 400.336798 -93.092378 
L 377.326488 -100.484378 
L 354.316179 -78.308378 
L 331.30587 -120.812378 
L 308.295561 -96.788378 
L 285.285251 -89.396378 
L 262.274942 -94.940378 
L 239.264633 -109.724378 
L 216.254323 -102.332378 
L 193.244014 -157.772378 
L 170.233705 -124.508378 
L 147.223396 -89.396378 
L 124.213086 -111.572378 
L 101.202777 -94.940378 
L 78.192468 -102.332378 
z
" style="stroke: #6bbf7c"/>
    </defs>
    <g clip-path="url(#pc0fb1656a0)">
     <use xlink:href="#m46f6858938" x="0" y="451.06619" style="fill: #6bbf7c; stroke: #6bbf7c"/>
    </g>
   </g>
   <g id="matplotlib.axis_1">
    <g id="xtick_1">
     <g id="line2d_1">
      <defs>
       <path id="m763501dbf3" d="M 0 0 
L 0 3.5 
" style="stroke: #000000; stroke-width: 0.8"/>
      </defs>
      <g>
       <use xlink:href="#m763501dbf3" x="78.192468" y="400.477812" style="stroke: #000000; stroke-width: 0.8"/>
      </g>
     </g>
     <g id="text_1">
      <!-- 2019-01 -->
      <g transform="translate(47.176997 442.395629) rotate(-45) scale(0.1 -0.1)">
       <defs>
        <path id="DejaVuSans-32" d="M 1228 531 
L 3431 531 
L 3431 0 
L 469 0 
L 469 531 
Q 828 903 1448 1529 
Q 2069 2156 2228 2338 
Q 2531 2678 2651 2914 
Q 2772 3150 2772 3378 
Q 2772 3750 2511 3984 
Q 2250 4219 1831 4219 
Q 1534 4219 1204 4116 
Q 875 4013 500 3803 
L 500 4441 
Q 881 4594 1212 4672 
Q 1544 4750 1819 4750 
Q 2544 4750 2975 4387 
Q 3406 4025 3406 3419 
Q 3406 3131 3298 2873 
Q 3191 2616 2906 2266 
Q 2828 2175 2409 1742 
Q 1991 1309 1228 531 
z
" transform="scale(0.015625)"/>
        <path id="DejaVuSans-30" d="M 2034 4250 
Q 1547 4250 1301 3770 
Q 1056 3291 1056 2328 
Q 1056 1369 1301 889 
Q 1547 409 2034 409 
Q 2525 409 2770 889 
Q 3016 1369 3016 2328 
Q 3016 3291 2770 3770 
Q 2525 4250 2034 4250 
z
M 2034 4750 
Q 2819 4750 3233 4129 
Q 3647 3509 3647 2328 
Q 3647 1150 3233 529 
Q 2819 -91 2034 -91 
Q 1250 -91 836 529 
Q 422 1150 422 2328 
Q 422 3509 836 4129 
Q 1250 4750 2034 4750 
z
" transform="scale(0.015625)"/>
        <path id="DejaVuSans-31" d="M 794 531 
L 1825 531 
L 1825 4091 
L 703 3866 
L 703 4441 
L 1819 4666 
L 2450 4666 
L 2450 531 
L 3481 531 
L 3481 0 
L 794 0 
L 794 531 
z
" transform="scale(0.015625)"/>
        <path id="DejaVuSans-39" d="M 703 97 
L 703 672 
Q 941 559 1184 500 
Q 1428 441 1663 441 
Q 2288 441 2617 861 
Q 2947 1281 2994 2138 
Q 2813 1869 2534 1725 
Q 2256 1581 1919 1581 
Q 1219 1581 811 2004 
Q 403 2428 403 3163 
Q 403 3881 828 4315 
Q 1253 4750 1959 4750 
Q 2769 4750 3195 4129 
Q 3622 3509 3622 2328 
Q 3622 1225 3098 567 
Q 2575 -91 1691 -91 
Q 1453 -91 1209 -44 
Q 966 3 703 97 
z
M 1959 2075 
Q 2384 2075 2632 2365 
Q 2881 2656 2881 3163 
Q 2881 3666 2632 3958 
Q 2384 4250 1959 4250 
Q 1534 4250 1286 3958 
Q 1038 3666 1038 3163 
Q 1038 2656 1286 2365 
Q 1534 2075 1959 2075 
z
" transform="scale(0.015625)"/>
        <path id="DejaVuSans-2d" d="M 313 2009 
L 1997 2009 
L 1997 1497 
L 313 1497 
L 313 2009 
z
" transform="scale(0.015625)"/>
       </defs>
       <use xlink:href="#DejaVuSans-32"/>
       <use xlink:href="#DejaVuSans-30" x="63.623047"/>
       <use xlink:href="#DejaVuSans-31" x="127.246094"/>
       <use xlink:href="#DejaVuSans-39" x="190.869141"/>
       <use xlink:href="#DejaVuSans-2d" x="254.492188"/>
       <use xlink:href="#DejaVuSans-30" x="290.576172"/>
       <use xlink:href="#DejaVuSans-31" x="354.199219"/>
      </g>
     </g>
    </g>
    <g id="xtick_2">
     <g id="line2d_2">
      <g>
       <use xlink:href="#m763501dbf3" x="101.202777" y="400.477812" style="stroke: #000000; stroke-width: 0.8"/>
      </g>
     </g>
     <g id="text_2">
      <!-- 02 -->
      <g transform="translate(90.734282 421.848653) rotate(-45) scale(0.1 -0.1)">
       <use xlink:href="#DejaVuSans-30"/>
       <use xlink:href="#DejaVuSans-32" x="63.623047"/>
      </g>
     </g>
    </g>
    <g id="xtick_3">
     <g id="line2d_3">
      <g>
       <use xlink:href="#m763501dbf3" x="124.213086" y="400.477812" style="stroke: #000000; stroke-width: 0.8"/>
      </g>
     </g>
     <g id="text_3">
      <!-- 03 -->
      <g transform="translate(113.744591 421.848653) rotate(-45) scale(0.1 -0.1)">
       <defs>
        <path id="DejaVuSans-33" d="M 2597 2516 
Q 3050 2419 3304 2112 
Q 3559 1806 3559 1356 
Q 3559 666 3084 287 
Q 2609 -91 1734 -91 
Q 1441 -91 1130 -33 
Q 819 25 488 141 
L 488 750 
Q 750 597 1062 519 
Q 1375 441 1716 441 
Q 2309 441 2620 675 
Q 2931 909 2931 1356 
Q 2931 1769 2642 2001 
Q 2353 2234 1838 2234 
L 1294 2234 
L 1294 2753 
L 1863 2753 
Q 2328 2753 2575 2939 
Q 2822 3125 2822 3475 
Q 2822 3834 2567 4026 
Q 2313 4219 1838 4219 
Q 1578 4219 1281 4162 
Q 984 4106 628 3988 
L 628 4550 
Q 988 4650 1302 4700 
Q 1616 4750 1894 4750 
Q 2613 4750 3031 4423 
Q 3450 4097 3450 3541 
Q 3450 3153 3228 2886 
Q 3006 2619 2597 2516 
z
" transform="scale(0.015625)"/>
       </defs>
       <use xlink:href="#DejaVuSans-30"/>
       <use xlink:href="#DejaVuSans-33" x="63.623047"/>
      </g>
     </g>
    </g>
    <g id="xtick_4">
     <g id="line2d_4">
      <g>
       <use xlink:href="#m763501dbf3" x="147.223396" y="400.477812" style="stroke: #000000; stroke-width: 0.8"/>
      </g>
     </g>
     <g id="text_4">
      <!-- 04 -->
      <g transform="translate(136.754901 421.848653) rotate(-45) scale(0.1 -0.1)">
       <defs>
        <path id="DejaVuSans-34" d="M 2419 4116 
L 825 1625 
L 2419 1625 
L 2419 4116 
z
M 2253 4666 
L 3047 4666 
L 3047 1625 
L 3713 1625 
L 3713 1100 
L 3047 1100 
L 3047 0 
L 2419 0 
L 2419 1100 
L 313 1100 
L 313 1709 
L 2253 4666 
z
" transform="scale(0.015625)"/>
       </defs>
       <use xlink:href="#DejaVuSans-30"/>
       <use xlink:href="#DejaVuSans-34" x="63.623047"/>
      </g>
     </g>
    </g>
    <g id="xtick_5">
     <g id="line2d_5">
      <g>
       <use xlink:href="#m763501dbf3" x="170.233705" y="400.477812" style="stroke: #000000; stroke-width: 0.8"/>
      </g>
     </g>
     <g id="text_5">
      <!-- 05 -->
      <g transform="translate(159.76521 421.848653) rotate(-45) scale(0.1 -0.1)">
       <defs>
        <path id="DejaVuSans-35" d="M 691 4666 
L 3169 4666 
L 3169 4134 
L 1269 4134 
L 1269 2991 
Q 1406 3038 1543 3061 
Q 1681 3084 1819 3084 
Q 2600 3084 3056 2656 
Q 3513 2228 3513 1497 
Q 3513 744 3044 326 
Q 2575 -91 1722 -91 
Q 1428 -91 1123 -41 
Q 819 9 494 109 
L 494 744 
Q 775 591 1075 516 
Q 1375 441 1709 441 
Q 2250 441 2565 725 
Q 2881 1009 2881 1497 
Q 2881 1984 2565 2268 
Q 2250 2553 1709 2553 
Q 1456 2553 1204 2497 
Q 953 2441 691 2322 
L 691 4666 
z
" transform="scale(0.015625)"/>
       </defs>
       <use xlink:href="#DejaVuSans-30"/>
       <use xlink:href="#DejaVuSans-35" x="63.623047"/>
      </g>
     </g>
    </g>
    <g id="xtick_6">
     <g id="line2d_6">
      <g>
       <use xlink:href="#m763501dbf3" x="193.244014" y="400.477812" style="stroke: #000000; stroke-width: 0.8"/>
      </g>
     </g>
     <g id="text_6">
      <!-- 06 -->
      <g transform="translate(182.775519 421.848653) rotate(-45) scale(0.1 -0.1)">
       <defs>
        <path id="DejaVuSans-36" d="M 2113 2584 
Q 1688 2584 1439 2293 
Q 1191 2003 1191 1497 
Q 1191 994 1439 701 
Q 1688 409 2113 409 
Q 2538 409 2786 701 
Q 3034 994 3034 1497 
Q 3034 2003 2786 2293 
Q 2538 2584 2113 2584 
z
M 3366 4563 
L 3366 3988 
Q 3128 4100 2886 4159 
Q 2644 4219 2406 4219 
Q 1781 4219 1451 3797 
Q 1122 3375 1075 2522 
Q 1259 2794 1537 2939 
Q 1816 3084 2150 3084 
Q 2853 3084 3261 2657 
Q 3669 2231 3669 1497 
Q 3669 778 3244 343 
Q 2819 -91 2113 -91 
Q 1303 -91 875 529 
Q 447 1150 447 2328 
Q 447 3434 972 4092 
Q 1497 4750 2381 4750 
Q 2619 4750 2861 4703 
Q 3103 4656 3366 4563 
z
" transform="scale(0.015625)"/>
       </defs>
       <use xlink:href="#DejaVuSans-30"/>
       <use xlink:href="#DejaVuSans-36" x="63.623047"/>
      </g>
     </g>
    </g>
    <g id="xtick_7">
     <g id="line2d_7">
      <g>
       <use xlink:href="#m763501dbf3" x="216.254323" y="400.477812" style="stroke: #000000; stroke-width: 0.8"/>
      </g>
     </g>
     <g id="text_7">
      <!-- 07 -->
      <g transform="translate(205.785829 421.848653) rotate(-45) scale(0.1 -0.1)">
       <defs>
        <path id="DejaVuSans-37" d="M 525 4666 
L 3525 4666 
L 3525 4397 
L 1831 0 
L 1172 0 
L 2766 4134 
L 525 4134 
L 525 4666 
z
" transform="scale(0.015625)"/>
       </defs>
       <use xlink:href="#DejaVuSans-30"/>
       <use xlink:href="#DejaVuSans-37" x="63.623047"/>
      </g>
     </g>
    </g>
    <g id="xtick_8">
     <g id="line2d_8">
      <g>
       <use xlink:href="#m763501dbf3" x="239.264633" y="400.477812" style="stroke: #000000; stroke-width: 0.8"/>
      </g>
     </g>
     <g id="text_8">
      <!-- 08 -->
      <g transform="translate(228.796138 421.848653) rotate(-45) scale(0.1 -0.1)">
       <defs>
        <path id="DejaVuSans-38" d="M 2034 2216 
Q 1584 2216 1326 1975 
Q 1069 1734 1069 1313 
Q 1069 891 1326 650 
Q 1584 409 2034 409 
Q 2484 409 2743 651 
Q 3003 894 3003 1313 
Q 3003 1734 2745 1975 
Q 2488 2216 2034 2216 
z
M 1403 2484 
Q 997 2584 770 2862 
Q 544 3141 544 3541 
Q 544 4100 942 4425 
Q 1341 4750 2034 4750 
Q 2731 4750 3128 4425 
Q 3525 4100 3525 3541 
Q 3525 3141 3298 2862 
Q 3072 2584 2669 2484 
Q 3125 2378 3379 2068 
Q 3634 1759 3634 1313 
Q 3634 634 3220 271 
Q 2806 -91 2034 -91 
Q 1263 -91 848 271 
Q 434 634 434 1313 
Q 434 1759 690 2068 
Q 947 2378 1403 2484 
z
M 1172 3481 
Q 1172 3119 1398 2916 
Q 1625 2713 2034 2713 
Q 2441 2713 2670 2916 
Q 2900 3119 2900 3481 
Q 2900 3844 2670 4047 
Q 2441 4250 2034 4250 
Q 1625 4250 1398 4047 
Q 1172 3844 1172 3481 
z
" transform="scale(0.015625)"/>
       </defs>
       <use xlink:href="#DejaVuSans-30"/>
       <use xlink:href="#DejaVuSans-38" x="63.623047"/>
      </g>
     </g>
    </g>
    <g id="xtick_9">
     <g id="line2d_9">
      <g>
       <use xlink:href="#m763501dbf3" x="262.274942" y="400.477812" style="stroke: #000000; stroke-width: 0.8"/>
      </g>
     </g>
     <g id="text_9">
      <!-- 09 -->
      <g transform="translate(251.806447 421.848653) rotate(-45) scale(0.1 -0.1)">
       <use xlink:href="#DejaVuSans-30"/>
       <use xlink:href="#DejaVuSans-39" x="63.623047"/>
      </g>
     </g>
    </g>
    <g id="xtick_10">
     <g id="line2d_10">
      <g>
       <use xlink:href="#m763501dbf3" x="285.285251" y="400.477812" style="stroke: #000000; stroke-width: 0.8"/>
      </g>
     </g>
     <g id="text_10">
      <!-- 10 -->
      <g transform="translate(274.816756 421.848653) rotate(-45) scale(0.1 -0.1)">
       <use xlink:href="#DejaVuSans-31"/>
       <use xlink:href="#DejaVuSans-30" x="63.623047"/>
      </g>
     </g>
    </g>
    <g id="xtick_11">
     <g id="line2d_11">
      <g>
       <use xlink:href="#m763501dbf3" x="308.295561" y="400.477812" style="stroke: #000000; stroke-width: 0.8"/>
      </g>
     </g>
     <g id="text_11">
      <!-- 11 -->
      <g transform="translate(297.827066 421.848653) rotate(-45) scale(0.1 -0.1)">
       <use xlink:href="#DejaVuSans-31"/>
       <use xlink:href="#DejaVuSans-31" x="63.623047"/>
      </g>
     </g>
    </g>
    <g id="xtick_12">
     <g id="line2d_12">
      <g>
       <use xlink:href="#m763501dbf3" x="331.30587" y="400.477812" style="stroke: #000000; stroke-width: 0.8"/>
      </g>
     </g>
     <g id="text_12">
      <!-- 12 -->
      <g transform="translate(320.837375 421.848653) rotate(-45) scale(0.1 -0.1)">
       <use xlink:href="#DejaVuSans-31"/>
       <use xlink:href="#DejaVuSans-32" x="63.623047"/>
      </g>
     </g>
    </g>
    <g id="xtick_13">
     <g id="line2d_13">
      <g>
       <use xlink:href="#m763501dbf3" x="354.316179" y="400.477812" style="stroke: #000000; stroke-width: 0.8"/>
      </g>
     </g>
     <g id="text_13">
      <!-- 2020-01 -->
      <g transform="translate(323.300708 442.395629) rotate(-45) scale(0.1 -0.1)">
       <use xlink:href="#DejaVuSans-32"/>
       <use xlink:href="#DejaVuSans-30" x="63.623047"/>
       <use xlink:href="#DejaVuSans-32" x="127.246094"/>
       <use xlink:href="#DejaVuSans-30" x="190.869141"/>
       <use xlink:href="#DejaVuSans-2d" x="254.492188"/>
       <use xlink:href="#DejaVuSans-30" x="290.576172"/>
       <use xlink:href="#DejaVuSans-31" x="354.199219"/>
      </g>
     </g>
    </g>
    <g id="xtick_14">
     <g id="line2d_14">
      <g>
       <use xlink:href="#m763501dbf3" x="377.326488" y="400.477812" style="stroke: #000000; stroke-width: 0.8"/>
      </g>
     </g>
     <g id="text_14">
      <!-- 02 -->
      <g transform="translate(366.857993 421.848653) rotate(-45) scale(0.1 -0.1)">
       <use xlink:href="#DejaVuSans-30"/>
       <use xlink:href="#DejaVuSans-32" x="63.623047"/>
      </g>
     </g>
    </g>
    <g id="xtick_15">
     <g id="line2d_15">
      <g>
       <use xlink:href="#m763501dbf3" x="400.336798" y="400.477812" style="stroke: #000000; stroke-width: 0.8"/>
      </g>
     </g>
     <g id="text_15">
      <!-- 03 -->
      <g transform="translate(389.868303 421.848653) rotate(-45) scale(0.1 -0.1)">
       <use xlink:href="#DejaVuSans-30"/>
       <use xlink:href="#DejaVuSans-33" x="63.623047"/>
      </g>
     </g>
    </g>
    <g id="xtick_16">
     <g id="line2d_16">
      <g>
       <use xlink:href="#m763501dbf3" x="423.347107" y="400.477812" style="stroke: #000000; stroke-width: 0.8"/>
      </g>
     </g>
     <g id="text_16">
      <!-- 04 -->
      <g transform="translate(412.878612 421.848653) rotate(-45) scale(0.1 -0.1)">
       <use xlink:href="#DejaVuSans-30"/>
       <use xlink:href="#DejaVuSans-34" x="63.623047"/>
      </g>
     </g>
    </g>
    <g id="xtick_17">
     <g id="line2d_17">
      <g>
       <use xlink:href="#m763501dbf3" x="446.357416" y="400.477812" style="stroke: #000000; stroke-width: 0.8"/>
      </g>
     </g>
     <g id="text_17">
      <!-- 05 -->
      <g transform="translate(435.888921 421.848653) rotate(-45) scale(0.1 -0.1)">
       <use xlink:href="#DejaVuSans-30"/>
       <use xlink:href="#DejaVuSans-35" x="63.623047"/>
      </g>
     </g>
    </g>
    <g id="xtick_18">
     <g id="line2d_18">
      <g>
       <use xlink:href="#m763501dbf3" x="469.367726" y="400.477812" style="stroke: #000000; stroke-width: 0.8"/>
      </g>
     </g>
     <g id="text_18">
      <!-- 06 -->
      <g transform="translate(458.899231 421.848653) rotate(-45) scale(0.1 -0.1)">
       <use xlink:href="#DejaVuSans-30"/>
       <use xlink:href="#DejaVuSans-36" x="63.623047"/>
      </g>
     </g>
    </g>
    <g id="xtick_19">
     <g id="line2d_19">
      <g>
       <use xlink:href="#m763501dbf3" x="492.378035" y="400.477812" style="stroke: #000000; stroke-width: 0.8"/>
      </g>
     </g>
     <g id="text_19">
      <!-- 07 -->
      <g transform="translate(481.90954 421.848653) rotate(-45) scale(0.1 -0.1)">
       <use xlink:href="#DejaVuSans-30"/>
       <use xlink:href="#DejaVuSans-37" x="63.623047"/>
      </g>
     </g>
    </g>
    <g id="xtick_20">
     <g id="line2d_20">
      <g>
       <use xlink:href="#m763501dbf3" x="515.388344" y="400.477812" style="stroke: #000000; stroke-width: 0.8"/>
      </g>
     </g>
     <g id="text_20">
      <!-- 08 -->
      <g transform="translate(504.919849 421.848653) rotate(-45) scale(0.1 -0.1)">
       <use xlink:href="#DejaVuSans-30"/>
       <use xlink:href="#DejaVuSans-38" x="63.623047"/>
      </g>
     </g>
    </g>
    <g id="xtick_21">
     <g id="line2d_21">
      <g>
       <use xlink:href="#m763501dbf3" x="538.398653" y="400.477812" style="stroke: #000000; stroke-width: 0.8"/>
      </g>
     </g>
     <g id="text_21">
      <!-- 09 -->
      <g transform="translate(527.930158 421.848653) rotate(-45) scale(0.1 -0.1)">
       <use xlink:href="#DejaVuSans-30"/>
       <use xlink:href="#DejaVuSans-39" x="63.623047"/>
      </g>
     </g>
    </g>
    <g id="xtick_22">
     <g id="line2d_22">
      <g>
       <use xlink:href="#m763501dbf3" x="561.408963" y="400.477812" style="stroke: #000000; stroke-width: 0.8"/>
      </g>
     </g>
     <g id="text_22">
      <!-- 10 -->
      <g transform="translate(550.940468 421.848653) rotate(-45) scale(0.1 -0.1)">
       <use xlink:href="#DejaVuSans-31"/>
       <use xlink:href="#DejaVuSans-30" x="63.623047"/>
      </g>
     </g>
    </g>
    <g id="xtick_23">
     <g id="line2d_23">
      <g>
       <use xlink:href="#m763501dbf3" x="584.419272" y="400.477812" style="stroke: #000000; stroke-width: 0.8"/>
      </g>
     </g>
     <g id="text_23">
      <!-- 11 -->
      <g transform="translate(573.950777 421.848653) rotate(-45) scale(0.1 -0.1)">
       <use xlink:href="#DejaVuSans-31"/>
       <use xlink:href="#DejaVuSans-31" x="63.623047"/>
      </g>
     </g>
    </g>
    <g id="xtick_24">
     <g id="line2d_24">
      <g>
       <use xlink:href="#m763501dbf3" x="607.429581" y="400.477812" style="stroke: #000000; stroke-width: 0.8"/>
      </g>
     </g>
     <g id="text_24">
      <!-- 12 -->
      <g transform="translate(596.961086 421.848653) rotate(-45) scale(0.1 -0.1)">
       <use xlink:href="#DejaVuSans-31"/>
       <use xlink:href="#DejaVuSans-32" x="63.623047"/>
      </g>
     </g>
    </g>
    <g id="xtick_25">
     <g id="line2d_25">
      <g>
       <use xlink:href="#m763501dbf3" x="630.43989" y="400.477812" style="stroke: #000000; stroke-width: 0.8"/>
      </g>
     </g>
     <g id="text_25">
      <!-- 2021-01 -->
      <g transform="translate(599.424419 442.395629) rotate(-45) scale(0.1 -0.1)">
       <use xlink:href="#DejaVuSans-32"/>
       <use xlink:href="#DejaVuSans-30" x="63.623047"/>
       <use xlink:href="#DejaVuSans-32" x="127.246094"/>
       <use xlink:href="#DejaVuSans-31" x="190.869141"/>
       <use xlink:href="#DejaVuSans-2d" x="254.492188"/>
       <use xlink:href="#DejaVuSans-30" x="290.576172"/>
       <use xlink:href="#DejaVuSans-31" x="354.199219"/>
      </g>
     </g>
    </g>
    <g id="xtick_26">
     <g id="line2d_26">
      <g>
       <use xlink:href="#m763501dbf3" x="653.4502" y="400.477812" style="stroke: #000000; stroke-width: 0.8"/>
      </g>
     </g>
     <g id="text_26">
      <!-- 02 -->
      <g transform="translate(642.981705 421.848653) rotate(-45) scale(0.1 -0.1)">
       <use xlink:href="#DejaVuSans-30"/>
       <use xlink:href="#DejaVuSans-32" x="63.623047"/>
      </g>
     </g>
    </g>
    <g id="xtick_27">
     <g id="line2d_27">
      <g>
       <use xlink:href="#m763501dbf3" x="676.460509" y="400.477812" style="stroke: #000000; stroke-width: 0.8"/>
      </g>
     </g>
     <g id="text_27">
      <!-- 03 -->
      <g transform="translate(665.992014 421.848653) rotate(-45) scale(0.1 -0.1)">
       <use xlink:href="#DejaVuSans-30"/>
       <use xlink:href="#DejaVuSans-33" x="63.623047"/>
      </g>
     </g>
    </g>
    <g id="xtick_28">
     <g id="line2d_28">
      <g>
       <use xlink:href="#m763501dbf3" x="699.470818" y="400.477812" style="stroke: #000000; stroke-width: 0.8"/>
      </g>
     </g>
     <g id="text_28">
      <!-- 04 -->
      <g transform="translate(689.002323 421.848653) rotate(-45) scale(0.1 -0.1)">
       <use xlink:href="#DejaVuSans-30"/>
       <use xlink:href="#DejaVuSans-34" x="63.623047"/>
      </g>
     </g>
    </g>
    <g id="xtick_29">
     <g id="line2d_29">
      <g>
       <use xlink:href="#m763501dbf3" x="722.481128" y="400.477812" style="stroke: #000000; stroke-width: 0.8"/>
      </g>
     </g>
     <g id="text_29">
      <!-- 05 -->
      <g transform="translate(712.012633 421.848653) rotate(-45) scale(0.1 -0.1)">
       <use xlink:href="#DejaVuSans-30"/>
       <use xlink:href="#DejaVuSans-35" x="63.623047"/>
      </g>
     </g>
    </g>
    <g id="xtick_30">
     <g id="line2d_30">
      <g>
       <use xlink:href="#m763501dbf3" x="745.491437" y="400.477812" style="stroke: #000000; stroke-width: 0.8"/>
      </g>
     </g>
     <g id="text_30">
      <!-- 06 -->
      <g transform="translate(735.022942 421.848653) rotate(-45) scale(0.1 -0.1)">
       <use xlink:href="#DejaVuSans-30"/>
       <use xlink:href="#DejaVuSans-36" x="63.623047"/>
      </g>
     </g>
    </g>
    <g id="xtick_31">
     <g id="line2d_31">
      <g>
       <use xlink:href="#m763501dbf3" x="768.501746" y="400.477812" style="stroke: #000000; stroke-width: 0.8"/>
      </g>
     </g>
     <g id="text_31">
      <!-- 07 -->
      <g transform="translate(758.033251 421.848653) rotate(-45) scale(0.1 -0.1)">
       <use xlink:href="#DejaVuSans-30"/>
       <use xlink:href="#DejaVuSans-37" x="63.623047"/>
      </g>
     </g>
    </g>
    <g id="xtick_32">
     <g id="line2d_32">
      <g>
       <use xlink:href="#m763501dbf3" x="791.512055" y="400.477812" style="stroke: #000000; stroke-width: 0.8"/>
      </g>
     </g>
     <g id="text_32">
      <!-- 08 -->
      <g transform="translate(781.04356 421.848653) rotate(-45) scale(0.1 -0.1)">
       <use xlink:href="#DejaVuSans-30"/>
       <use xlink:href="#DejaVuSans-38" x="63.623047"/>
      </g>
     </g>
    </g>
    <g id="xtick_33">
     <g id="line2d_33">
      <g>
       <use xlink:href="#m763501dbf3" x="814.522365" y="400.477812" style="stroke: #000000; stroke-width: 0.8"/>
      </g>
     </g>
     <g id="text_33">
      <!-- 09 -->
      <g transform="translate(804.05387 421.848653) rotate(-45) scale(0.1 -0.1)">
       <use xlink:href="#DejaVuSans-30"/>
       <use xlink:href="#DejaVuSans-39" x="63.623047"/>
      </g>
     </g>
    </g>
    <g id="xtick_34">
     <g id="line2d_34">
      <g>
       <use xlink:href="#m763501dbf3" x="837.532674" y="400.477812" style="stroke: #000000; stroke-width: 0.8"/>
      </g>
     </g>
     <g id="text_34">
      <!-- 10 -->
      <g transform="translate(827.064179 421.848653) rotate(-45) scale(0.1 -0.1)">
       <use xlink:href="#DejaVuSans-31"/>
       <use xlink:href="#DejaVuSans-30" x="63.623047"/>
      </g>
     </g>
    </g>
    <g id="xtick_35">
     <g id="line2d_35">
      <g>
       <use xlink:href="#m763501dbf3" x="860.542983" y="400.477812" style="stroke: #000000; stroke-width: 0.8"/>
      </g>
     </g>
     <g id="text_35">
      <!-- 11 -->
      <g transform="translate(850.074488 421.848653) rotate(-45) scale(0.1 -0.1)">
       <use xlink:href="#DejaVuSans-31"/>
       <use xlink:href="#DejaVuSans-31" x="63.623047"/>
      </g>
     </g>
    </g>
    <g id="xtick_36">
     <g id="line2d_36">
      <g>
       <use xlink:href="#m763501dbf3" x="883.553293" y="400.477812" style="stroke: #000000; stroke-width: 0.8"/>
      </g>
     </g>
     <g id="text_36">
      <!-- 12 -->
      <g transform="translate(873.084798 421.848653) rotate(-45) scale(0.1 -0.1)">
       <use xlink:href="#DejaVuSans-31"/>
       <use xlink:href="#DejaVuSans-32" x="63.623047"/>
      </g>
     </g>
    </g>
    <g id="xtick_37">
     <g id="line2d_37">
      <g>
       <use xlink:href="#m763501dbf3" x="906.563602" y="400.477812" style="stroke: #000000; stroke-width: 0.8"/>
      </g>
     </g>
     <g id="text_37">
      <!-- 2022-01 -->
      <g transform="translate(875.548131 442.395629) rotate(-45) scale(0.1 -0.1)">
       <use xlink:href="#DejaVuSans-32"/>
       <use xlink:href="#DejaVuSans-30" x="63.623047"/>
       <use xlink:href="#DejaVuSans-32" x="127.246094"/>
       <use xlink:href="#DejaVuSans-32" x="190.869141"/>
       <use xlink:href="#DejaVuSans-2d" x="254.492188"/>
       <use xlink:href="#DejaVuSans-30" x="290.576172"/>
       <use xlink:href="#DejaVuSans-31" x="354.199219"/>
      </g>
     </g>
    </g>
    <g id="xtick_38">
     <g id="line2d_38">
      <g>
       <use xlink:href="#m763501dbf3" x="929.573911" y="400.477812" style="stroke: #000000; stroke-width: 0.8"/>
      </g>
     </g>
     <g id="text_38">
      <!-- 02 -->
      <g transform="translate(919.105416 421.848653) rotate(-45) scale(0.1 -0.1)">
       <use xlink:href="#DejaVuSans-30"/>
       <use xlink:href="#DejaVuSans-32" x="63.623047"/>
      </g>
     </g>
    </g>
    <g id="xtick_39">
     <g id="line2d_39">
      <g>
       <use xlink:href="#m763501dbf3" x="952.58422" y="400.477812" style="stroke: #000000; stroke-width: 0.8"/>
      </g>
     </g>
     <g id="text_39">
      <!-- 03 -->
      <g transform="translate(942.115725 421.848653) rotate(-45) scale(0.1 -0.1)">
       <use xlink:href="#DejaVuSans-30"/>
       <use xlink:href="#DejaVuSans-33" x="63.623047"/>
      </g>
     </g>
    </g>
   </g>
   <g id="matplotlib.axis_2">
    <g id="ytick_1">
     <g id="line2d_40">
      <defs>
       <path id="mca900299d5" d="M 0 0 
L -3.5 0 
" style="stroke: #000000; stroke-width: 0.8"/>
      </defs>
      <g>
       <use xlink:href="#mca900299d5" x="71.289375" y="400.477812" style="stroke: #000000; stroke-width: 0.8"/>
      </g>
     </g>
     <g id="text_40">
      <!-- 0% -->
      <g transform="translate(48.425313 404.277031) scale(0.1 -0.1)">
       <defs>
        <path id="DejaVuSans-25" d="M 4653 2053 
Q 4381 2053 4226 1822 
Q 4072 1591 4072 1178 
Q 4072 772 4226 539 
Q 4381 306 4653 306 
Q 4919 306 5073 539 
Q 5228 772 5228 1178 
Q 5228 1588 5073 1820 
Q 4919 2053 4653 2053 
z
M 4653 2450 
Q 5147 2450 5437 2106 
Q 5728 1763 5728 1178 
Q 5728 594 5436 251 
Q 5144 -91 4653 -91 
Q 4153 -91 3862 251 
Q 3572 594 3572 1178 
Q 3572 1766 3864 2108 
Q 4156 2450 4653 2450 
z
M 1428 4353 
Q 1159 4353 1004 4120 
Q 850 3888 850 3481 
Q 850 3069 1003 2837 
Q 1156 2606 1428 2606 
Q 1700 2606 1854 2837 
Q 2009 3069 2009 3481 
Q 2009 3884 1853 4118 
Q 1697 4353 1428 4353 
z
M 4250 4750 
L 4750 4750 
L 1831 -91 
L 1331 -91 
L 4250 4750 
z
M 1428 4750 
Q 1922 4750 2215 4408 
Q 2509 4066 2509 3481 
Q 2509 2891 2217 2550 
Q 1925 2209 1428 2209 
Q 931 2209 642 2551 
Q 353 2894 353 3481 
Q 353 4063 643 4406 
Q 934 4750 1428 4750 
z
" transform="scale(0.015625)"/>
       </defs>
       <use xlink:href="#DejaVuSans-30"/>
       <use xlink:href="#DejaVuSans-25" x="63.623047"/>
      </g>
     </g>
    </g>
    <g id="ytick_2">
     <g id="line2d_41">
      <g>
       <use xlink:href="#mca900299d5" x="71.289375" y="363.517812" style="stroke: #000000; stroke-width: 0.8"/>
      </g>
     </g>
     <g id="text_41">
      <!-- 2% -->
      <g transform="translate(48.425313 367.317031) scale(0.1 -0.1)">
       <use xlink:href="#DejaVuSans-32"/>
       <use xlink:href="#DejaVuSans-25" x="63.623047"/>
      </g>
     </g>
    </g>
    <g id="ytick_3">
     <g id="line2d_42">
      <g>
       <use xlink:href="#mca900299d5" x="71.289375" y="326.557812" style="stroke: #000000; stroke-width: 0.8"/>
      </g>
     </g>
     <g id="text_42">
      <!-- 4% -->
      <g transform="translate(48.425313 330.357031) scale(0.1 -0.1)">
       <use xlink:href="#DejaVuSans-34"/>
       <use xlink:href="#DejaVuSans-25" x="63.623047"/>
      </g>
     </g>
    </g>
    <g id="ytick_4">
     <g id="line2d_43">
      <g>
       <use xlink:href="#mca900299d5" x="71.289375" y="289.597812" style="stroke: #000000; stroke-width: 0.8"/>
      </g>
     </g>
     <g id="text_43">
      <!-- 6% -->
      <g transform="translate(48.425313 293.397031) scale(0.1 -0.1)">
       <use xlink:href="#DejaVuSans-36"/>
       <use xlink:href="#DejaVuSans-25" x="63.623047"/>
      </g>
     </g>
    </g>
    <g id="ytick_5">
     <g id="line2d_44">
      <g>
       <use xlink:href="#mca900299d5" x="71.289375" y="252.637812" style="stroke: #000000; stroke-width: 0.8"/>
      </g>
     </g>
     <g id="text_44">
      <!-- 8% -->
      <g transform="translate(48.425313 256.437031) scale(0.1 -0.1)">
       <use xlink:href="#DejaVuSans-38"/>
       <use xlink:href="#DejaVuSans-25" x="63.623047"/>
      </g>
     </g>
    </g>
    <g id="ytick_6">
     <g id="line2d_45">
      <g>
       <use xlink:href="#mca900299d5" x="71.289375" y="215.677812" style="stroke: #000000; stroke-width: 0.8"/>
      </g>
     </g>
     <g id="text_45">
      <!-- 10% -->
      <g transform="translate(42.062813 219.477031) scale(0.1 -0.1)">
       <use xlink:href="#DejaVuSans-31"/>
       <use xlink:href="#DejaVuSans-30" x="63.623047"/>
       <use xlink:href="#DejaVuSans-25" x="127.246094"/>
      </g>
     </g>
    </g>
    <g id="ytick_7">
     <g id="line2d_46">
      <g>
       <use xlink:href="#mca900299d5" x="71.289375" y="178.717812" style="stroke: #000000; stroke-width: 0.8"/>
      </g>
     </g>
     <g id="text_46">
      <!-- 12% -->
      <g transform="translate(42.062813 182.517031) scale(0.1 -0.1)">
       <use xlink:href="#DejaVuSans-31"/>
       <use xlink:href="#DejaVuSans-32" x="63.623047"/>
       <use xlink:href="#DejaVuSans-25" x="127.246094"/>
      </g>
     </g>
    </g>
    <g id="ytick_8">
     <g id="line2d_47">
      <g>
       <use xlink:href="#mca900299d5" x="71.289375" y="141.757812" style="stroke: #000000; stroke-width: 0.8"/>
      </g>
     </g>
     <g id="text_47">
      <!-- 14% -->
      <g transform="translate(42.062813 145.557031) scale(0.1 -0.1)">
       <use xlink:href="#DejaVuSans-31"/>
       <use xlink:href="#DejaVuSans-34" x="63.623047"/>
       <use xlink:href="#DejaVuSans-25" x="127.246094"/>
      </g>
     </g>
    </g>
    <g id="ytick_9">
     <g id="line2d_48">
      <g>
       <use xlink:href="#mca900299d5" x="71.289375" y="104.797812" style="stroke: #000000; stroke-width: 0.8"/>
      </g>
     </g>
     <g id="text_48">
      <!-- 16% -->
      <g transform="translate(42.062813 108.597031) scale(0.1 -0.1)">
       <use xlink:href="#DejaVuSans-31"/>
       <use xlink:href="#DejaVuSans-36" x="63.623047"/>
       <use xlink:href="#DejaVuSans-25" x="127.246094"/>
      </g>
     </g>
    </g>
    <g id="ytick_10">
     <g id="line2d_49">
      <g>
       <use xlink:href="#mca900299d5" x="71.289375" y="67.837812" style="stroke: #000000; stroke-width: 0.8"/>
      </g>
     </g>
     <g id="text_49">
      <!-- 18% -->
      <g transform="translate(42.062813 71.637031) scale(0.1 -0.1)">
       <use xlink:href="#DejaVuSans-31"/>
       <use xlink:href="#DejaVuSans-38" x="63.623047"/>
       <use xlink:href="#DejaVuSans-25" x="127.246094"/>
      </g>
     </g>
    </g>
    <g id="text_50">
     <!-- Propotion -->
     <g transform="translate(7.2 55.155019) scale(0.13 -0.13)">
      <defs>
       <path id="DejaVuSans-50" d="M 1259 4147 
L 1259 2394 
L 2053 2394 
Q 2494 2394 2734 2622 
Q 2975 2850 2975 3272 
Q 2975 3691 2734 3919 
Q 2494 4147 2053 4147 
L 1259 4147 
z
M 628 4666 
L 2053 4666 
Q 2838 4666 3239 4311 
Q 3641 3956 3641 3272 
Q 3641 2581 3239 2228 
Q 2838 1875 2053 1875 
L 1259 1875 
L 1259 0 
L 628 0 
L 628 4666 
z
" transform="scale(0.015625)"/>
       <path id="DejaVuSans-72" d="M 2631 2963 
Q 2534 3019 2420 3045 
Q 2306 3072 2169 3072 
Q 1681 3072 1420 2755 
Q 1159 2438 1159 1844 
L 1159 0 
L 581 0 
L 581 3500 
L 1159 3500 
L 1159 2956 
Q 1341 3275 1631 3429 
Q 1922 3584 2338 3584 
Q 2397 3584 2469 3576 
Q 2541 3569 2628 3553 
L 2631 2963 
z
" transform="scale(0.015625)"/>
       <path id="DejaVuSans-6f" d="M 1959 3097 
Q 1497 3097 1228 2736 
Q 959 2375 959 1747 
Q 959 1119 1226 758 
Q 1494 397 1959 397 
Q 2419 397 2687 759 
Q 2956 1122 2956 1747 
Q 2956 2369 2687 2733 
Q 2419 3097 1959 3097 
z
M 1959 3584 
Q 2709 3584 3137 3096 
Q 3566 2609 3566 1747 
Q 3566 888 3137 398 
Q 2709 -91 1959 -91 
Q 1206 -91 779 398 
Q 353 888 353 1747 
Q 353 2609 779 3096 
Q 1206 3584 1959 3584 
z
" transform="scale(0.015625)"/>
       <path id="DejaVuSans-70" d="M 1159 525 
L 1159 -1331 
L 581 -1331 
L 581 3500 
L 1159 3500 
L 1159 2969 
Q 1341 3281 1617 3432 
Q 1894 3584 2278 3584 
Q 2916 3584 3314 3078 
Q 3713 2572 3713 1747 
Q 3713 922 3314 415 
Q 2916 -91 2278 -91 
Q 1894 -91 1617 61 
Q 1341 213 1159 525 
z
M 3116 1747 
Q 3116 2381 2855 2742 
Q 2594 3103 2138 3103 
Q 1681 3103 1420 2742 
Q 1159 2381 1159 1747 
Q 1159 1113 1420 752 
Q 1681 391 2138 391 
Q 2594 391 2855 752 
Q 3116 1113 3116 1747 
z
" transform="scale(0.015625)"/>
       <path id="DejaVuSans-74" d="M 1172 4494 
L 1172 3500 
L 2356 3500 
L 2356 3053 
L 1172 3053 
L 1172 1153 
Q 1172 725 1289 603 
Q 1406 481 1766 481 
L 2356 481 
L 2356 0 
L 1766 0 
Q 1100 0 847 248 
Q 594 497 594 1153 
L 594 3053 
L 172 3053 
L 172 3500 
L 594 3500 
L 594 4494 
L 1172 4494 
z
" transform="scale(0.015625)"/>
       <path id="DejaVuSans-69" d="M 603 3500 
L 1178 3500 
L 1178 0 
L 603 0 
L 603 3500 
z
M 603 4863 
L 1178 4863 
L 1178 4134 
L 603 4134 
L 603 4863 
z
" transform="scale(0.015625)"/>
       <path id="DejaVuSans-6e" d="M 3513 2113 
L 3513 0 
L 2938 0 
L 2938 2094 
Q 2938 2591 2744 2837 
Q 2550 3084 2163 3084 
Q 1697 3084 1428 2787 
Q 1159 2491 1159 1978 
L 1159 0 
L 581 0 
L 581 3500 
L 1159 3500 
L 1159 2956 
Q 1366 3272 1645 3428 
Q 1925 3584 2291 3584 
Q 2894 3584 3203 3211 
Q 3513 2838 3513 2113 
z
" transform="scale(0.015625)"/>
      </defs>
      <use xlink:href="#DejaVuSans-50"/>
      <use xlink:href="#DejaVuSans-72" x="58.552734"/>
      <use xlink:href="#DejaVuSans-6f" x="97.416016"/>
      <use xlink:href="#DejaVuSans-70" x="158.597656"/>
      <use xlink:href="#DejaVuSans-6f" x="222.074219"/>
      <use xlink:href="#DejaVuSans-74" x="283.255859"/>
      <use xlink:href="#DejaVuSans-69" x="322.464844"/>
      <use xlink:href="#DejaVuSans-6f" x="350.248047"/>
      <use xlink:href="#DejaVuSans-6e" x="411.429688"/>
     </g>
    </g>
   </g>
   <g id="line2d_50">
    <path d="M 78.192468 385.693812 
L 101.202777 387.541812 
L 124.213086 385.693812 
L 147.223396 376.453812 
L 170.233705 378.301812 
L 193.244014 381.997812 
L 216.254323 381.997812 
L 239.264633 385.693812 
L 262.274942 387.541812 
L 285.285251 387.541812 
L 308.295561 389.389812 
L 331.30587 383.845812 
L 354.316179 387.541812 
L 377.326488 385.693812 
L 400.336798 383.845812 
L 423.347107 381.997812 
L 446.357416 385.693812 
L 469.367726 381.997812 
L 492.378035 383.845812 
L 515.388344 381.997812 
L 538.398653 383.845812 
L 561.408963 381.997812 
L 584.419272 378.301812 
L 607.429581 380.149812 
L 630.43989 381.997812 
L 653.4502 378.301812 
L 676.460509 374.605812 
L 699.470818 370.909812 
L 722.481128 367.213812 
L 745.491437 359.821812 
L 768.501746 352.429812 
L 791.512055 341.341812 
L 814.522365 345.037812 
L 837.532674 343.189812 
L 860.542983 335.797812 
L 883.553293 345.037812 
L 906.563602 337.645812 
L 929.573911 333.949812 
L 952.58422 322.861812 
" clip-path="url(#pc0fb1656a0)" style="fill: none; stroke: #055915; stroke-linecap: square"/>
   </g>
   <g id="patch_3">
    <path d="M 71.289375 400.477812 
L 964.089375 400.477812 
" style="fill: none; stroke: #000000; stroke-width: 0.8; stroke-linejoin: miter; stroke-linecap: square"/>
   </g>
   <g id="line2d_51">
    <path d="M 78.192468 348.733812 
L 101.202777 356.125812 
L 124.213086 339.493812 
L 147.223396 361.669812 
L 170.233705 326.557812 
L 193.244014 293.293812 
L 216.254323 348.733812 
L 239.264633 341.341812 
L 262.274942 356.125812 
L 285.285251 361.669812 
L 308.295561 354.277812 
L 331.30587 330.253812 
L 354.316179 372.757812 
L 377.326488 350.581812 
L 400.336798 357.973812 
L 423.347107 363.517812 
L 446.357416 350.581812 
L 469.367726 341.341812 
L 492.378035 339.493812 
L 515.388344 332.101812 
L 538.398653 330.253812 
L 561.408963 315.469812 
L 584.419272 296.989812 
L 607.429581 280.357812 
L 630.43989 295.141812 
L 653.4502 287.749812 
L 676.460509 272.965812 
L 699.470818 284.053812 
L 722.481128 265.573812 
L 745.491437 221.221812 
L 768.501746 215.677812 
L 791.512055 167.629812 
L 814.522365 145.453812 
L 837.532674 187.957812 
L 860.542983 160.237812 
L 883.553293 117.733812 
L 906.563602 178.717812 
L 929.573911 169.477812 
L 952.58422 162.085812 
" clip-path="url(#pc0fb1656a0)" style="fill: none; stroke: #6bbf7c; stroke-linecap: square"/>
   </g>
   <g id="patch_4">
    <path d="M 494.736692 130.546468 
Q 484.589947 172.141786 474.973129 211.564738 
" style="fill: none; stroke: #ff7f37; stroke-width: 2; stroke-linecap: round"/>
    <path d="M 479.598705 206.105429 
L 474.973129 211.564738 
L 473.381028 204.588692 
" style="fill: none; stroke: #ff7f37; stroke-width: 2; stroke-linecap: round"/>
   </g>
   <g id="text_51">
    <!-- Gasoline Price Trends -->
    <g style="fill: #ff8c00" transform="translate(400.336798 123.277812) scale(0.16 -0.16)">
     <defs>
      <path id="DejaVuSans-Bold-47" d="M 4781 347 
Q 4331 128 3847 18 
Q 3363 -91 2847 -91 
Q 1681 -91 1000 561 
Q 319 1213 319 2328 
Q 319 3456 1012 4103 
Q 1706 4750 2913 4750 
Q 3378 4750 3804 4662 
Q 4231 4575 4609 4403 
L 4609 3438 
Q 4219 3659 3833 3768 
Q 3447 3878 3059 3878 
Q 2341 3878 1952 3476 
Q 1563 3075 1563 2328 
Q 1563 1588 1938 1184 
Q 2313 781 3003 781 
Q 3191 781 3352 804 
Q 3513 828 3641 878 
L 3641 1784 
L 2906 1784 
L 2906 2591 
L 4781 2591 
L 4781 347 
z
" transform="scale(0.015625)"/>
      <path id="DejaVuSans-Bold-61" d="M 2106 1575 
Q 1756 1575 1579 1456 
Q 1403 1338 1403 1106 
Q 1403 894 1545 773 
Q 1688 653 1941 653 
Q 2256 653 2472 879 
Q 2688 1106 2688 1447 
L 2688 1575 
L 2106 1575 
z
M 3816 1997 
L 3816 0 
L 2688 0 
L 2688 519 
Q 2463 200 2181 54 
Q 1900 -91 1497 -91 
Q 953 -91 614 226 
Q 275 544 275 1050 
Q 275 1666 698 1953 
Q 1122 2241 2028 2241 
L 2688 2241 
L 2688 2328 
Q 2688 2594 2478 2717 
Q 2269 2841 1825 2841 
Q 1466 2841 1156 2769 
Q 847 2697 581 2553 
L 581 3406 
Q 941 3494 1303 3539 
Q 1666 3584 2028 3584 
Q 2975 3584 3395 3211 
Q 3816 2838 3816 1997 
z
" transform="scale(0.015625)"/>
      <path id="DejaVuSans-Bold-73" d="M 3272 3391 
L 3272 2541 
Q 2913 2691 2578 2766 
Q 2244 2841 1947 2841 
Q 1628 2841 1473 2761 
Q 1319 2681 1319 2516 
Q 1319 2381 1436 2309 
Q 1553 2238 1856 2203 
L 2053 2175 
Q 2913 2066 3209 1816 
Q 3506 1566 3506 1031 
Q 3506 472 3093 190 
Q 2681 -91 1863 -91 
Q 1516 -91 1145 -36 
Q 775 19 384 128 
L 384 978 
Q 719 816 1070 734 
Q 1422 653 1784 653 
Q 2113 653 2278 743 
Q 2444 834 2444 1013 
Q 2444 1163 2330 1236 
Q 2216 1309 1875 1350 
L 1678 1375 
Q 931 1469 631 1722 
Q 331 1975 331 2491 
Q 331 3047 712 3315 
Q 1094 3584 1881 3584 
Q 2191 3584 2531 3537 
Q 2872 3491 3272 3391 
z
" transform="scale(0.015625)"/>
      <path id="DejaVuSans-Bold-6f" d="M 2203 2784 
Q 1831 2784 1636 2517 
Q 1441 2250 1441 1747 
Q 1441 1244 1636 976 
Q 1831 709 2203 709 
Q 2569 709 2762 976 
Q 2956 1244 2956 1747 
Q 2956 2250 2762 2517 
Q 2569 2784 2203 2784 
z
M 2203 3584 
Q 3106 3584 3614 3096 
Q 4122 2609 4122 1747 
Q 4122 884 3614 396 
Q 3106 -91 2203 -91 
Q 1297 -91 786 396 
Q 275 884 275 1747 
Q 275 2609 786 3096 
Q 1297 3584 2203 3584 
z
" transform="scale(0.015625)"/>
      <path id="DejaVuSans-Bold-6c" d="M 538 4863 
L 1656 4863 
L 1656 0 
L 538 0 
L 538 4863 
z
" transform="scale(0.015625)"/>
      <path id="DejaVuSans-Bold-69" d="M 538 3500 
L 1656 3500 
L 1656 0 
L 538 0 
L 538 3500 
z
M 538 4863 
L 1656 4863 
L 1656 3950 
L 538 3950 
L 538 4863 
z
" transform="scale(0.015625)"/>
      <path id="DejaVuSans-Bold-6e" d="M 4056 2131 
L 4056 0 
L 2931 0 
L 2931 347 
L 2931 1631 
Q 2931 2084 2911 2256 
Q 2891 2428 2841 2509 
Q 2775 2619 2662 2680 
Q 2550 2741 2406 2741 
Q 2056 2741 1856 2470 
Q 1656 2200 1656 1722 
L 1656 0 
L 538 0 
L 538 3500 
L 1656 3500 
L 1656 2988 
Q 1909 3294 2193 3439 
Q 2478 3584 2822 3584 
Q 3428 3584 3742 3212 
Q 4056 2841 4056 2131 
z
" transform="scale(0.015625)"/>
      <path id="DejaVuSans-Bold-65" d="M 4031 1759 
L 4031 1441 
L 1416 1441 
Q 1456 1047 1700 850 
Q 1944 653 2381 653 
Q 2734 653 3104 758 
Q 3475 863 3866 1075 
L 3866 213 
Q 3469 63 3072 -14 
Q 2675 -91 2278 -91 
Q 1328 -91 801 392 
Q 275 875 275 1747 
Q 275 2603 792 3093 
Q 1309 3584 2216 3584 
Q 3041 3584 3536 3087 
Q 4031 2591 4031 1759 
z
M 2881 2131 
Q 2881 2450 2695 2645 
Q 2509 2841 2209 2841 
Q 1884 2841 1681 2658 
Q 1478 2475 1428 2131 
L 2881 2131 
z
" transform="scale(0.015625)"/>
      <path id="DejaVuSans-Bold-20" transform="scale(0.015625)"/>
      <path id="DejaVuSans-Bold-50" d="M 588 4666 
L 2584 4666 
Q 3475 4666 3951 4270 
Q 4428 3875 4428 3144 
Q 4428 2409 3951 2014 
Q 3475 1619 2584 1619 
L 1791 1619 
L 1791 0 
L 588 0 
L 588 4666 
z
M 1791 3794 
L 1791 2491 
L 2456 2491 
Q 2806 2491 2997 2661 
Q 3188 2831 3188 3144 
Q 3188 3456 2997 3625 
Q 2806 3794 2456 3794 
L 1791 3794 
z
" transform="scale(0.015625)"/>
      <path id="DejaVuSans-Bold-72" d="M 3138 2547 
Q 2991 2616 2845 2648 
Q 2700 2681 2553 2681 
Q 2122 2681 1889 2404 
Q 1656 2128 1656 1613 
L 1656 0 
L 538 0 
L 538 3500 
L 1656 3500 
L 1656 2925 
Q 1872 3269 2151 3426 
Q 2431 3584 2822 3584 
Q 2878 3584 2943 3579 
Q 3009 3575 3134 3559 
L 3138 2547 
z
" transform="scale(0.015625)"/>
      <path id="DejaVuSans-Bold-63" d="M 3366 3391 
L 3366 2478 
Q 3138 2634 2908 2709 
Q 2678 2784 2431 2784 
Q 1963 2784 1702 2511 
Q 1441 2238 1441 1747 
Q 1441 1256 1702 982 
Q 1963 709 2431 709 
Q 2694 709 2930 787 
Q 3166 866 3366 1019 
L 3366 103 
Q 3103 6 2833 -42 
Q 2563 -91 2291 -91 
Q 1344 -91 809 395 
Q 275 881 275 1747 
Q 275 2613 809 3098 
Q 1344 3584 2291 3584 
Q 2566 3584 2833 3536 
Q 3100 3488 3366 3391 
z
" transform="scale(0.015625)"/>
      <path id="DejaVuSans-Bold-54" d="M 31 4666 
L 4331 4666 
L 4331 3756 
L 2784 3756 
L 2784 0 
L 1581 0 
L 1581 3756 
L 31 3756 
L 31 4666 
z
" transform="scale(0.015625)"/>
      <path id="DejaVuSans-Bold-64" d="M 2919 2988 
L 2919 4863 
L 4044 4863 
L 4044 0 
L 2919 0 
L 2919 506 
Q 2688 197 2409 53 
Q 2131 -91 1766 -91 
Q 1119 -91 703 423 
Q 288 938 288 1747 
Q 288 2556 703 3070 
Q 1119 3584 1766 3584 
Q 2128 3584 2408 3439 
Q 2688 3294 2919 2988 
z
M 2181 722 
Q 2541 722 2730 984 
Q 2919 1247 2919 1747 
Q 2919 2247 2730 2509 
Q 2541 2772 2181 2772 
Q 1825 2772 1636 2509 
Q 1447 2247 1447 1747 
Q 1447 1247 1636 984 
Q 1825 722 2181 722 
z
" transform="scale(0.015625)"/>
     </defs>
     <use xlink:href="#DejaVuSans-Bold-47"/>
     <use xlink:href="#DejaVuSans-Bold-61" x="82.080078"/>
     <use xlink:href="#DejaVuSans-Bold-73" x="149.560547"/>
     <use xlink:href="#DejaVuSans-Bold-6f" x="209.082031"/>
     <use xlink:href="#DejaVuSans-Bold-6c" x="277.783203"/>
     <use xlink:href="#DejaVuSans-Bold-69" x="312.060547"/>
     <use xlink:href="#DejaVuSans-Bold-6e" x="346.337891"/>
     <use xlink:href="#DejaVuSans-Bold-65" x="417.529297"/>
     <use xlink:href="#DejaVuSans-Bold-20" x="485.351562"/>
     <use xlink:href="#DejaVuSans-Bold-50" x="520.166016"/>
     <use xlink:href="#DejaVuSans-Bold-72" x="593.457031"/>
     <use xlink:href="#DejaVuSans-Bold-69" x="642.773438"/>
     <use xlink:href="#DejaVuSans-Bold-63" x="677.050781"/>
     <use xlink:href="#DejaVuSans-Bold-65" x="736.328125"/>
     <use xlink:href="#DejaVuSans-Bold-20" x="804.150391"/>
     <use xlink:href="#DejaVuSans-Bold-54" x="838.964844"/>
     <use xlink:href="#DejaVuSans-Bold-72" x="896.177734"/>
     <use xlink:href="#DejaVuSans-Bold-65" x="945.494141"/>
     <use xlink:href="#DejaVuSans-Bold-6e" x="1013.316406"/>
     <use xlink:href="#DejaVuSans-Bold-64" x="1084.507812"/>
     <use xlink:href="#DejaVuSans-Bold-73" x="1156.089844"/>
    </g>
   </g>
   <g id="text_52">
    <!-- Trends in Vehicle Proportions and Gasoline Prices in China -->
    <g transform="translate(287.270156 17.837812) scale(0.14 -0.14)">
     <defs>
      <path id="DejaVuSans-Bold-56" d="M 31 4666 
L 1241 4666 
L 2478 1222 
L 3713 4666 
L 4922 4666 
L 3194 0 
L 1759 0 
L 31 4666 
z
" transform="scale(0.015625)"/>
      <path id="DejaVuSans-Bold-68" d="M 4056 2131 
L 4056 0 
L 2931 0 
L 2931 347 
L 2931 1625 
Q 2931 2084 2911 2256 
Q 2891 2428 2841 2509 
Q 2775 2619 2662 2680 
Q 2550 2741 2406 2741 
Q 2056 2741 1856 2470 
Q 1656 2200 1656 1722 
L 1656 0 
L 538 0 
L 538 4863 
L 1656 4863 
L 1656 2988 
Q 1909 3294 2193 3439 
Q 2478 3584 2822 3584 
Q 3428 3584 3742 3212 
Q 4056 2841 4056 2131 
z
" transform="scale(0.015625)"/>
      <path id="DejaVuSans-Bold-70" d="M 1656 506 
L 1656 -1331 
L 538 -1331 
L 538 3500 
L 1656 3500 
L 1656 2988 
Q 1888 3294 2169 3439 
Q 2450 3584 2816 3584 
Q 3463 3584 3878 3070 
Q 4294 2556 4294 1747 
Q 4294 938 3878 423 
Q 3463 -91 2816 -91 
Q 2450 -91 2169 54 
Q 1888 200 1656 506 
z
M 2400 2772 
Q 2041 2772 1848 2508 
Q 1656 2244 1656 1747 
Q 1656 1250 1848 986 
Q 2041 722 2400 722 
Q 2759 722 2948 984 
Q 3138 1247 3138 1747 
Q 3138 2247 2948 2509 
Q 2759 2772 2400 2772 
z
" transform="scale(0.015625)"/>
      <path id="DejaVuSans-Bold-74" d="M 1759 4494 
L 1759 3500 
L 2913 3500 
L 2913 2700 
L 1759 2700 
L 1759 1216 
Q 1759 972 1856 886 
Q 1953 800 2241 800 
L 2816 800 
L 2816 0 
L 1856 0 
Q 1194 0 917 276 
Q 641 553 641 1216 
L 641 2700 
L 84 2700 
L 84 3500 
L 641 3500 
L 641 4494 
L 1759 4494 
z
" transform="scale(0.015625)"/>
      <path id="DejaVuSans-Bold-43" d="M 4288 256 
Q 3956 84 3597 -3 
Q 3238 -91 2847 -91 
Q 1681 -91 1000 561 
Q 319 1213 319 2328 
Q 319 3447 1000 4098 
Q 1681 4750 2847 4750 
Q 3238 4750 3597 4662 
Q 3956 4575 4288 4403 
L 4288 3438 
Q 3953 3666 3628 3772 
Q 3303 3878 2944 3878 
Q 2300 3878 1931 3465 
Q 1563 3053 1563 2328 
Q 1563 1606 1931 1193 
Q 2300 781 2944 781 
Q 3303 781 3628 887 
Q 3953 994 4288 1222 
L 4288 256 
z
" transform="scale(0.015625)"/>
     </defs>
     <use xlink:href="#DejaVuSans-Bold-54"/>
     <use xlink:href="#DejaVuSans-Bold-72" x="57.212891"/>
     <use xlink:href="#DejaVuSans-Bold-65" x="106.529297"/>
     <use xlink:href="#DejaVuSans-Bold-6e" x="174.351562"/>
     <use xlink:href="#DejaVuSans-Bold-64" x="245.542969"/>
     <use xlink:href="#DejaVuSans-Bold-73" x="317.125"/>
     <use xlink:href="#DejaVuSans-Bold-20" x="376.646484"/>
     <use xlink:href="#DejaVuSans-Bold-69" x="411.460938"/>
     <use xlink:href="#DejaVuSans-Bold-6e" x="445.738281"/>
     <use xlink:href="#DejaVuSans-Bold-20" x="516.929688"/>
     <use xlink:href="#DejaVuSans-Bold-56" x="551.744141"/>
     <use xlink:href="#DejaVuSans-Bold-65" x="623.636719"/>
     <use xlink:href="#DejaVuSans-Bold-68" x="691.458984"/>
     <use xlink:href="#DejaVuSans-Bold-69" x="762.650391"/>
     <use xlink:href="#DejaVuSans-Bold-63" x="796.927734"/>
     <use xlink:href="#DejaVuSans-Bold-6c" x="856.205078"/>
     <use xlink:href="#DejaVuSans-Bold-65" x="890.482422"/>
     <use xlink:href="#DejaVuSans-Bold-20" x="958.304688"/>
     <use xlink:href="#DejaVuSans-Bold-50" x="993.119141"/>
     <use xlink:href="#DejaVuSans-Bold-72" x="1066.410156"/>
     <use xlink:href="#DejaVuSans-Bold-6f" x="1115.726562"/>
     <use xlink:href="#DejaVuSans-Bold-70" x="1184.427734"/>
     <use xlink:href="#DejaVuSans-Bold-6f" x="1256.009766"/>
     <use xlink:href="#DejaVuSans-Bold-72" x="1324.710938"/>
     <use xlink:href="#DejaVuSans-Bold-74" x="1374.027344"/>
     <use xlink:href="#DejaVuSans-Bold-69" x="1421.830078"/>
     <use xlink:href="#DejaVuSans-Bold-6f" x="1456.107422"/>
     <use xlink:href="#DejaVuSans-Bold-6e" x="1524.808594"/>
     <use xlink:href="#DejaVuSans-Bold-73" x="1596"/>
     <use xlink:href="#DejaVuSans-Bold-20" x="1655.521484"/>
     <use xlink:href="#DejaVuSans-Bold-61" x="1690.335938"/>
     <use xlink:href="#DejaVuSans-Bold-6e" x="1757.816406"/>
     <use xlink:href="#DejaVuSans-Bold-64" x="1829.007812"/>
     <use xlink:href="#DejaVuSans-Bold-20" x="1900.589844"/>
     <use xlink:href="#DejaVuSans-Bold-47" x="1935.404297"/>
     <use xlink:href="#DejaVuSans-Bold-61" x="2017.484375"/>
     <use xlink:href="#DejaVuSans-Bold-73" x="2084.964844"/>
     <use xlink:href="#DejaVuSans-Bold-6f" x="2144.486328"/>
     <use xlink:href="#DejaVuSans-Bold-6c" x="2213.1875"/>
     <use xlink:href="#DejaVuSans-Bold-69" x="2247.464844"/>
     <use xlink:href="#DejaVuSans-Bold-6e" x="2281.742188"/>
     <use xlink:href="#DejaVuSans-Bold-65" x="2352.933594"/>
     <use xlink:href="#DejaVuSans-Bold-20" x="2420.755859"/>
     <use xlink:href="#DejaVuSans-Bold-50" x="2455.570312"/>
     <use xlink:href="#DejaVuSans-Bold-72" x="2528.861328"/>
     <use xlink:href="#DejaVuSans-Bold-69" x="2578.177734"/>
     <use xlink:href="#DejaVuSans-Bold-63" x="2612.455078"/>
     <use xlink:href="#DejaVuSans-Bold-65" x="2671.732422"/>
     <use xlink:href="#DejaVuSans-Bold-73" x="2739.554688"/>
     <use xlink:href="#DejaVuSans-Bold-20" x="2799.076172"/>
     <use xlink:href="#DejaVuSans-Bold-69" x="2833.890625"/>
     <use xlink:href="#DejaVuSans-Bold-6e" x="2868.167969"/>
     <use xlink:href="#DejaVuSans-Bold-20" x="2939.359375"/>
     <use xlink:href="#DejaVuSans-Bold-43" x="2974.173828"/>
     <use xlink:href="#DejaVuSans-Bold-68" x="3047.5625"/>
     <use xlink:href="#DejaVuSans-Bold-69" x="3118.753906"/>
     <use xlink:href="#DejaVuSans-Bold-6e" x="3153.03125"/>
     <use xlink:href="#DejaVuSans-Bold-61" x="3224.222656"/>
    </g>
   </g>
   <g id="line2d_52">
    <path d="M 101.202777 171.47565 
L 124.213086 165.232407 
L 147.223396 167.729704 
L 170.233705 171.47565 
L 193.244014 177.718894 
L 216.254323 200.194569 
L 239.264633 190.20538 
L 262.274942 180.216191 
L 285.285251 161.486461 
L 308.295561 171.47565 
L 331.30587 183.962137 
L 354.316179 177.718894 
L 377.326488 178.967542 
L 400.336798 198.945921 
L 423.347107 227.66484 
L 446.357416 246.394569 
L 469.367726 252.637812 
L 492.378035 240.151326 
L 515.388344 230.162137 
L 538.398653 225.167542 
L 561.408963 230.162137 
L 584.419272 237.654029 
L 607.429581 240.151326 
L 630.43989 217.67565 
L 653.4502 205.189164 
L 676.460509 187.708083 
L 699.470818 163.983758 
L 722.481128 152.745921 
L 745.491437 140.259434 
L 768.501746 126.524299 
L 791.512055 125.27565 
L 814.522365 140.259434 
L 837.532674 139.010785 
L 860.542983 96.556731 
L 883.553293 109.043218 
L 906.563602 127.772948 
L 929.573911 117.783758 
L 952.58422 67.837812 
" clip-path="url(#pc0fb1656a0)" style="fill: none; stroke-dasharray: 11.1,4.8; stroke-dashoffset: 0; stroke: #ffcc66; stroke-width: 3"/>
   </g>
   <g id="line2d_53">
    <path d="M 101.202777 164.241812 
L 124.213086 158.081812 
L 147.223396 160.545812 
L 170.233705 164.241812 
L 193.244014 170.401812 
L 216.254323 192.577812 
L 239.264633 182.721812 
L 262.274942 172.865812 
L 285.285251 154.385812 
L 308.295561 164.241812 
L 331.30587 175.329812 
L 354.316179 169.169812 
L 377.326488 170.401812 
L 400.336798 191.345812 
L 423.347107 219.681812 
L 446.357416 236.929812 
L 469.367726 244.321812 
L 492.378035 230.769812 
L 515.388344 219.681812 
L 538.398653 214.753812 
L 561.408963 219.681812 
L 584.419272 227.073812 
L 607.429581 229.537812 
L 630.43989 207.361812 
L 653.4502 195.041812 
L 676.460509 180.257812 
L 699.470818 154.385812 
L 722.481128 144.529812 
L 745.491437 132.209812 
L 768.501746 118.657812 
L 791.512055 117.425812 
L 814.522365 132.209812 
L 837.532674 130.977812 
L 860.542983 89.089812 
L 883.553293 101.409812 
L 906.563602 119.889812 
L 929.573911 108.801812 
L 952.58422 59.521812 
" clip-path="url(#pc0fb1656a0)" style="fill: none; stroke-dasharray: 11.1,4.8; stroke-dashoffset: 0; stroke: #ff8c00; stroke-width: 3"/>
   </g>
   <g id="legend_1">
    <g id="patch_5">
     <path d="M 463.366562 51.17225 
L 483.366562 51.17225 
L 483.366562 44.17225 
L 463.366562 44.17225 
z
" style="fill: #055915; stroke: #055915; stroke-linejoin: miter"/>
    </g>
    <g id="text_53">
     <!-- PHV Proportion -->
     <g transform="translate(491.366562 51.17225) scale(0.1 -0.1)">
      <defs>
       <path id="DejaVuSans-48" d="M 628 4666 
L 1259 4666 
L 1259 2753 
L 3553 2753 
L 3553 4666 
L 4184 4666 
L 4184 0 
L 3553 0 
L 3553 2222 
L 1259 2222 
L 1259 0 
L 628 0 
L 628 4666 
z
" transform="scale(0.015625)"/>
       <path id="DejaVuSans-56" d="M 1831 0 
L 50 4666 
L 709 4666 
L 2188 738 
L 3669 4666 
L 4325 4666 
L 2547 0 
L 1831 0 
z
" transform="scale(0.015625)"/>
       <path id="DejaVuSans-20" transform="scale(0.015625)"/>
      </defs>
      <use xlink:href="#DejaVuSans-50"/>
      <use xlink:href="#DejaVuSans-48" x="60.302734"/>
      <use xlink:href="#DejaVuSans-56" x="135.498047"/>
      <use xlink:href="#DejaVuSans-20" x="203.90625"/>
      <use xlink:href="#DejaVuSans-50" x="235.693359"/>
      <use xlink:href="#DejaVuSans-72" x="294.246094"/>
      <use xlink:href="#DejaVuSans-6f" x="333.109375"/>
      <use xlink:href="#DejaVuSans-70" x="394.291016"/>
      <use xlink:href="#DejaVuSans-6f" x="457.767578"/>
      <use xlink:href="#DejaVuSans-72" x="518.949219"/>
      <use xlink:href="#DejaVuSans-74" x="560.0625"/>
      <use xlink:href="#DejaVuSans-69" x="599.271484"/>
      <use xlink:href="#DejaVuSans-6f" x="627.054688"/>
      <use xlink:href="#DejaVuSans-6e" x="688.236328"/>
     </g>
    </g>
    <g id="patch_6">
     <path d="M 586.5275 51.17225 
L 606.5275 51.17225 
L 606.5275 44.17225 
L 586.5275 44.17225 
z
" style="fill: #6bbf7c; stroke: #6bbf7c; stroke-linejoin: miter"/>
    </g>
    <g id="text_54">
     <!-- EV Proportion -->
     <g transform="translate(614.5275 51.17225) scale(0.1 -0.1)">
      <defs>
       <path id="DejaVuSans-45" d="M 628 4666 
L 3578 4666 
L 3578 4134 
L 1259 4134 
L 1259 2753 
L 3481 2753 
L 3481 2222 
L 1259 2222 
L 1259 531 
L 3634 531 
L 3634 0 
L 628 0 
L 628 4666 
z
" transform="scale(0.015625)"/>
      </defs>
      <use xlink:href="#DejaVuSans-45"/>
      <use xlink:href="#DejaVuSans-56" x="63.183594"/>
      <use xlink:href="#DejaVuSans-20" x="131.591797"/>
      <use xlink:href="#DejaVuSans-50" x="163.378906"/>
      <use xlink:href="#DejaVuSans-72" x="221.931641"/>
      <use xlink:href="#DejaVuSans-6f" x="260.794922"/>
      <use xlink:href="#DejaVuSans-70" x="321.976562"/>
      <use xlink:href="#DejaVuSans-6f" x="385.453125"/>
      <use xlink:href="#DejaVuSans-72" x="446.634766"/>
      <use xlink:href="#DejaVuSans-74" x="487.748047"/>
      <use xlink:href="#DejaVuSans-69" x="526.957031"/>
      <use xlink:href="#DejaVuSans-6f" x="554.740234"/>
      <use xlink:href="#DejaVuSans-6e" x="615.921875"/>
     </g>
    </g>
    <g id="line2d_54">
     <path d="M 702.457187 47.67225 
L 712.457187 47.67225 
L 722.457187 47.67225 
" style="fill: none; stroke-dasharray: 11.1,4.8; stroke-dashoffset: 0; stroke: #ffcc66; stroke-width: 3"/>
    </g>
    <g id="text_55">
     <!-- Gasoline (95#) -->
     <g transform="translate(730.457187 51.17225) scale(0.1 -0.1)">
      <defs>
       <path id="DejaVuSans-47" d="M 3809 666 
L 3809 1919 
L 2778 1919 
L 2778 2438 
L 4434 2438 
L 4434 434 
Q 4069 175 3628 42 
Q 3188 -91 2688 -91 
Q 1594 -91 976 548 
Q 359 1188 359 2328 
Q 359 3472 976 4111 
Q 1594 4750 2688 4750 
Q 3144 4750 3555 4637 
Q 3966 4525 4313 4306 
L 4313 3634 
Q 3963 3931 3569 4081 
Q 3175 4231 2741 4231 
Q 1884 4231 1454 3753 
Q 1025 3275 1025 2328 
Q 1025 1384 1454 906 
Q 1884 428 2741 428 
Q 3075 428 3337 486 
Q 3600 544 3809 666 
z
" transform="scale(0.015625)"/>
       <path id="DejaVuSans-61" d="M 2194 1759 
Q 1497 1759 1228 1600 
Q 959 1441 959 1056 
Q 959 750 1161 570 
Q 1363 391 1709 391 
Q 2188 391 2477 730 
Q 2766 1069 2766 1631 
L 2766 1759 
L 2194 1759 
z
M 3341 1997 
L 3341 0 
L 2766 0 
L 2766 531 
Q 2569 213 2275 61 
Q 1981 -91 1556 -91 
Q 1019 -91 701 211 
Q 384 513 384 1019 
Q 384 1609 779 1909 
Q 1175 2209 1959 2209 
L 2766 2209 
L 2766 2266 
Q 2766 2663 2505 2880 
Q 2244 3097 1772 3097 
Q 1472 3097 1187 3025 
Q 903 2953 641 2809 
L 641 3341 
Q 956 3463 1253 3523 
Q 1550 3584 1831 3584 
Q 2591 3584 2966 3190 
Q 3341 2797 3341 1997 
z
" transform="scale(0.015625)"/>
       <path id="DejaVuSans-73" d="M 2834 3397 
L 2834 2853 
Q 2591 2978 2328 3040 
Q 2066 3103 1784 3103 
Q 1356 3103 1142 2972 
Q 928 2841 928 2578 
Q 928 2378 1081 2264 
Q 1234 2150 1697 2047 
L 1894 2003 
Q 2506 1872 2764 1633 
Q 3022 1394 3022 966 
Q 3022 478 2636 193 
Q 2250 -91 1575 -91 
Q 1294 -91 989 -36 
Q 684 19 347 128 
L 347 722 
Q 666 556 975 473 
Q 1284 391 1588 391 
Q 1994 391 2212 530 
Q 2431 669 2431 922 
Q 2431 1156 2273 1281 
Q 2116 1406 1581 1522 
L 1381 1569 
Q 847 1681 609 1914 
Q 372 2147 372 2553 
Q 372 3047 722 3315 
Q 1072 3584 1716 3584 
Q 2034 3584 2315 3537 
Q 2597 3491 2834 3397 
z
" transform="scale(0.015625)"/>
       <path id="DejaVuSans-6c" d="M 603 4863 
L 1178 4863 
L 1178 0 
L 603 0 
L 603 4863 
z
" transform="scale(0.015625)"/>
       <path id="DejaVuSans-65" d="M 3597 1894 
L 3597 1613 
L 953 1613 
Q 991 1019 1311 708 
Q 1631 397 2203 397 
Q 2534 397 2845 478 
Q 3156 559 3463 722 
L 3463 178 
Q 3153 47 2828 -22 
Q 2503 -91 2169 -91 
Q 1331 -91 842 396 
Q 353 884 353 1716 
Q 353 2575 817 3079 
Q 1281 3584 2069 3584 
Q 2775 3584 3186 3129 
Q 3597 2675 3597 1894 
z
M 3022 2063 
Q 3016 2534 2758 2815 
Q 2500 3097 2075 3097 
Q 1594 3097 1305 2825 
Q 1016 2553 972 2059 
L 3022 2063 
z
" transform="scale(0.015625)"/>
       <path id="DejaVuSans-28" d="M 1984 4856 
Q 1566 4138 1362 3434 
Q 1159 2731 1159 2009 
Q 1159 1288 1364 580 
Q 1569 -128 1984 -844 
L 1484 -844 
Q 1016 -109 783 600 
Q 550 1309 550 2009 
Q 550 2706 781 3412 
Q 1013 4119 1484 4856 
L 1984 4856 
z
" transform="scale(0.015625)"/>
       <path id="DejaVuSans-23" d="M 3272 2816 
L 2363 2816 
L 2100 1772 
L 3016 1772 
L 3272 2816 
z
M 2803 4594 
L 2478 3297 
L 3391 3297 
L 3719 4594 
L 4219 4594 
L 3897 3297 
L 4872 3297 
L 4872 2816 
L 3775 2816 
L 3519 1772 
L 4513 1772 
L 4513 1294 
L 3397 1294 
L 3072 0 
L 2572 0 
L 2894 1294 
L 1978 1294 
L 1656 0 
L 1153 0 
L 1478 1294 
L 494 1294 
L 494 1772 
L 1594 1772 
L 1856 2816 
L 850 2816 
L 850 3297 
L 1978 3297 
L 2297 4594 
L 2803 4594 
z
" transform="scale(0.015625)"/>
       <path id="DejaVuSans-29" d="M 513 4856 
L 1013 4856 
Q 1481 4119 1714 3412 
Q 1947 2706 1947 2009 
Q 1947 1309 1714 600 
Q 1481 -109 1013 -844 
L 513 -844 
Q 928 -128 1133 580 
Q 1338 1288 1338 2009 
Q 1338 2731 1133 3434 
Q 928 4138 513 4856 
z
" transform="scale(0.015625)"/>
      </defs>
      <use xlink:href="#DejaVuSans-47"/>
      <use xlink:href="#DejaVuSans-61" x="77.490234"/>
      <use xlink:href="#DejaVuSans-73" x="138.769531"/>
      <use xlink:href="#DejaVuSans-6f" x="190.869141"/>
      <use xlink:href="#DejaVuSans-6c" x="252.050781"/>
      <use xlink:href="#DejaVuSans-69" x="279.833984"/>
      <use xlink:href="#DejaVuSans-6e" x="307.617188"/>
      <use xlink:href="#DejaVuSans-65" x="370.996094"/>
      <use xlink:href="#DejaVuSans-20" x="432.519531"/>
      <use xlink:href="#DejaVuSans-28" x="464.306641"/>
      <use xlink:href="#DejaVuSans-39" x="503.320312"/>
      <use xlink:href="#DejaVuSans-35" x="566.943359"/>
      <use xlink:href="#DejaVuSans-23" x="630.566406"/>
      <use xlink:href="#DejaVuSans-29" x="714.355469"/>
     </g>
    </g>
    <g id="line2d_55">
     <path d="M 825.794687 47.67225 
L 835.794687 47.67225 
L 845.794687 47.67225 
" style="fill: none; stroke-dasharray: 11.1,4.8; stroke-dashoffset: 0; stroke: #ff8c00; stroke-width: 3"/>
    </g>
    <g id="text_56">
     <!-- Gasoline (92#) -->
     <g transform="translate(853.794687 51.17225) scale(0.1 -0.1)">
      <use xlink:href="#DejaVuSans-47"/>
      <use xlink:href="#DejaVuSans-61" x="77.490234"/>
      <use xlink:href="#DejaVuSans-73" x="138.769531"/>
      <use xlink:href="#DejaVuSans-6f" x="190.869141"/>
      <use xlink:href="#DejaVuSans-6c" x="252.050781"/>
      <use xlink:href="#DejaVuSans-69" x="279.833984"/>
      <use xlink:href="#DejaVuSans-6e" x="307.617188"/>
      <use xlink:href="#DejaVuSans-65" x="370.996094"/>
      <use xlink:href="#DejaVuSans-20" x="432.519531"/>
      <use xlink:href="#DejaVuSans-28" x="464.306641"/>
      <use xlink:href="#DejaVuSans-39" x="503.320312"/>
      <use xlink:href="#DejaVuSans-32" x="566.943359"/>
      <use xlink:href="#DejaVuSans-23" x="630.566406"/>
      <use xlink:href="#DejaVuSans-29" x="714.355469"/>
     </g>
    </g>
   </g>
  </g>
 </g>
 <defs>
  <clipPath id="pc0fb1656a0">
   <rect x="71.289375" y="67.837812" width="892.8" height="332.64"/>
  </clipPath>
 </defs>
</svg>
